<?xml version="1.0" encoding="utf-8"?>
<!-- Generator: Adobe Illustrator 16.0.0, SVG Export Plug-In . SVG Version: 6.00 Build 0)  -->
<!DOCTYPE svg PUBLIC "-//W3C//DTD SVG 1.1//EN" "http://www.w3.org/Graphics/SVG/1.1/DTD/svg11.dtd">
<svg version="1.1" id="logo-cddrake" xmlns="http://www.w3.org/2000/svg" xmlns:xlink="http://www.w3.org/1999/xlink"
	 viewBox="0 385 1000 200"  xml:space="preserve">
<g>
	<path d="M528.379,412.656c9.486,0,18.182,1.506,26.087,4.513c7.903,3.01,14.941,7.497,21.114,13.464
		c6.17,5.967,10.99,13.949,14.459,23.944c3.466,9.998,5.201,21.523,5.201,34.579c0,13.057-1.735,24.582-5.201,34.578
		c-3.469,9.997-8.289,17.977-14.459,23.943c-6.173,5.967-13.211,10.455-21.114,13.465c-7.905,3.007-16.601,4.514-26.087,4.514
		h-57.986c-0.918,0-1.659-0.283-2.219-0.842c-0.562-0.563-0.841-1.301-0.841-2.219v-146.88c0-0.918,0.28-1.657,0.841-2.219
		c0.56-0.559,1.301-0.841,2.219-0.841H528.379z M518.74,529.395c9.793,0,17.748-3.365,23.868-10.098s9.181-16.83,9.181-30.295
		c0-13.463-3.061-23.562-9.181-30.293s-14.075-10.098-23.868-10.098h-7.037c-0.918,0-1.377,0.511-1.377,1.53v77.877
		c0,0.918,0.459,1.377,1.377,1.377H518.74z"/>
	<path d="M632.122,486.996c5.616-1.944,11.483-2.916,17.604-2.916c0.935,0,1.906,0.037,2.916,0.107
		c0.574,0.072,1.043,0.307,1.403,0.702c0.359,0.396,0.54,0.883,0.54,1.458v21.708c0,0.577-0.216,1.08-0.648,1.513
		c-0.432,0.432-0.971,0.611-1.619,0.539c-0.938-0.07-1.801-0.107-2.592-0.107c-3.817,0-7.309,0.756-10.477,2.268
		c-3.169,1.512-5.545,3.493-7.128,5.939v36.289c0,0.647-0.216,1.169-0.647,1.565c-0.433,0.396-0.938,0.595-1.513,0.595H601.99
		c-0.648,0-1.172-0.199-1.566-0.595c-0.396-0.396-0.594-0.918-0.594-1.565V486.24c0-0.576,0.197-1.08,0.594-1.513
		c0.395-0.432,0.918-0.647,1.566-0.647h27.972c0.575,0,1.062,0.199,1.458,0.594c0.395,0.396,0.629,0.883,0.702,1.458V486.996z"/>
	<path d="M706.101,484.08h28.188c0.576,0,1.08,0.216,1.514,0.647c0.432,0.433,0.646,0.937,0.646,1.513v69.875
		c0,0.576-0.215,1.063-0.646,1.459c-0.434,0.395-0.938,0.594-1.514,0.594h-28.188v-0.108c-3.744,1.151-7.598,1.728-11.555,1.728
		c-5.617,0-10.928-1.152-15.932-3.455c-5.004-2.306-9.252-5.383-12.743-9.234c-3.493-3.853-6.139-8.424-7.938-13.716
		c-1.801-5.292-2.412-10.782-1.836-16.47c1.007-9.072,4.841-16.865,11.502-23.383c6.659-6.516,14.562-10.168,23.706-10.961
		c5.039-0.36,9.971,0.215,14.795,1.728V484.08z M686.876,528.846c2.088,2.125,4.645,3.186,7.67,3.186
		c3.023,0,5.578-1.061,7.668-3.186c2.086-2.123,3.131-4.68,3.131-7.668c0-2.986-1.045-5.543-3.131-7.668
		c-2.09-2.123-4.645-3.186-7.668-3.186c-3.025,0-5.582,1.063-7.67,3.186c-2.088,2.125-3.131,4.682-3.131,7.668
		C683.745,524.166,684.788,526.723,686.876,528.846z"/>
	<path d="M803.085,520.367c0.359,0.217,0.845,0.505,1.458,0.864c0.61,0.361,1.674,1.388,3.186,3.078
		c1.512,1.692,2.879,3.69,4.104,5.994c1.223,2.306,2.339,5.597,3.348,9.882c1.008,4.283,1.548,9.054,1.62,14.311
		c0.07,0.575-0.108,1.08-0.54,1.512s-0.937,0.648-1.512,0.648h-27.217c-0.577,0-1.063-0.199-1.458-0.595
		c-0.396-0.396-0.594-0.882-0.594-1.458c-0.072-3.961-0.666-7.398-1.782-10.314c-1.117-2.916-2.358-5.04-3.726-6.371
		c-1.368-1.334-2.916-2.395-4.644-3.187c-1.729-0.791-2.971-1.241-3.727-1.35s-1.35-0.162-1.782-0.162v21.276
		c0,0.647-0.216,1.169-0.647,1.565c-0.433,0.396-0.937,0.595-1.512,0.595h-26.028c-0.648,0-1.171-0.199-1.566-0.595
		c-0.396-0.396-0.594-0.918-0.594-1.565v-105.3c0-0.648,0.197-1.169,0.594-1.566c0.396-0.395,0.918-0.594,1.566-0.594h26.028
		c0.575,0,1.079,0.216,1.512,0.648c0.432,0.432,0.647,0.937,0.647,1.512v58.32c0.433,0,0.989-0.09,1.675-0.27
		c0.683-0.18,1.906-0.756,3.672-1.729c1.763-0.972,3.329-2.214,4.697-3.727c1.367-1.512,2.628-3.779,3.78-6.803
		c1.151-3.024,1.764-6.48,1.836-10.369c0-0.574,0.197-1.08,0.594-1.512c0.396-0.432,0.881-0.648,1.458-0.648h27.217
		c0.575,0,1.062,0.217,1.458,0.648c0.395,0.432,0.594,0.938,0.594,1.512c-0.072,3.818-0.378,7.436-0.918,10.854
		c-0.54,3.421-1.207,6.302-1.998,8.64c-0.793,2.341-1.674,4.482-2.646,6.426c-0.972,1.945-1.927,3.511-2.861,4.699
		c-0.937,1.188-1.801,2.178-2.593,2.969c-0.793,0.794-1.44,1.369-1.943,1.729L803.085,520.367z"/>
	<path d="M888.402,503.736c2.593,5.472,3.996,11.412,4.212,17.819c0.071,1.152-0.469,1.836-1.619,2.052l-40.933,9.072
		c1.799,0.937,3.743,1.404,5.832,1.404c3.527,0,6.624-1.115,9.288-3.348c0.503-0.433,1.062-0.611,1.674-0.541
		c0.611,0.072,1.062,0.361,1.351,0.864l11.231,16.524c0.719,1.08,0.611,2.015-0.324,2.808c-7.272,6.265-15.696,9.396-25.271,9.396
		c-6.984,0-13.446-1.728-19.386-5.184c-5.94-3.456-10.621-8.154-14.04-14.094c-3.421-5.939-5.13-12.438-5.13-19.494v-0.107
		c0-1.008,0.07-2.053,0.216-3.133c0.791-9.936,4.877-18.306,12.258-25.109c7.38-6.805,16.073-10.207,26.082-10.207
		c7.487,0,14.31,1.891,20.466,5.671S885.163,497.112,888.402,503.736z M858.703,505.464c-2.809,0-5.438,0.631-7.885,1.89
		c-2.448,1.261-4.212,2.899-5.292,4.914c-0.145,0.217-0.145,0.415,0,0.594c0.144,0.181,0.324,0.234,0.54,0.162l19.98-4.32
		c0.216-0.07,0.341-0.215,0.378-0.432c0.035-0.216-0.019-0.395-0.162-0.54C864.103,506.22,861.582,505.464,858.703,505.464z"/>
</g>
<text transform="matrix(1 0 0 1 467.3325 535.0557)" display="none"><tspan x="0" y="0" display="inline" font-family="'moon_get-Heavy'" font-size="153">D</tspan><tspan x="132.498" y="0" display="inline" font-family="'moon_get-Heavy'" font-size="108">rake</tspan></text>
<g>
	<path d="M615.18,435.821l5.597,4.437c0.116,0.096,0.184,0.222,0.203,0.377c0.019,0.154-0.02,0.29-0.116,0.406
		c-1.431,1.759-3.176,3.142-5.234,4.147s-4.268,1.508-6.627,1.508c-2.068,0-4.041-0.396-5.916-1.189
		c-1.875-0.793-3.494-1.866-4.857-3.219c-1.363-1.354-2.445-2.967-3.248-4.843c-0.803-1.875-1.203-3.838-1.203-5.887
		c0-2.049,0.4-4.006,1.203-5.873c0.803-1.865,1.885-3.475,3.248-4.829c1.363-1.353,2.982-2.431,4.857-3.233
		c1.875-0.802,3.848-1.203,5.916-1.203c2.34,0,4.543,0.503,6.612,1.508c2.068,1.005,3.809,2.378,5.22,4.118
		c0.097,0.135,0.135,0.28,0.116,0.435c-0.02,0.155-0.087,0.281-0.202,0.377l-5.598,4.408c-0.116,0.097-0.246,0.141-0.392,0.13
		c-0.146-0.009-0.267-0.072-0.362-0.188c-0.678-0.754-1.494-1.373-2.451-1.856c-0.957-0.483-1.938-0.725-2.943-0.725
		c-1.934,0-3.576,0.677-4.93,2.03c-1.354,1.354-2.029,2.987-2.029,4.901s0.676,3.548,2.029,4.901c1.354,1.354,2.996,2.03,4.93,2.03
		c1.006,0,1.991-0.242,2.959-0.725c0.966-0.483,1.787-1.111,2.465-1.885c0.096-0.116,0.217-0.179,0.362-0.188
		C614.933,435.681,615.063,435.725,615.18,435.821z"/>
	<path d="M640.699,431.645c0.695,1.47,1.072,3.064,1.131,4.785c0.02,0.31-0.126,0.493-0.436,0.551l-10.99,2.436
		c0.482,0.251,1.005,0.377,1.566,0.377c0.946,0,1.777-0.299,2.493-0.899c0.136-0.116,0.285-0.164,0.45-0.145
		c0.164,0.02,0.285,0.097,0.361,0.232l3.017,4.437c0.193,0.29,0.164,0.542-0.087,0.754c-1.953,1.682-4.215,2.523-6.786,2.523
		c-1.876,0-3.61-0.464-5.206-1.392c-1.594-0.928-2.852-2.189-3.77-3.785c-0.918-1.595-1.377-3.339-1.377-5.234v-0.029
		c0-0.271,0.019-0.551,0.058-0.841c0.212-2.668,1.31-4.916,3.292-6.742c1.98-1.827,4.315-2.741,7.003-2.741
		c2.011,0,3.843,0.507,5.495,1.522C638.567,428.47,639.829,429.867,640.699,431.645z M632.725,432.109
		c-0.754,0-1.461,0.169-2.117,0.507c-0.658,0.338-1.131,0.778-1.422,1.319c-0.039,0.058-0.039,0.112,0,0.16
		c0.039,0.048,0.088,0.063,0.146,0.043l5.365-1.16c0.058-0.019,0.091-0.058,0.102-0.116c0.009-0.058-0.005-0.106-0.044-0.145
		C634.174,432.312,633.497,432.109,632.725,432.109z"/>
	<path d="M661.115,445.855h-6.642c-0.155-0.02-0.286-0.082-0.392-0.188c-0.106-0.106-0.16-0.237-0.16-0.391v-11.513
		c0-0.232-0.057-0.454-0.174-0.667c-0.251-0.464-0.628-0.696-1.131-0.696c-0.367,0-0.677,0.13-0.928,0.391
		c-0.252,0.261-0.377,0.585-0.377,0.972v11.513c0,0.154-0.059,0.29-0.174,0.406c-0.116,0.116-0.252,0.174-0.406,0.174h-7.511
		c-0.175,0-0.314-0.053-0.421-0.159c-0.105-0.106-0.159-0.247-0.159-0.42v-18.763c0-0.155,0.054-0.29,0.159-0.406
		c0.106-0.116,0.246-0.174,0.421-0.174h5.597c1.045-0.271,2.156-0.406,3.336-0.406c1.526,0,2.899,0.222,4.117,0.667
		c1.219,0.445,2.219,1.054,3.002,1.827c0.783,0.773,1.382,1.678,1.798,2.711c0.415,1.035,0.624,2.151,0.624,3.35v11.194
		c0,0.174-0.059,0.314-0.175,0.42C661.404,445.802,661.27,445.855,661.115,445.855z"/>
	<path d="M678.746,426.396c0.155,0,0.285,0.058,0.393,0.174c0.105,0.116,0.159,0.251,0.159,0.406v5.771
		c0,0.155-0.054,0.29-0.159,0.406c-0.107,0.116-0.237,0.174-0.393,0.174h-3.77v11.948c0,0.174-0.053,0.314-0.159,0.42
		c-0.106,0.106-0.237,0.159-0.392,0.159h-7.018c-0.156,0-0.286-0.053-0.393-0.159c-0.105-0.106-0.159-0.247-0.159-0.42v-11.948
		h-3.771c-0.154,0-0.285-0.058-0.391-0.174c-0.106-0.116-0.16-0.251-0.16-0.406v-5.771c0-0.154,0.054-0.29,0.16-0.406
		c0.105-0.116,0.236-0.174,0.391-0.174h3.771v-5.046c0-0.154,0.054-0.285,0.159-0.392c0.106-0.106,0.236-0.159,0.393-0.159h7.018
		c0.154,0,0.285,0.053,0.392,0.159c0.106,0.106,0.159,0.237,0.159,0.392v5.046H678.746z"/>
	<path d="M688.838,427.15c1.508-0.522,3.084-0.783,4.727-0.783c0.252,0,0.513,0.01,0.783,0.029c0.154,0.02,0.28,0.083,0.377,0.188
		c0.097,0.106,0.146,0.237,0.146,0.392v5.829c0,0.155-0.058,0.29-0.175,0.406c-0.115,0.116-0.26,0.165-0.434,0.145
		c-0.252-0.019-0.484-0.029-0.697-0.029c-1.024,0-1.962,0.203-2.813,0.609c-0.852,0.406-1.488,0.938-1.914,1.595v9.744
		c0,0.174-0.059,0.314-0.174,0.42c-0.116,0.106-0.252,0.159-0.406,0.159h-7.511c-0.175,0-0.314-0.053-0.421-0.159
		c-0.105-0.106-0.159-0.247-0.159-0.42v-18.328c0-0.155,0.054-0.29,0.159-0.406c0.106-0.116,0.246-0.174,0.421-0.174h7.511
		c0.154,0,0.285,0.053,0.392,0.16s0.169,0.237,0.188,0.391V427.15z"/>
	<path d="M700.365,427.324c1.596-0.928,3.33-1.392,5.205-1.392s3.611,0.464,5.206,1.392c1.595,0.928,2.856,2.189,3.784,3.785
		c0.928,1.595,1.393,3.335,1.393,5.22c0,1.885-0.465,3.621-1.393,5.206s-2.189,2.842-3.784,3.77
		c-1.595,0.928-3.331,1.392-5.206,1.392s-3.609-0.464-5.205-1.392c-1.595-0.928-2.856-2.185-3.784-3.77
		c-0.929-1.585-1.392-3.32-1.392-5.206c0-1.885,0.463-3.625,1.392-5.22C697.509,429.514,698.771,428.252,700.365,427.324z
		 M703.512,438.388c0.561,0.57,1.247,0.855,2.059,0.855c0.813,0,1.498-0.285,2.06-0.855c0.561-0.57,0.841-1.256,0.841-2.059
		c0-0.802-0.28-1.488-0.841-2.059c-0.562-0.57-1.247-0.855-2.06-0.855c-0.812,0-1.498,0.286-2.059,0.855
		c-0.561,0.571-0.841,1.257-0.841,2.059C702.671,437.131,702.951,437.818,703.512,438.388z"/>
	<path d="M729.234,435.183c0.27-2.436,1.3-4.528,3.088-6.278c1.788-1.75,3.91-2.73,6.365-2.944c1.354-0.096,2.678,0.058,3.974,0.464
		v-9.019c0-0.155,0.058-0.285,0.174-0.392c0.116-0.106,0.251-0.16,0.406-0.16h6.989c0.154,0,0.289,0.054,0.405,0.16
		c0.116,0.106,0.175,0.237,0.175,0.392v28.304c0,0.155-0.059,0.285-0.175,0.392c-0.116,0.106-0.251,0.16-0.405,0.16h-7.569v-0.029
		c-1.006,0.309-2.04,0.464-3.103,0.464c-1.509,0-2.935-0.31-4.278-0.928s-2.484-1.445-3.422-2.479
		c-0.938-1.034-1.648-2.262-2.132-3.683C729.244,438.185,729.08,436.71,729.234,435.183z M737.514,434.27
		c-0.57,0.571-0.855,1.257-0.855,2.059c0,0.803,0.285,1.489,0.855,2.059c0.57,0.57,1.256,0.855,2.059,0.855s1.484-0.285,2.045-0.855
		c0.561-0.57,0.841-1.256,0.841-2.059c0-0.802-0.28-1.488-0.841-2.059c-0.561-0.57-1.242-0.855-2.045-0.855
		S738.084,433.7,737.514,434.27z"/>
	<path d="M771.284,431.645c0.696,1.47,1.073,3.064,1.131,4.785c0.019,0.31-0.126,0.493-0.435,0.551l-10.991,2.436
		c0.483,0.251,1.005,0.377,1.565,0.377c0.947,0,1.779-0.299,2.494-0.899c0.135-0.116,0.285-0.164,0.449-0.145
		c0.164,0.02,0.285,0.097,0.363,0.232l3.016,4.437c0.193,0.29,0.164,0.542-0.087,0.754c-1.953,1.682-4.215,2.523-6.786,2.523
		c-1.875,0-3.61-0.464-5.205-1.392c-1.596-0.928-2.852-2.189-3.77-3.785c-0.92-1.595-1.379-3.339-1.379-5.234v-0.029
		c0-0.271,0.02-0.551,0.059-0.841c0.213-2.668,1.31-4.916,3.291-6.742c1.982-1.827,4.316-2.741,7.004-2.741
		c2.011,0,3.843,0.507,5.496,1.522C769.152,428.47,770.414,429.867,771.284,431.645z M763.309,432.109
		c-0.754,0-1.459,0.169-2.117,0.507c-0.656,0.338-1.131,0.778-1.42,1.319c-0.039,0.058-0.039,0.112,0,0.16
		c0.038,0.048,0.086,0.063,0.145,0.043l5.365-1.16c0.058-0.019,0.092-0.058,0.102-0.116s-0.006-0.106-0.044-0.145
		C764.76,432.312,764.082,432.109,763.309,432.109z"/>
	<path d="M797.122,416.855c1.798,0,3.446,0.286,4.944,0.855c1.498,0.571,2.832,1.421,4.002,2.552s2.084,2.644,2.74,4.539
		c0.658,1.895,0.986,4.08,0.986,6.554c0,2.475-0.328,4.66-0.986,6.554c-0.656,1.895-1.57,3.408-2.74,4.539s-2.504,1.981-4.002,2.552
		s-3.146,0.855-4.944,0.855h-10.991c-0.174,0-0.314-0.053-0.42-0.159c-0.106-0.106-0.16-0.247-0.16-0.42v-27.84
		c0-0.174,0.054-0.314,0.16-0.42c0.105-0.106,0.246-0.16,0.42-0.16H797.122z M795.295,438.982c1.856,0,3.364-0.638,4.524-1.914
		c1.16-1.276,1.739-3.19,1.739-5.742c0-2.552-0.579-4.466-1.739-5.742c-1.16-1.276-2.668-1.914-4.524-1.914h-1.334
		c-0.174,0-0.261,0.097-0.261,0.29v14.761c0,0.174,0.087,0.261,0.261,0.261H795.295z"/>
	<path d="M824.18,426.367h7.568c0.154,0,0.291,0.058,0.406,0.174c0.116,0.116,0.174,0.251,0.174,0.406v18.763
		c0,0.155-0.058,0.285-0.174,0.392c-0.115,0.106-0.252,0.16-0.406,0.16h-7.568v-0.029c-1.006,0.309-2.04,0.464-3.104,0.464
		c-1.508,0-2.934-0.31-4.277-0.928s-2.484-1.445-3.422-2.479s-1.648-2.262-2.131-3.683c-0.484-1.421-0.648-2.895-0.494-4.422
		c0.271-2.436,1.301-4.528,3.089-6.278c1.788-1.75,3.91-2.73,6.366-2.944c1.353-0.096,2.678,0.058,3.973,0.464V426.367z
		 M819.018,438.388c0.561,0.57,1.247,0.855,2.059,0.855c0.813,0,1.498-0.285,2.06-0.855c0.56-0.57,0.841-1.256,0.841-2.059
		c0-0.802-0.281-1.488-0.841-2.059c-0.562-0.57-1.247-0.855-2.06-0.855c-0.812,0-1.498,0.286-2.059,0.855
		c-0.561,0.571-0.841,1.257-0.841,2.059C818.177,437.131,818.457,437.818,819.018,438.388z"/>
	<path d="M849.352,426.396c0.154,0,0.285,0.058,0.391,0.174c0.106,0.116,0.16,0.251,0.16,0.406v5.771c0,0.155-0.054,0.29-0.16,0.406
		c-0.105,0.116-0.236,0.174-0.391,0.174h-3.771v11.948c0,0.174-0.054,0.314-0.159,0.42c-0.107,0.106-0.237,0.159-0.392,0.159h-7.019
		c-0.154,0-0.285-0.053-0.391-0.159c-0.107-0.106-0.16-0.247-0.16-0.42v-11.948h-3.77c-0.155,0-0.285-0.058-0.392-0.174
		c-0.106-0.116-0.159-0.251-0.159-0.406v-5.771c0-0.154,0.053-0.29,0.159-0.406c0.106-0.116,0.236-0.174,0.392-0.174h3.77v-5.046
		c0-0.154,0.053-0.285,0.16-0.392c0.105-0.106,0.236-0.159,0.391-0.159h7.019c0.154,0,0.284,0.053,0.392,0.159
		c0.105,0.106,0.159,0.237,0.159,0.392v5.046H849.352z"/>
	<path d="M855.455,427.324c1.596-0.928,3.33-1.392,5.205-1.392s3.611,0.464,5.206,1.392c1.595,0.928,2.856,2.189,3.784,3.785
		c0.928,1.595,1.393,3.335,1.393,5.22c0,1.885-0.465,3.621-1.393,5.206s-2.189,2.842-3.784,3.77
		c-1.595,0.928-3.331,1.392-5.206,1.392s-3.609-0.464-5.205-1.392c-1.595-0.928-2.856-2.185-3.784-3.77
		c-0.929-1.585-1.392-3.32-1.392-5.206c0-1.885,0.463-3.625,1.392-5.22C852.599,429.514,853.86,428.252,855.455,427.324z
		 M858.602,438.388c0.561,0.57,1.247,0.855,2.059,0.855c0.813,0,1.498-0.285,2.06-0.855c0.561-0.57,0.841-1.256,0.841-2.059
		c0-0.802-0.28-1.488-0.841-2.059c-0.562-0.57-1.247-0.855-2.06-0.855c-0.812,0-1.498,0.286-2.059,0.855
		c-0.561,0.571-0.841,1.257-0.841,2.059C857.761,437.131,858.041,437.818,858.602,438.388z"/>
	<path d="M879.568,425.555c1.431,0,3.074,0.116,4.93,0.348c0.154,0.02,0.28,0.092,0.377,0.217c0.097,0.126,0.135,0.266,0.116,0.42
		l-0.726,5.452c-0.019,0.174-0.105,0.31-0.26,0.406c-0.155,0.097-0.319,0.116-0.494,0.058c-1.236-0.425-2.252-0.638-3.045-0.638
		c-0.405,0-0.744,0.092-1.015,0.275c-0.271,0.184-0.367,0.42-0.29,0.71c0.039,0.155,0.232,0.29,0.58,0.406
		c0.348,0.116,0.764,0.218,1.247,0.305s1.005,0.271,1.565,0.551s1.078,0.628,1.553,1.044c0.473,0.416,0.864,1.054,1.174,1.914
		c0.309,0.86,0.464,1.88,0.464,3.059c0,0.967-0.146,1.832-0.435,2.596c-0.29,0.764-0.667,1.373-1.131,1.827
		c-0.465,0.454-0.977,0.841-1.537,1.16c-0.561,0.319-1.121,0.541-1.682,0.667c-0.562,0.125-1.074,0.222-1.537,0.29
		c-0.465,0.068-0.842,0.092-1.131,0.073h-0.436c-1.508,0-3.5-0.184-5.975-0.551c-0.154-0.039-0.279-0.121-0.377-0.247
		c-0.097-0.125-0.135-0.266-0.115-0.42l0.898-5.394c0.039-0.174,0.131-0.309,0.275-0.406c0.146-0.097,0.295-0.116,0.449-0.058
		c1.489,0.464,2.794,0.696,3.916,0.696c0.406,0,0.744-0.073,1.015-0.218s0.377-0.362,0.319-0.652
		c-0.02-0.174-0.203-0.319-0.551-0.435c-0.349-0.116-0.765-0.208-1.248-0.275c-0.482-0.068-1.005-0.218-1.565-0.45
		c-0.562-0.232-1.078-0.526-1.552-0.884s-0.869-0.909-1.189-1.653c-0.318-0.744-0.479-1.628-0.479-2.653
		c0-0.909,0.092-1.74,0.276-2.494c0.183-0.754,0.425-1.382,0.725-1.885c0.3-0.502,0.647-0.952,1.044-1.349
		c0.396-0.396,0.813-0.706,1.247-0.928c0.435-0.222,0.87-0.406,1.306-0.551c0.435-0.145,0.85-0.236,1.246-0.275
		c0.396-0.039,0.744-0.067,1.045-0.087c0.299-0.019,0.536-0.019,0.71,0L879.568,425.555z"/>
</g>
<path d="M456,410v155c0,0-162.224-52.282-384.432-2.514c-1.764,0.39-4.025-0.609-5.811-0.723c0.86-1.628,0.23-3.175,1.526-4.697
	C162.838,444.778,282.038,402.29,456,410z"/>
<path d="M71.568,562.486c-1.764,0.39-4.025-0.609-5.811-0.723c0-1.597,0.23-3.175,1.526-4.697"/>
<path d="M71.568,562.486c-1.764,0.39-4.735,1.014-5.811-0.723c0-1.597,0.23-3.175,1.526-4.697"/>
<path fill="#FFCE00" d="M456,565c0,0-162.224-52.282-384.432-2.514c-1.764,0.39-4.025-0.609-5.811-0.723
	c0.86-1.628,0.198-3.203,1.526-4.697C308.335,285.667,456,565,456,565z"/>
<path fill="#FF9100" d="M456,565c-12.307,19.308-162.224-52.282-384.432-2.514c-1.764,0.39-4.025-0.609-5.811-0.723
	c0.86-1.628,0.186-3.214,1.526-4.697C253,351.5,465.561,550,456,565z"/>
<path fill="#FF6700" d="M456,565c-12.307,19.308-162.224-52.282-384.432-2.514c-1.764,0.39-4.025-0.609-5.811-0.723
	c0.86-1.628,0.072-3.325,1.526-4.697C224.104,409.121,465.561,550,456,565z"/>
<circle cx="526.338" cy="472.669" r="8.25"/>
<text transform="matrix(1 0 0 1 593.7773 440.0552)" display="none" font-family="'moon_get-Heavy'" font-size="29">Centro de Datos</text>
</svg>
