<?xml version="1.0" encoding="utf-8"?>
<!-- Generator: Adobe Illustrator 16.0.0, SVG Export Plug-In . SVG Version: 6.00 Build 0)  -->
<!DOCTYPE svg PUBLIC "-//W3C//DTD SVG 1.1//EN" "http://www.w3.org/Graphics/SVG/1.1/DTD/svg11.dtd">
<svg version="1.1" id="Capa_1" xmlns="http://www.w3.org/2000/svg" xmlns:xlink="http://www.w3.org/1999/xlink" x="0px" y="0px"
	 width="960px" height="960px" viewBox="0 0 960 960" enable-background="new 0 0 960 960" xml:space="preserve">
<g>
	<path fill="#395398" d="M891.765,750.98c0,77.756-63.03,140.793-140.78,140.793H208.683c-77.76,0-140.79-63.037-140.79-140.793
		v-542.29c0-77.763,63.03-140.793,140.79-140.793h542.302c77.75,0,140.78,63.03,140.78,140.793V750.98z"/>
	<path fill="#FFFFFF" d="M633.193,891.773V575.462h106.174l15.894-123.274H633.193v-78.717c0-35.68,9.896-60.002,61.087-60.002
		l65.274-0.03V203.183c-11.299-1.502-50.035-4.854-95.129-4.854c-94.104,0-158.541,57.452-158.541,162.948v90.911H399.446v123.274
		h106.438v316.312H633.193L633.193,891.773z"/>
</g>
</svg>
