<?xml version="1.0" encoding="utf-8"?>
<!-- Generator: Adobe Illustrator 16.0.0, SVG Export Plug-In . SVG Version: 6.00 Build 0)  -->
<!DOCTYPE svg PUBLIC "-//W3C//DTD SVG 1.1//EN" "http://www.w3.org/Graphics/SVG/1.1/DTD/svg11.dtd">
<svg version="1.1" id="Capa_1" xmlns="http://www.w3.org/2000/svg" xmlns:xlink="http://www.w3.org/1999/xlink" x="0px" y="0px"
	 viewBox="100 340 840 260" enable-background="new 0 0 960 960" xml:space="preserve">
<text transform="matrix(1 0 0 1 376.667 467.7402)" display="none"><tspan x="0" y="0" display="inline" fill="#333333" font-family="'WarnockPro-Regular'" font-size="74.4806" letter-spacing="-1">Ciencia y Salud</tspan><tspan x="0" y="76.136" display="inline" fill="#333333" font-family="'WarnockPro-Regular'" font-size="89.3767" letter-spacing="-1">Comunitaria</tspan></text>
<g>
	<g>
		<defs>
			<rect id="SVGID_1_" x="100.445" y="343.444" width="273.11" height="273.11"/>
		</defs>
		<clipPath id="SVGID_2_">
			<use xlink:href="#SVGID_1_"  overflow="visible"/>
		</clipPath>
		<g clip-path="url(#SVGID_2_)">
			<defs>
				<rect id="SVGID_3_" x="100.445" y="343.444" width="273.11" height="273.11"/>
			</defs>
			<clipPath id="SVGID_4_">
				<use xlink:href="#SVGID_3_"  overflow="visible"/>
			</clipPath>
			<g opacity="0.15" clip-path="url(#SVGID_4_)">
				<g>
					<defs>
						<rect id="SVGID_5_" x="127.906" y="370.905" width="218.194" height="218.194"/>
					</defs>
					<clipPath id="SVGID_6_">
						<use xlink:href="#SVGID_5_"  overflow="visible"/>
					</clipPath>
				</g>
			</g>
			<g opacity="0.15" clip-path="url(#SVGID_4_)">
				<g>
					<defs>
						<rect id="SVGID_7_" x="212.51" y="455.51" width="48.986" height="48.986"/>
					</defs>
					<clipPath id="SVGID_8_">
						<use xlink:href="#SVGID_7_"  overflow="visible"/>
					</clipPath>
				</g>
			</g>
			<g opacity="0.15" clip-path="url(#SVGID_4_)">
				<g>
					<defs>
						<rect id="SVGID_9_" x="131.682" y="451.801" width="92.13" height="24.942"/>
					</defs>
					<clipPath id="SVGID_10_">
						<use xlink:href="#SVGID_9_"  overflow="visible"/>
					</clipPath>
				</g>
			</g>
			<g opacity="0.15" clip-path="url(#SVGID_4_)">
				<g>
					<defs>
						<rect id="SVGID_11_" x="240.537" y="374.755" width="24.942" height="92.13"/>
					</defs>
					<clipPath id="SVGID_12_">
						<use xlink:href="#SVGID_11_"  overflow="visible"/>
					</clipPath>
				</g>
			</g>
			<g opacity="0.15" clip-path="url(#SVGID_4_)">
				<g>
					<defs>
						<rect id="SVGID_13_" x="250.119" y="483.536" width="92.131" height="24.942"/>
					</defs>
					<clipPath id="SVGID_14_">
						<use xlink:href="#SVGID_13_"  overflow="visible"/>
					</clipPath>
				</g>
			</g>
			<g opacity="0.15" clip-path="url(#SVGID_4_)">
				<g>
					<defs>
						<rect id="SVGID_15_" x="208.802" y="493.193" width="24.941" height="92.13"/>
					</defs>
					<clipPath id="SVGID_16_">
						<use xlink:href="#SVGID_15_"  overflow="visible"/>
					</clipPath>
				</g>
			</g>
			<g opacity="0.15" clip-path="url(#SVGID_4_)">
				<g>
					<defs>
						<rect id="SVGID_17_" x="159.755" y="402.957" width="67.591" height="67.591"/>
					</defs>
					<clipPath id="SVGID_18_">
						<use xlink:href="#SVGID_17_"  overflow="visible"/>
					</clipPath>
				</g>
			</g>
			<g opacity="0.15" clip-path="url(#SVGID_4_)">
				<g>
					<defs>
						<rect id="SVGID_19_" x="246.458" y="489.659" width="67.591" height="67.591"/>
					</defs>
					<clipPath id="SVGID_20_">
						<use xlink:href="#SVGID_19_"  overflow="visible"/>
					</clipPath>
				</g>
			</g>
			<g opacity="0.15" clip-path="url(#SVGID_4_)">
				<g>
					<defs>
						<rect id="SVGID_21_" x="246.658" y="402.957" width="67.592" height="67.591"/>
					</defs>
					<clipPath id="SVGID_22_">
						<use xlink:href="#SVGID_21_"  overflow="visible"/>
					</clipPath>
				</g>
			</g>
			<g opacity="0.15" clip-path="url(#SVGID_4_)">
				<g>
					<defs>
						<rect id="SVGID_23_" x="159.966" y="489.537" width="67.502" height="67.703"/>
					</defs>
					<clipPath id="SVGID_24_">
						<use xlink:href="#SVGID_23_"  overflow="visible"/>
					</clipPath>
				</g>
			</g>
			<g opacity="0.15" clip-path="url(#SVGID_4_)">
				<g>
					<defs>
						<rect id="SVGID_25_" x="208.525" y="374.752" width="24.941" height="92.13"/>
					</defs>
					<clipPath id="SVGID_26_">
						<use xlink:href="#SVGID_25_"  overflow="visible"/>
					</clipPath>
				</g>
			</g>
			<g opacity="0.15" clip-path="url(#SVGID_4_)">
				<g>
					<defs>
						<rect id="SVGID_27_" x="131.753" y="483.533" width="92.131" height="24.942"/>
					</defs>
					<clipPath id="SVGID_28_">
						<use xlink:href="#SVGID_27_"  overflow="visible"/>
					</clipPath>
				</g>
			</g>
			<g opacity="0.15" clip-path="url(#SVGID_4_)">
				<g>
					<defs>
						<rect id="SVGID_29_" x="250.19" y="451.799" width="92.131" height="24.941"/>
					</defs>
					<clipPath id="SVGID_30_">
						<use xlink:href="#SVGID_29_"  overflow="visible"/>
					</clipPath>
				</g>
			</g>
			<g opacity="0.15" clip-path="url(#SVGID_4_)">
				<g>
					<defs>
						<rect id="SVGID_31_" x="240.535" y="493.115" width="24.942" height="92.132"/>
					</defs>
					<clipPath id="SVGID_32_">
						<use xlink:href="#SVGID_31_"  overflow="visible"/>
					</clipPath>
				</g>
			</g>
		</g>
		<g clip-path="url(#SVGID_2_)">
			<defs>
				<rect id="SVGID_33_" x="100.445" y="343.444" width="273.11" height="273.11"/>
			</defs>
			<clipPath id="SVGID_34_">
				<use xlink:href="#SVGID_33_"  overflow="visible"/>
			</clipPath>
			<path clip-path="url(#SVGID_34_)" fill="#FF7F00" d="M222.046,456.24c0,0,5.537-3.66,4.452-7.711
				c-1.085-4.051-16.87-61.951-17.772-65.321c-0.903-3.37-2.844-4.522-6.064-3.251s-27.173,11.334-37.049,21.842
				c-2.237,2.123-1.548,4.313-0.966,4.894c0.583,0.582,47.51,47.51,49.347,49.348C215.83,457.878,219.042,457.75,222.046,456.24"/>
			<path clip-path="url(#SVGID_34_)" fill="none" stroke="#FFDFC2" stroke-miterlimit="10" d="M222.046,456.24
				c0,0,5.537-3.66,4.452-7.711c-1.085-4.051-16.87-61.951-17.772-65.321c-0.903-3.37-2.844-4.522-6.064-3.251
				s-27.173,11.334-37.049,21.842c-2.237,2.123-1.548,4.313-0.966,4.894c0.583,0.582,47.51,47.51,49.347,49.348
				C215.83,457.878,219.042,457.75,222.046,456.24z"/>
			<path clip-path="url(#SVGID_34_)" fill="#FF7F00" d="M236.326,451.632c0,0,6.569-0.405,7.641-4.422
				c1.071-4.017,16.159-61.573,17.051-64.915c0.892-3.342-0.206-5.292-3.601-5.794s-28.955-3.708-42.639,0.435
				c-2.972,0.717-3.464,2.938-3.252,3.727s17.311,64.327,17.98,66.814C230.176,449.963,232.998,451.443,236.326,451.632"/>
			<path clip-path="url(#SVGID_34_)" fill="none" stroke="#FFDFC2" stroke-miterlimit="10" d="M236.326,451.632
				c0,0,6.569-0.405,7.641-4.422c1.071-4.017,16.159-61.573,17.051-64.915c0.892-3.342-0.206-5.292-3.601-5.794
				s-28.955-3.708-42.639,0.435c-2.972,0.717-3.464,2.938-3.252,3.727s17.311,64.327,17.98,66.814
				C230.176,449.963,232.998,451.443,236.326,451.632z"/>
			<path clip-path="url(#SVGID_34_)" fill="#FF4E00" d="M251.392,437.155c0.82-3.057,21.764-81.137,22.023-82.105
				c0.26-0.968,2.15-3.028,5.752-1.959c17.099,4.021,42.299,23.168,45.599,25.792s3.267,5.373,0.261,8.377
				s-54.485,54.906-58.098,58.517s-10.845-0.003-10.845-0.003C252.662,443.522,250.572,440.211,251.392,437.155"/>
			<path clip-path="url(#SVGID_34_)" fill="none" stroke="#FFDFC2" stroke-miterlimit="10" d="M251.392,437.155
				c0.82-3.057,21.764-81.137,22.023-82.105c0.26-0.968,2.15-3.028,5.752-1.959c17.099,4.021,42.299,23.168,45.599,25.792
				s3.267,5.373,0.261,8.377s-54.485,54.906-58.098,58.517s-10.845-0.003-10.845-0.003
				C252.662,443.522,250.572,440.211,251.392,437.155z"/>
			<path clip-path="url(#SVGID_34_)" fill="#FF7F00" d="M263.255,463.44c0,0,3.416,5.18,7.203,4.169s57.922-15.707,61.073-16.548
				c3.151-0.84,4.23-2.654,3.045-5.665s-10.567-25.41-20.38-34.651c-1.982-2.093-4.029-1.452-4.574-0.908
				c-0.544,0.543-44.454,44.361-46.173,46.077C261.73,457.629,261.846,460.631,263.255,463.44"/>
			<path clip-path="url(#SVGID_34_)" fill="none" stroke="#FFDFC2" stroke-miterlimit="10" d="M263.255,463.44
				c0,0,3.416,5.18,7.203,4.169s57.922-15.707,61.073-16.548c3.151-0.84,4.23-2.654,3.045-5.665s-10.567-25.41-20.38-34.651
				c-1.982-2.093-4.029-1.452-4.574-0.908c-0.544,0.543-44.454,44.361-46.173,46.077C261.73,457.629,261.846,460.631,263.255,463.44
				z"/>
			<path clip-path="url(#SVGID_34_)" fill="#FF7F00" d="M211.266,465.915c0,0-3.542,5.36-7.462,4.311
				c-3.921-1.049-59.967-16.312-63.229-17.186c-3.262-0.873-4.378-2.751-3.149-5.868c1.229-3.116,10.963-26.304,21.132-35.865
				c2.054-2.166,4.173-1.5,4.736-0.937c0.564,0.563,45.998,45.974,47.776,47.751C212.849,459.898,212.727,463.007,211.266,465.915"
				/>
			<path clip-path="url(#SVGID_34_)" fill="none" stroke="#FFDFC2" stroke-miterlimit="10" d="M211.266,465.915
				c0,0-3.542,5.36-7.462,4.311c-3.921-1.049-59.967-16.312-63.229-17.186c-3.262-0.873-4.378-2.751-3.149-5.868
				c1.229-3.116,10.963-26.304,21.132-35.865c2.054-2.166,4.173-1.5,4.736-0.937c0.564,0.563,45.998,45.974,47.776,47.751
				C212.849,459.898,212.727,463.007,211.266,465.915z"/>
			<path clip-path="url(#SVGID_34_)" fill="#FF7F00" d="M207.506,479.094c0,0-0.384,6.445-4.322,7.504
				c-3.939,1.06-60.373,15.982-63.649,16.864c-3.277,0.882-5.193-0.191-5.692-3.521c-0.499-3.33-3.698-28.398,0.337-41.832
				c0.697-2.918,2.875-3.405,3.649-3.198c0.773,0.207,63.145,16.848,65.585,17.5C205.856,473.064,207.314,475.829,207.506,479.094"
				/>
			<path clip-path="url(#SVGID_34_)" fill="none" stroke="#FFDFC2" stroke-miterlimit="10" d="M207.506,479.094
				c0,0-0.384,6.445-4.322,7.504c-3.939,1.06-60.373,15.982-63.649,16.864c-3.277,0.882-5.193-0.191-5.692-3.521
				c-0.499-3.33-3.698-28.398,0.337-41.832c0.697-2.918,2.875-3.405,3.649-3.198c0.773,0.207,63.145,16.848,65.585,17.5
				C205.856,473.064,207.314,475.829,207.506,479.094z"/>
			<path clip-path="url(#SVGID_34_)" fill="#FF7F00" d="M235.797,509.863c0,0,6.409,0.388,7.459,4.307s15.832,60.06,16.705,63.319
				c0.874,3.261-0.195,5.164-3.507,5.657c-3.312,0.493-28.248,3.647-41.603-0.379c-2.901-0.696-3.383-2.864-3.177-3.633
				c0.206-0.77,16.822-62.781,17.473-65.209S232.549,510.051,235.797,509.863"/>
			<path clip-path="url(#SVGID_34_)" fill="none" stroke="#FFDFC2" stroke-miterlimit="10" d="M235.797,509.863
				c0,0,6.409,0.388,7.459,4.307s15.832,60.06,16.705,63.319c0.874,3.261-0.195,5.164-3.507,5.657
				c-3.312,0.493-28.248,3.647-41.603-0.379c-2.901-0.696-3.383-2.864-3.177-3.633c0.206-0.77,16.822-62.781,17.473-65.209
				S232.549,510.051,235.797,509.863z"/>
			<path clip-path="url(#SVGID_34_)" fill="#FF7F00" d="M251.416,505.406c0,0,5.88-2.929,8.812,0.009
				c2.932,2.938,44.701,45.164,47.141,47.608c2.438,2.444,2.463,4.678-0.222,6.807c-2.684,2.127-23.179,17.656-37.076,20.905
				c-2.928,0.863-4.462-0.812-4.672-1.599s-17.141-64.25-17.804-66.734C246.932,509.918,248.633,507.23,251.416,505.406"/>
			<path clip-path="url(#SVGID_34_)" fill="none" stroke="#FFDFC2" stroke-miterlimit="10" d="M251.416,505.406
				c0,0,5.88-2.929,8.812,0.009c2.932,2.938,44.701,45.164,47.141,47.608c2.438,2.444,2.463,4.678-0.222,6.807
				c-2.684,2.127-23.179,17.656-37.076,20.905c-2.928,0.863-4.462-0.812-4.672-1.599s-17.141-64.25-17.804-66.734
				C246.932,509.918,248.633,507.23,251.416,505.406z"/>
			<path clip-path="url(#SVGID_34_)" fill="#FF7F00" d="M261.858,494.219c0,0,3.621-5.48,7.629-4.407
				c4.009,1.072,61.311,16.678,64.646,17.571c3.335,0.892,4.476,2.813,3.219,5.999c-1.257,3.187-11.209,26.895-21.605,36.669
				c-2.1,2.215-4.267,1.534-4.843,0.958c-0.576-0.575-47.028-47.003-48.847-48.821C260.239,500.37,260.364,497.192,261.858,494.219"
				/>
			<path clip-path="url(#SVGID_34_)" fill="none" stroke="#FFDFC2" stroke-miterlimit="10" d="M261.858,494.219
				c0,0,3.621-5.48,7.629-4.407c4.009,1.072,61.311,16.678,64.646,17.571c3.335,0.892,4.476,2.813,3.219,5.999
				c-1.257,3.187-11.209,26.895-21.605,36.669c-2.1,2.215-4.267,1.534-4.843,0.958c-0.576-0.575-47.028-47.003-48.847-48.821
				C260.239,500.37,260.364,497.192,261.858,494.219z"/>
			<path clip-path="url(#SVGID_34_)" fill="#FF7F00" d="M265.544,481.183c0,0,0.393-6.595,4.423-7.679s61.772-16.353,65.126-17.255
				c3.353-0.903,5.313,0.195,5.823,3.602c0.511,3.407,3.784,29.057-0.344,42.802c-0.714,2.985-2.943,3.483-3.735,3.272
				c-0.791-0.211-64.608-17.239-67.106-17.905C267.233,487.353,265.741,484.522,265.544,481.183"/>
			<path clip-path="url(#SVGID_34_)" fill="none" stroke="#FFDFC2" stroke-miterlimit="10" d="M265.544,481.183
				c0,0,0.393-6.595,4.423-7.679s61.772-16.353,65.126-17.255c3.353-0.903,5.313,0.195,5.823,3.602
				c0.511,3.407,3.784,29.057-0.344,42.802c-0.714,2.985-2.943,3.483-3.735,3.272c-0.791-0.211-64.608-17.239-67.106-17.905
				C267.233,487.353,265.741,484.522,265.544,481.183z"/>
			<path clip-path="url(#SVGID_34_)" fill="#FF7F00" d="M223.277,505.904c0,0-5.794-2.895-8.689-0.002
				c-2.894,2.894-44.138,44.475-46.546,46.882c-2.409,2.407-2.436,4.609,0.208,6.711c2.645,2.103,22.833,17.442,36.533,20.663
				c2.885,0.856,4.4-0.793,4.608-1.569c0.208-0.775,16.988-63.331,17.645-65.78C227.693,510.36,226.019,507.708,223.277,505.904"/>
			<path clip-path="url(#SVGID_34_)" fill="none" stroke="#FFDFC2" stroke-miterlimit="10" d="M223.277,505.904
				c0,0-5.794-2.895-8.689-0.002c-2.894,2.894-44.138,44.475-46.546,46.882c-2.409,2.407-2.436,4.609,0.208,6.711
				c2.645,2.103,22.833,17.442,36.533,20.663c2.885,0.856,4.4-0.793,4.608-1.569c0.208-0.775,16.988-63.331,17.645-65.78
				C227.693,510.36,226.019,507.708,223.277,505.904z"/>
			<path clip-path="url(#SVGID_34_)" fill="#FF7F00" d="M211.595,496.304c0,0-3.508-5.317-7.397-4.281
				c-3.89,1.038-59.484,16.131-62.72,16.995c-3.236,0.863-4.344,2.726-3.127,5.817c1.216,3.092,10.852,26.095,20.929,35.585
				c2.036,2.149,4.138,1.491,4.697,0.933c0.559-0.558,45.653-45.558,47.418-47.318C213.16,502.272,213.041,499.189,211.595,496.304"
				/>
			<path clip-path="url(#SVGID_34_)" fill="none" stroke="#FFDFC2" stroke-miterlimit="10" d="M211.595,496.304
				c0,0-3.508-5.317-7.397-4.281c-3.89,1.038-59.484,16.131-62.72,16.995c-3.236,0.863-4.344,2.726-3.127,5.817
				c1.216,3.092,10.852,26.095,20.929,35.585c2.036,2.149,4.138,1.491,4.697,0.933c0.559-0.558,45.653-45.558,47.418-47.318
				C213.16,502.272,213.041,499.189,211.595,496.304z"/>
		</g>
	</g>
</g>
<g>
	<path fill="#333333" d="M408.171,417.318c4.767,0,8.937,1.117,11.619,2.831c1.787-1.117,4.021-1.788,5.66-2.16l0.447,0.298
		c-0.298,2.979-2.16,10.501-2.979,11.991l-1.341,0.745c-0.67-1.34-2.011-5.735-2.532-8.267c-1.638-1.117-5.586-2.234-9.384-2.234
		c-14.002,0-22.194,9.757-22.194,22.716c0,12.736,8.64,22.418,23.014,22.418c2.458,0,3.798-0.223,4.916-0.596
		c3.128-3.277,6.852-7.001,8.714-8.416l1.713,0.373c-0.596,2.309-4.097,9.012-5.065,9.756c-2.755,1.266-8.788,2.383-12.884,2.383
		c-13.928,0-28.004-7.746-28.004-25.546c0-17.651,15.491-26.291,28.153-26.291H408.171z"/>
	<path fill="#333333" d="M430.069,436.236c1.192-0.372,5.661-1.713,9.906-2.16v15.044c0,8.342,0.075,12.662,0.149,14.747
		l5.288,2.234l-0.521,1.713c-2.606,0-5.437-0.075-8.341-0.075c-2.383,0-4.841,0.075-7.746,0.075l0.521-1.713l4.245-2.234
		c0.075-2.532,0.149-8.937,0.149-14.896v-9.384l-4.021-1.937L430.069,436.236z M437.07,418.659c1.043,0.373,3.054,2.606,3.724,4.171
		l-0.149,0.596c-0.67,1.415-2.905,3.649-3.947,4.245l-0.596,0.149c-1.266-0.745-2.979-2.83-3.649-4.245l0.149-0.596
		c1.042-1.713,2.755-3.5,4.021-4.246L437.07,418.659z"/>
	<path fill="#333333" d="M455.02,450.387c-0.075,0.373-0.075,0.67-0.075,1.043c0,8.416,5.213,13.406,11.917,13.406
		c1.042,0,1.862-0.149,2.532-0.447c2.384-1.713,4.618-3.203,6.256-4.022l0.373,1.192c-0.447,1.639-3.277,4.692-4.245,5.362
		c-1.416,0.67-5.214,1.788-7.821,1.788c-9.235,0-15.789-6.405-15.789-16.683c0-10.65,7.671-17.949,16.162-17.949
		c6.777,0,12.587,4.543,12.587,12.885c0,0.894-0.224,2.011-0.745,2.383c-0.744,0.298-3.575,1.042-7.001,1.042H455.02z
		 M469.915,447.557c0.224-0.521,0.372-1.415,0.372-2.234c0-4.469-2.234-8.64-6.554-8.64c-6.182,0-8.64,7.671-8.64,10.874H469.915z"
		/>
	<path fill="#333333" d="M485.184,440.109l-3.947-1.713l0.521-1.564c1.192-0.67,7.299-2.682,9.683-2.756l-0.447,5.884h0.149
		c5.66-4.618,8.788-5.884,11.768-5.884c7.745,0,10.055,6.331,10.055,11.842v16.907c0,0.745,0.372,1.117,1.042,1.415l4.395,1.862
		l-0.521,1.713c-2.011,0-5.437-0.075-8.342-0.075c-2.085,0-4.319,0.075-6.628,0.075l0.521-1.862l2.979-2.16
		c0.149-2.234,0.298-7.522,0.298-17.279c0-5.661-3.202-7.969-7.001-7.969c-3.128,0-6.479,2.234-8.267,4.096
		c0,5.66,0,19.886,0.148,21.45l4.171,1.937l-0.446,1.788c-1.937-0.075-4.767-0.075-7.15-0.075c-2.606,0-5.437,0.075-7.82,0.075
		l0.521-1.713l4.097-2.085c0.148-1.191,0.223-7.969,0.223-17.353V440.109z"/>
	<path fill="#333333" d="M521.083,451.802c0-12.214,10.353-17.726,19.141-17.726c4.319,0,8.342,1.639,9.459,2.756
		c-0.447,1.936-1.489,5.585-2.756,7.969l-1.117,0.447c-0.596-1.416-1.564-4.469-2.383-7.969c-0.447-0.298-1.341-0.521-2.831-0.521
		c-8.267,0-12.586,6.852-12.586,14.151c0,8.267,5.213,14.151,13.257,14.151c0.596,0,1.563-0.373,2.085-0.596
		c2.607-2.16,4.916-3.649,6.182-4.246l0.521,1.043c-0.67,2.011-3.426,5.362-4.767,6.256c-1.117,0.447-4.617,1.192-7.001,1.192
		c-7.001,0-17.204-4.171-17.204-16.832V451.802z"/>
	<path fill="#333333" d="M554.672,436.236c1.191-0.372,5.66-1.713,9.906-2.16v15.044c0,8.342,0.074,12.662,0.148,14.747l5.288,2.234
		l-0.521,1.713c-2.606,0-5.437-0.075-8.342-0.075c-2.383,0-4.841,0.075-7.745,0.075l0.521-1.713l4.245-2.234
		c0.074-2.532,0.148-8.937,0.148-14.896v-9.384l-4.021-1.937L554.672,436.236z M561.673,418.659
		c1.043,0.373,3.054,2.606,3.724,4.171l-0.148,0.596c-0.67,1.415-2.904,3.649-3.947,4.245l-0.596,0.149
		c-1.267-0.745-2.979-2.83-3.649-4.245l0.148-0.596c1.043-1.713,2.756-3.5,4.022-4.246L561.673,418.659z"/>
	<path fill="#333333" d="M591.612,446.961c-0.075-7.746-3.427-9.31-7.374-9.31c-1.415,0-3.276,0.596-4.543,1.341
		c-0.148,2.16-0.446,5.511-0.894,7.522l-0.819,0.372c-0.819-0.447-3.947-4.32-4.692-6.405c1.49-1.416,5.959-3.948,9.013-5.139
		c1.787-0.67,3.5-1.266,5.213-1.266c7.671,0,10.203,6.628,10.203,11.395c0,5.064-0.148,11.544-0.148,16.609
		c1.639,2.681,4.395,3.873,5.81,4.319l-0.521,1.192c-0.596,0.373-1.862,0.968-3.724,0.968c-4.99,0-6.703-2.309-7.374-4.245h-0.148
		c-3.203,3.128-6.629,4.394-9.012,4.394c-6.555,0-9.385-5.064-9.385-8.714c0-3.128,1.341-5.213,2.979-6.033
		c2.681-1.639,9.607-4.022,15.417-5.363V446.961z M579.695,458.654c0,4.395,3.649,5.81,6.033,5.81c1.563,0,3.574-0.745,5.064-2.309
		c0.446-0.521,0.67-1.042,0.67-1.713l0.149-9.459c-3.277,0.894-7.299,2.309-9.31,3.5c-1.937,1.043-2.607,2.011-2.607,4.097V458.654z
		"/>
	<path fill="#333333" d="M643.075,434.97c1.49,0,3.501,0.075,5.065,0.075c2.234,0,4.468-0.075,6.33-0.075l-0.446,1.713
		c-2.234,1.043-3.501,2.011-4.544,3.128c-2.83,6.107-8.788,21.077-15.715,37.462c-0.67,2.83-1.266,5.884-1.937,8.416
		c-0.372,0.224-0.968,0.298-1.713,0.298c-2.234,0-4.767-1.489-5.362-2.383c0.596-1.341,3.873-5.289,6.479-8.268
		c0.969-1.937,2.682-5.66,3.799-8.192c-0.745-1.415-7.672-20.184-10.65-27.185c-1.043-1.49-1.937-2.085-5.214-3.277l0.671-1.713
		c2.309,0.075,4.617,0.075,7.001,0.075c2.309,0,4.691,0,7.075-0.075l-0.521,1.788l-2.384,1.862c0.895,2.83,3.352,9.459,7.374,20.481
		h0.148c2.905-7.522,6.107-16.236,7.374-20.407l-3.427-1.937L643.075,434.97z"/>
	<path fill="#333333" d="M688.284,417.318c3.575,0,6.331,1.266,7.82,2.383c1.043-0.819,3.277-1.787,4.99-2.383l0.67,0.373
		c-0.298,2.085-1.563,8.64-2.681,11.321l-1.117,0.596c-0.895-1.788-2.16-5.884-2.607-7.299c-0.968-0.745-3.426-1.862-6.554-1.862
		c-5.884,0-9.31,4.021-9.31,8.565c0,3.5,1.489,5.586,4.319,7.299c3.054,1.862,7.001,3.724,11.172,5.958
		c7.373,3.873,8.788,8.044,8.788,12.14c0,11.768-11.097,14.747-17.428,14.747c-6.032,0-12.512-2.905-14.598-4.99
		c0.372-2.011,2.682-8.192,3.352-9.31l1.191-0.521c0.373,0.968,0.819,3.128,2.31,10.427c0.968,0.521,3.352,1.415,7.299,1.34
		c6.703-0.074,11.097-3.575,11.097-9.682c0-3.277-1.639-5.735-5.362-7.895c-3.798-2.085-7.597-3.798-11.172-6.033
		c-5.139-3.128-7.075-7.15-7.075-11.619c0-6.703,5.362-13.555,14.821-13.555H688.284z"/>
	<path fill="#333333" d="M727.237,446.961c-0.075-7.746-3.427-9.31-7.374-9.31c-1.415,0-3.276,0.596-4.543,1.341
		c-0.148,2.16-0.446,5.511-0.894,7.522l-0.819,0.372c-0.819-0.447-3.947-4.32-4.692-6.405c1.49-1.416,5.959-3.948,9.013-5.139
		c1.787-0.67,3.5-1.266,5.213-1.266c7.671,0,10.203,6.628,10.203,11.395c0,5.064-0.148,11.544-0.148,16.609
		c1.639,2.681,4.395,3.873,5.81,4.319l-0.521,1.192c-0.596,0.373-1.862,0.968-3.724,0.968c-4.99,0-6.703-2.309-7.374-4.245h-0.148
		c-3.203,3.128-6.629,4.394-9.012,4.394c-6.555,0-9.385-5.064-9.385-8.714c0-3.128,1.341-5.213,2.979-6.033
		c2.681-1.639,9.607-4.022,15.417-5.363V446.961z M715.32,458.654c0,4.395,3.649,5.81,6.033,5.81c1.563,0,3.574-0.745,5.064-2.309
		c0.446-0.521,0.67-1.042,0.67-1.713l0.149-9.459c-3.277,0.894-7.299,2.309-9.31,3.5c-1.937,1.043-2.607,2.011-2.607,4.097V458.654z
		"/>
	<path fill="#333333" d="M757.027,466.027l-0.67,1.788c-2.83,0-5.288-0.075-7.895-0.075c-2.756,0-5.586,0.075-8.342,0.075
		l0.372-1.639l4.692-2.16c0.074-3.053,0.149-7.671,0.149-25.844c0-6.703,0-14.151-0.224-17.8l-4.32-1.788l0.745-1.564
		c2.458-0.819,7.075-1.788,10.278-2.16c-0.149,7.671-0.224,14.896-0.224,23.014c0,14.97,0.074,20.63,0.148,26.142L757.027,466.027z"
		/>
	<path fill="#333333" d="M758.964,437.279l0.745-1.49c1.861-0.596,7.225-1.191,10.129-1.191c-0.298,3.352-0.521,9.235-0.521,21.822
		c0,2.905,0.67,4.469,1.341,5.437c1.117,1.192,2.904,2.16,5.437,2.16c3.054,0,6.555-1.713,8.118-4.319v-19.514
		c-0.521-1.191-1.563-1.713-5.139-2.979l0.745-1.489c2.606-0.67,8.117-1.192,10.873-1.117c-0.223,3.5-0.223,8.267-0.223,27.482
		c1.489,2.606,3.798,3.724,5.809,4.245l-0.446,1.266c-0.745,0.447-2.384,0.968-4.245,0.968c-2.682,0-6.257-0.968-7.15-5.586h-0.149
		c-2.83,3.054-6.33,5.735-10.873,5.735c-2.532,0-5.512-0.819-7.448-2.756c-2.011-1.937-2.979-4.916-2.979-9.235
		c0-4.916,0.223-12.363,0.223-17.577L758.964,437.279z"/>
	<path fill="#333333" d="M829.57,462.303c1.862,2.532,4.319,3.873,5.734,4.395l-0.596,1.266c-0.596,0.447-1.787,0.745-3.426,0.745
		c-2.532,0-6.107-1.117-7.447-4.245h-0.149c-1.341,0.968-5.66,4.245-9.012,4.245c-6.331,0-15.715-4.841-15.715-16.459
		c0-11.991,10.203-18.173,18.098-18.173c1.117,0,3.649,0.67,6.182,2.234h0.075c0-5.437-0.075-10.055-0.224-15.715l-4.692-1.937
		l0.671-1.415c1.713-0.67,5.66-1.713,10.725-2.383c-0.149,7.746-0.224,15.044-0.224,23.237V462.303z M823.314,439.141
		c-1.49-0.968-3.725-1.564-5.512-1.564c-7.075,0-12.065,6.331-12.065,13.555c0,7.224,4.916,13.108,11.544,13.108
		c1.489,0,3.649-0.447,6.033-2.16V439.141z"/>
	<path fill="#333333" d="M414.471,483.372c5.72,0,10.725,1.341,13.942,3.396c2.145-1.341,4.826-2.146,6.792-2.592l0.537,0.357
		c-0.357,3.574-2.592,12.601-3.575,14.389l-1.608,0.894c-0.804-1.608-2.413-6.882-3.039-9.92c-1.966-1.341-6.703-2.682-11.261-2.682
		c-16.802,0-26.632,11.708-26.632,27.258c0,15.283,10.367,26.901,27.615,26.901c2.949,0,4.558-0.269,5.898-0.716
		c3.754-3.932,8.222-8.4,10.457-10.099l2.056,0.447c-0.715,2.771-4.916,10.813-6.078,11.707c-3.307,1.52-10.545,2.86-15.461,2.86
		c-16.712,0-33.604-9.295-33.604-30.654c0-21.181,18.589-31.548,33.782-31.548H414.471z"/>
	<path fill="#333333" d="M460.411,503.48c10.993,0,19.841,8.4,19.841,20.377c0,12.779-8.759,21.181-20.109,21.181
		c-9.92,0-20.108-7.15-20.108-20.287c0-13.585,11.082-21.271,20.287-21.271H460.411z M459.964,506.608
		c-7.596,0-11.261,8.759-11.261,17.428c0,8.4,4.201,17.874,12.154,17.874c8.222,0,10.725-9.563,10.725-17.249
		c0-8.312-3.754-18.053-11.529-18.053H459.964z"/>
	<path fill="#333333" d="M490.711,510.541l-4.737-1.967l0.626-1.787c1.877-0.894,8.848-3.218,11.618-3.307l-0.447,7.239h0.179
		c5.541-4.559,9.92-7.239,13.942-7.239c4.736,0,8.937,2.771,10.635,7.328c6.256-5.184,10.456-7.328,14.746-7.328
		c7.418,0,12.065,5.63,12.065,13.405v21.271c0,0.805,0.625,1.251,1.698,1.787l4.736,2.056l-0.447,1.967
		c-3.038,0-6.345-0.09-9.651-0.09c-2.771,0-5.631,0.09-8.669,0.09l0.536-2.056l3.932-2.682c0.179-3.217,0.447-9.294,0.357-19.394
		c0-5.094-1.251-10.992-8.312-10.992c-3.217,0-6.613,1.698-10.277,5.005c0.269,1.698,0.536,4.379,0.536,7.418v17.963l5.273,2.682
		l-0.626,2.056c-2.502,0-5.541-0.09-8.4-0.09c-2.86,0-5.81,0.09-8.759,0.09l0.536-2.146l4.29-2.502
		c0.089-5.362,0.179-12.333,0.179-20.198c0-4.558-1.251-10.188-8.58-10.188c-2.859,0-6.523,2.234-9.473,4.916
		c0,10.456,0,22.7,0.179,25.471l5.362,2.502l-0.536,2.146c-2.234,0-5.541-0.09-9.116-0.09c-2.859,0-6.256,0.09-9.026,0.09
		l0.536-2.146l4.915-2.502c0.09-1.788,0.18-9.563,0.18-18.143V510.541z"/>
	<path fill="#333333" d="M557.387,507.323l0.894-1.787c2.234-0.715,8.669-1.43,12.154-1.43c-0.357,4.021-0.625,11.081-0.625,26.186
		c0,3.485,0.804,5.362,1.608,6.523c1.341,1.431,3.485,2.592,6.524,2.592c3.664,0,7.864-2.056,9.741-5.184v-23.415
		c-0.626-1.43-1.877-2.056-6.167-3.574l0.894-1.788c3.128-0.804,9.742-1.43,13.049-1.34c-0.269,4.2-0.269,9.92-0.269,32.978
		c1.787,3.128,4.558,4.469,6.971,5.094l-0.536,1.52c-0.894,0.536-2.859,1.162-5.094,1.162c-3.218,0-7.508-1.162-8.58-6.703h-0.179
		c-3.396,3.664-7.597,6.882-13.048,6.882c-3.039,0-6.613-0.983-8.938-3.307c-2.413-2.324-3.574-5.898-3.574-11.082
		c0-5.898,0.268-14.836,0.268-21.092L557.387,507.323z"/>
	<path fill="#333333" d="M610.654,510.72l-4.736-2.056l0.626-1.877c1.43-0.805,8.758-3.218,11.618-3.307l-0.536,7.061h0.179
		c6.792-5.541,10.546-7.061,14.12-7.061c9.295,0,12.065,7.597,12.065,14.21v20.287c0,0.894,0.446,1.341,1.251,1.698l5.272,2.234
		l-0.625,2.056c-2.413,0-6.524-0.09-10.01-0.09c-2.502,0-5.184,0.09-7.954,0.09l0.626-2.234l3.574-2.592
		c0.179-2.682,0.358-9.026,0.358-20.734c0-6.792-3.844-9.563-8.401-9.563c-3.754,0-7.775,2.681-9.92,4.915
		c0,6.792,0,23.862,0.179,25.739l5.005,2.323l-0.536,2.146c-2.324-0.09-5.72-0.09-8.58-0.09c-3.128,0-6.524,0.09-9.384,0.09
		l0.626-2.056l4.915-2.503c0.179-1.43,0.268-9.563,0.268-20.823V510.72z"/>
	<path fill="#333333" d="M654.538,506.072c1.43-0.447,6.792-2.056,11.886-2.592v18.053c0,10.01,0.09,15.193,0.179,17.695
		l6.346,2.682l-0.626,2.056c-3.128,0-6.523-0.09-10.009-0.09c-2.86,0-5.81,0.09-9.295,0.09l0.626-2.056l5.094-2.682
		c0.089-3.038,0.179-10.725,0.179-17.874v-11.261l-4.826-2.323L654.538,506.072z M662.938,484.98
		c1.251,0.447,3.664,3.128,4.469,5.005l-0.179,0.715c-0.805,1.698-3.485,4.379-4.736,5.095l-0.716,0.179
		c-1.519-0.895-3.574-3.396-4.379-5.095l0.179-0.715c1.251-2.056,3.307-4.2,4.826-5.094L662.938,484.98z"/>
	<path fill="#333333" d="M701.816,504.643l-1.698,3.217l-11.976,1.072c0,4.201-0.09,14.389-0.09,25.113
		c0,2.234,0.894,3.575,1.43,4.201c0.983,0.715,2.324,1.34,4.469,1.34c3.307,0,5.81-1.072,7.239-2.145l0.357,0.179l-0.09,2.771
		c-2.233,2.681-5.72,4.647-10.366,4.647c-3.485,0-6.524-1.431-8.58-3.754c-1.43-1.966-2.056-3.843-2.056-9.652v-22.7l-5.987-1.161
		l1.52-3.128h4.646c0.357-2.503,1.341-7.239,2.413-10.278c1.162-1.43,4.2-2.681,5.362-2.681l-0.268,12.959H701.816z"/>
	<path fill="#333333" d="M727.197,518.941c-0.09-9.294-4.111-11.171-8.848-11.171c-1.698,0-3.933,0.715-5.452,1.608
		c-0.179,2.592-0.536,6.613-1.072,9.026l-0.982,0.447c-0.983-0.536-4.737-5.184-5.631-7.687c1.787-1.698,7.149-4.736,10.813-6.166
		c2.146-0.805,4.201-1.52,6.257-1.52c9.205,0,12.243,7.954,12.243,13.674c0,6.077-0.179,13.853-0.179,19.93
		c1.967,3.217,5.273,4.647,6.971,5.184l-0.625,1.43c-0.715,0.447-2.234,1.162-4.469,1.162c-5.988,0-8.043-2.771-8.848-5.095h-0.179
		c-3.843,3.754-7.954,5.273-10.813,5.273c-7.865,0-11.261-6.077-11.261-10.457c0-3.753,1.608-6.256,3.574-7.238
		c3.218-1.967,11.529-4.826,18.5-6.436V518.941z M712.897,532.973c0,5.273,4.38,6.971,7.239,6.971c1.877,0,4.29-0.894,6.077-2.771
		c0.536-0.625,0.805-1.251,0.805-2.056l0.179-11.35c-3.933,1.072-8.759,2.771-11.172,4.2c-2.323,1.251-3.128,2.413-3.128,4.916
		V532.973z"/>
	<path fill="#333333" d="M745.609,506.519c1.341-0.715,7.597-2.859,10.277-3.038c0.536,2.056,0.983,5.987,0.894,8.758h0.179
		c3.664-6.345,8.938-8.758,12.423-8.758c1.787,0,3.485,0.536,4.379,1.52c-0.268,2.502-1.787,7.507-2.949,9.741l-1.072,0.626
		c-0.894-1.252-1.966-3.039-3.218-5.988c-0.357-0.179-0.715-0.269-1.34-0.269c-2.682,0-6.435,3.396-8.133,7.687v22.61l9.026,2.592
		l-0.447,1.967c-3.396,0-7.864-0.09-12.69-0.09c-2.859,0-6.613,0.09-9.295,0.09l0.447-1.967l5.094-2.681
		c0.357-9.295,0.357-24.041,0.357-28.42l-4.646-2.592L745.609,506.519z"/>
	<path fill="#333333" d="M778.589,506.072c1.43-0.447,6.792-2.056,11.886-2.592v18.053c0,10.01,0.09,15.193,0.179,17.695
		l6.346,2.682l-0.626,2.056c-3.128,0-6.523-0.09-10.009-0.09c-2.86,0-5.81,0.09-9.295,0.09l0.626-2.056l5.094-2.682
		c0.089-3.038,0.179-10.725,0.179-17.874v-11.261l-4.826-2.323L778.589,506.072z M786.989,484.98
		c1.251,0.447,3.664,3.128,4.469,5.005l-0.179,0.715c-0.805,1.698-3.485,4.379-4.736,5.095l-0.716,0.179
		c-1.519-0.895-3.574-3.396-4.379-5.095l0.179-0.715c1.251-2.056,3.307-4.2,4.826-5.094L786.989,484.98z"/>
	<path fill="#333333" d="M822.916,518.941c-0.09-9.294-4.111-11.171-8.848-11.171c-1.698,0-3.933,0.715-5.452,1.608
		c-0.179,2.592-0.536,6.613-1.072,9.026l-0.982,0.447c-0.983-0.536-4.737-5.184-5.631-7.687c1.787-1.698,7.149-4.736,10.813-6.166
		c2.146-0.805,4.201-1.52,6.257-1.52c9.205,0,12.243,7.954,12.243,13.674c0,6.077-0.179,13.853-0.179,19.93
		c1.967,3.217,5.273,4.647,6.971,5.184l-0.625,1.43c-0.715,0.447-2.234,1.162-4.469,1.162c-5.988,0-8.043-2.771-8.848-5.095h-0.179
		c-3.843,3.754-7.954,5.273-10.813,5.273c-7.865,0-11.261-6.077-11.261-10.457c0-3.753,1.608-6.256,3.574-7.238
		c3.218-1.967,11.529-4.826,18.5-6.436V518.941z M808.616,532.973c0,5.273,4.38,6.971,7.239,6.971c1.877,0,4.29-0.894,6.077-2.771
		c0.536-0.625,0.805-1.251,0.805-2.056l0.179-11.35c-3.933,1.072-8.759,2.771-11.172,4.2c-2.323,1.251-3.128,2.413-3.128,4.916
		V532.973z"/>
</g>
</svg>
