<?xml version="1.0" encoding="utf-8"?>
<!-- Generator: Adobe Illustrator 16.0.0, SVG Export Plug-In . SVG Version: 6.00 Build 0)  -->
<!DOCTYPE svg PUBLIC "-//W3C//DTD SVG 1.1//EN" "http://www.w3.org/Graphics/SVG/1.1/DTD/svg11.dtd">
<svg version="1.1" id="Capa_1" xmlns="http://www.w3.org/2000/svg" xmlns:xlink="http://www.w3.org/1999/xlink" x="0px" y="0px"
	 width="960px" height="960px" viewBox="0 0 960 960" enable-background="new 0 0 960 960" xml:space="preserve">
<g>
	<g>
		<g>
			<path fill="#CC9987" d="M591.259,247.525c-5.315,10.599-23.712,87.523-23.352,95.788c0.771,16.38,29.65,3.361,29.282-0.261
				c-0.373-3.603,29.793-62.386,21.832-86.309C611.112,232.831,591.259,247.525,591.259,247.525z"/>
			<g>
				<path fill="#FFC400" d="M612.568,232.321c-3.044-0.834-7.967-1.033-11.682,1.718c-16.772,12.385-23.551,62.952-22.928,71.118
					c5.353,2.825,33.011,13.206,33.011,13.206c6.08-41.35,3.229-38.343,9.521-49.129
					C624.648,262.07,612.568,232.321,612.568,232.321z"/>
			</g>
		</g>
		<path fill="#CC9987" d="M609.692,323.809c-8.289,3.249-18.559,4.319-25.218,8.799c-6.615,4.5-23.519,10.91-19.902,18.603
			c3.634,7.686,15.073,11.539,26.562,7.058c11.451-4.5,22.063-12.099,25.697-13.381
			C620.447,343.593,609.692,323.809,609.692,323.809z"/>
		<path d="M735.933,788.707c-3.117,12.247-9.029,26.687-20.786,32.556c-8.683,4.319-14.825,9.809-14.775,14.514
			c0.256,19.087,37.634,6.255,37.634,6.255s7.948-4.917,23.103-6.049c21.16-1.558,8.688-31.859,5.67-44.114
			C763.753,779.583,735.933,788.707,735.933,788.707z"/>
		<path d="M667.741,779.926c-3.118,12.222-11.259,20.78-23.016,26.661c-8.682,4.351-23.948,10.356-23.88,15.068
			c0.262,19.068,37.249,9.004,37.249,9.004s12.21-5.625,35.156-7.162c11.77-0.778,5.67-28.019,2.627-40.292
			C692.853,770.957,667.741,779.926,667.741,779.926z"/>
		<path fill="#232121" d="M720.822,398.959c14.998,34.528,16.674,32.519,26.07,98.009c3.541,24.689,1.226,87.156,6.547,106.923
			c26.975,100.014,23.688,216.762,23.688,216.762l-44.822-11.979c0,0-56.044-377.668-59.131-390.147
			C670.088,406.029,720.822,398.959,720.822,398.959z"/>
		<g>
			<path d="M634.04,631.043c20.195,101.657,11.737,172.413,11.737,172.413l59.057-0.341c-5.82-113.774-9.349-115.854-11.471-153.4
				c-2.427-43.198-20.04-77.54-20.04-77.54s8.221,23.494,11.303,35.979c3.056,12.491,30.994,208.349,30.994,208.349l37.764-1.406
				c8.035-26.313-12.422-152.809-23.177-201.366c-6.255-28.361-17.743-169.762-43.783-218.934l-81.772,12.397
				C604.651,407.192,621.667,568.802,634.04,631.043z"/>
		</g>
		<path fill="#E0B8AA" d="M682.298,190.735c-0.274-1.625-10.449-23.115-10.449-23.115l-23.221,9.821l-6.672,26.232l-8.065,23.369
			l30.938,59.144c24.141,7.973,37.397-66.468,47.367-66.468C711.095,219.718,693.854,208.335,682.298,190.735z"/>
		<linearGradient id="SVGID_1_" gradientUnits="userSpaceOnUse" x1="629.416" y1="270.377" x2="670.2422" y2="175.397">
			<stop  offset="0" style="stop-color:#FFFFFF"/>
			<stop  offset="0.6429" style="stop-color:#C6C0B9"/>
		</linearGradient>
		<polygon fill="url(#SVGID_1_)" points="677.351,184.686 647.632,277.654 631.133,231.991 636.635,203.929 		"/>
		<path fill="#FF9C00" d="M609.692,229.632c-11.301,1.27-3.864,49.129-2.39,66.014c0,0-0.373,23.8-1.102,60.344
			c-1.412,71.136,1.681,89.745,1.102,93.679c-1.767,11.756,139.391,6.839,134.866-5.365
			c-21.707-58.614-19.555-145.117-13.754-169.725c5.781-24.583,0.791-42.097-2.104-46.435c-2.882-4.338-30.982-17.233-30.982-17.233
			s-13.859,23.326-36.743,22.069c-12.988-0.734-20.849-6.853-16.997-22.623L609.692,229.632z"/>
		<path fill="#FFC400" d="M698.622,205.778c11.57,10.113,26.414,15.577,40.323,19.51c19.169,5.396-18.396,90.641,13.599,218.53
			c0,0-12.279,6.641-35.207,7.331c-16.021-174.074,12.472-214.926,12.472-214.926l-37.415-21.279L698.622,205.778z"/>
		<g>
			<path fill="#E0B8AA" d="M672.209,153.026c-5.575-18.553-13.754-33.135-40.404-25.461c-8.313,2.415-14.008,5.464-17.779,8.999
				c-11.471,7.512-11.452,17.713-7.507,32.157c-0.517,0.081,1.817,1.992,1.363,2.173c-3.511,1.301-0.952,8.507,3.467,15.042
				c4.381,6.484,6.44,9.858,7.748,9.938c9.323,14.913,21.416,27.422,34.024,24.061c0.486-0.136,3.952-1.344,4.345-1.493
				c14.215-4.861,19.915-20.507,19.791-38.5c2.956-2.869,4.307-8.377,3.018-14.115C678.639,158.297,677.257,152.241,672.209,153.026
				z"/>
			<g>
				<path fill="#CC9987" d="M606.593,168.802c-0.484,0.057,1.855,1.979,1.376,2.167c-3.497,1.294-0.921,8.489,3.498,15.042
					c4.362,6.497,6.417,9.864,7.748,9.927c9.286,14.942,21.41,27.452,34.013,24.085c0.13-0.056,0.554-0.199,1.051-0.342
					c-23.929-25.336-35.735-72.425-36.911-84.02l-3.013,0.803c-0.063,0.068-0.161,0.125-0.225,0.199
					C602.654,144.164,602.68,154.37,606.593,168.802z"/>
			</g>
			<g>
				<path d="M618.892,129.663l0.031-1.973c0,0-0.41-11.185-1.755-10.73c-0.784,0.261-6.436,2.104-9.834,8.569l-1.849-1.605
					c0,0-2.14,4.07-4.026,7.2c-1.93,3.119-3.367,5.589-3.367,5.589s1.475,2.639,0.592-1.5c-3.255,2.496-2.396,12.466,0,19.175
					c0.386,2.135,0.883,4.475,1.593,6.939c2.758,10.288,5.776,12.198,5.776,12.198l2.407,0.573l2.049,1.058l-3.262-7.948
					c0,0-4.325-8.551,3.013-17.544c5.396-6.591,21.21-9.895,21.21-9.895L618.892,129.663z"/>
				<path fill="#212121" d="M666.577,122.523c-3.796-5.763-6.329-9.129-16.748-8.146c-3.784-3.934-15.752-3.666-16.238-2.682
					c-0.285,0.629,8.172,2.52,8.851,5.521c-3.965-3.728-16.125-8.035-17.015-7.238c0,0,4.791,5.259,6.285,8.843
					c-0.049,0.013,1.724,0.299,1.68,0.281c-2.606-5.689-14.407-10.63-13.747-8.57c0.646,1.749,7.444,4.549,7.624,9.423
					c-0.46,0.081,0.43-0.063,0,0c-1.021-4.513-9.702-10.307-15.372-9.896c3.361,5.34,5.37,9.273-2.285,22.269
					c0,0.137-2.413,16.181,8.466,13.884c3.422-0.703,15.564-5.252,23.867-7.773c6.765,0.305,17.886,2.365,20.476,4.749
					c3.484,3.224,7.412,12.977,7.412,12.977l2.775-3.075l3.982,0.759C676.59,153.847,675.028,135.32,666.577,122.523z"/>
			</g>
		</g>
		<g>
			<path fill="#E0B8AA" d="M757.871,244.868c6.678,11.837,24.677,97.269,24.702,106.729c0.063,18.813-33.683,5.539-33.471,1.381
				c0.211-4.164-29.898-67.333-22.162-95.109C734.626,230.081,757.871,244.868,757.871,244.868z"/>
			<g>
				<path fill="#FF9C00" d="M736.705,229.875c15.416,14.37,36.085,60.244,40.957,76.681c-18.801,11.975-41.455,18.416-41.455,18.416
					s-15.497-40.665-17.214-60.6C716.048,230.187,736.705,229.875,736.705,229.875z"/>
				<path fill="#FFC400" d="M732.928,229.57c3.44-1.12,10.343-5.347,14.426-2.011c16.113,13.263,32.755,69.456,32.524,78.854
					c-5.981,3.535-14.14,6.983-14.14,6.983c-9.286-46.945-15.554-63.064-23.345-75.057
					C737.24,230.398,732.928,229.57,732.928,229.57z"/>
			</g>
		</g>
		<g>
			<polygon fill="#1E1E1E" points="719.721,371.462 648.746,381.358 637.737,274.909 708.524,261.162 			"/>
			<polygon fill="#1E1E1E" points="649.568,381.097 640.077,381.924 628.937,274.909 638.845,274.554 			"/>
			<polygon points="640.4,381.931 576.478,369.726 561.808,266.29 628.937,274.86 			"/>
		</g>
		<path fill="#E0B8AA" d="M559.269,334.408c0,0,9.329-12.436,11.639-14.29c2.303-1.861,7.4-3.604,13.63-4.245
			c4.667-0.467,3.884,3.454-0.374,5.19c-3.559,1.469-7.804,3.013-7.804,3.013l-2.533,4.22l-0.534,0.908c0,0,11.992-4.413,13.3-4.91
			c1.313-0.498,8.694-1.151,10.562-1.644c2.632-0.659,5.432,1.774,1.668,3.678c-3.797,1.911-11.943,4.282-14.563,5.247
			c-2.64,0.978-3.001,1.649-3.001,1.649c7.363-2.651,16.405-5.676,19.082-5.178c2.676,0.498,2.614,3.006-1.768,4.625
			c-4.381,1.649-16.386,5.701-16.386,5.701l15.167-2.801c0,0,5.313,1.998-1.252,4.456c-13.28,4.929-19.43,10.954-21.671,11.57
			C569.438,352.997,558.397,348.187,559.269,334.408z"/>
		<path fill="#E0B8AA" d="M729.982,326.615c0,0-14.849-9.143-18.01-10.15c-3.143-0.99-9.174-0.723-15.951,1.157
			c-5.042,1.419-2.633,5.228,2.489,5.278c4.338,0.038,9.385-0.075,9.385-0.075l4.375,3.373l0.94,0.734
			c0,0-14.302,0.299-15.877,0.336c-1.599,0.025-9.546,2.346-11.688,2.614c-3.038,0.367-4.974,4.058-0.236,4.48
			c4.724,0.442,14.195-0.398,17.32-0.454c3.148-0.068,3.803,0.454,3.803,0.454c-8.764,0.28-19.431,0.81-22.008,2.402
			c-2.589,1.619-1.506,4.208,3.729,4.139c5.222-0.099,19.454-0.803,19.454-0.803l-16.996,3.311c0,0-4.735,4.282,3.118,4.139
			c15.901-0.287,24.751,3.454,27.365,3.198C726.964,350.159,736.512,340.624,729.982,326.615z"/>
		<path fill="#E0B8AA" d="M729.367,326.615c9.46,3.709,21.235,4.948,28.84,10.095c7.6,5.134,26.954,12.472,22.791,21.278
			c-4.133,8.793-17.265,13.206-30.396,8.066c-13.106-5.154-25.269-13.854-29.407-15.305
			C717.051,349.269,729.367,326.615,729.367,326.615z"/>
	</g>
	<g>
		<g>
			<path fill="#CC9987" d="M164.691,774.33c0.352,12.454,20.52,23.638,39.144,31.74c-10.235,6.815-29.142,9.498-47.122,1.581
				c-9.584-4.219-18.565,1.289-20.8-4.836c-5.053-13.892,2.571-18.776,1.958-39.775C137.276,742.023,164.474,767.316,164.691,774.33
				z"/>
			<path fill="#A0E3F2" d="M134.646,790.095c-3.696,7.624-5.053,21.819-2.188,25.847c2.863,3.996,18.045,4.6,22.134,3.311
				c4.099-1.301,11.906-0.803,18.836,1.388c6.946,2.192,37.728,3.431,43.074-3.162c5.318-6.628-15.235-12.092-20.628-14.904
				c-5.415-2.808-10.21,3.771-16.969,4.219C172.157,807.179,134.646,790.095,134.646,790.095z"/>
		</g>
		<g>
			<path fill="#E0B8AA" d="M60.545,774.79c1.696,15.343,3.125,26.438,19.907,41.507c14.19,12.745-17.346,19.891-31,11.382
				c-7.574-4.736-22.862-15.927-24.228-29.53c-1.117-10.954,13.944-31.051,14.709-37.516c2.62-22.02,11.393-21.224,14.744-34.679
				C59.799,705.466,58.831,759.432,60.545,774.79z"/>
			<path fill="#FFFFFF" d="M25.699,786.766c-5.598,6.541-8.175,22.915-6.413,27.607c1.783,4.674,9.802,6.996,14.146,6.783
				c4.329-0.229,8.903,1.084,14.168,6.262c10.534,10.382,29.559,15.11,38.073,13.836c27.643-4.077,3.847-19.443-0.725-23.583
				c-4.572-4.169-21.736,1.407-28.473,0.088C49.722,816.401,25.699,786.766,25.699,786.766z"/>
		</g>
		<path fill="#82C655" d="M196.018,455.245c-4.235,37.839-9.674,179.782-13.082,189.957c-3.386,10.157-7.599,31.349-7.599,31.349
			s-9.233,90.696-7.552,100.859c-13.543,11.875-39.331,10.319-39.331,5.234c0-5.078-10.602-59.484,6.339-121.604
			c10.296-37.739-13.325-98.227-3.162-132.096C141.798,495.051,196.018,455.245,196.018,455.245z"/>
		<path fill="#B7F98C" d="M188.394,502.682c0,0-29.656,122.263-36.433,135.812c-6.769,13.55-12.292,11.072-22.589,24.857
			c-24.832,33.303-54.211,120.856-54.211,127.628c-13.543,4.513-49.677-16.941-47.431-23.731
			c2.247-6.771,23.143-107.861,66.627-148.532c0,0,22.461-90.528,11.302-112.865c-13.925-27.856,4.148-51.457,29.139-73.458
			c24.988-22.014,62.911,13.53,62.911,13.53L188.394,502.682z"/>
	</g>
	<path fill="#5A6075" d="M340.459,541.815c-15.747,17.712-25.315,49.087-24.515,61.732c1.114,17.775,37.982,22.972,37.982,22.972
		l19.387-3.909c10.366,0,29.077-13.511,43.154-13.511c14.072,0,86.279,20.575,81.798-0.124
		c-3.137-14.57-22.562-62.431-36.658-66.352C447.53,538.717,340.459,541.815,340.459,541.815z"/>
	<path d="M480.527,393.108c23.164-0.791,19.052,43.186,34.349,71.659c7.785,14.526,12.123,27.46,10.55,31.144
		c-10.12,23.625-9.354,19.369-45.371,17.938c-6.187-0.244-20.575-11.596-20.575-11.596l13.312-85.979L480.527,393.108z"/>
	<g>
		<g>
			<path fill="#EAA74E" d="M486.421,633.297c-1.262,26.376,17.707,172.637,17.707,172.637H493.71l-33.845-172.637H486.421z"/>
			<g>
				<path fill="#A84800" d="M290.57,552.452c0.853,17.414,18.528,30.241,39.277,28.81l80.695-5.596
					c19.972-1.382,72.438-18.964,71.827-35.786l-4.998-137.654c-0.641-17.918-17.78-31.99-38.417-31.398l-117.892,4.263
					c-21.665,0.647-38.596,16.3-37.665,34.871L290.57,552.452z"/>
				<path fill="#722924" d="M279.554,636.371c1.189,25.865-8.078,169.525-8.078,169.525h9.678l23.083-169.525H279.554z"/>
				<path fill="#722924" d="M335.141,635.904c1.335,29.593-1.444,195.086-1.444,195.086h11.105l18.584-195.086H335.141z"/>
				<path fill="#CC7425" d="M278.042,590.148c0,16.163-0.89,42.016,0.922,46.845c1.833,4.855,51.121,20.531,63.941,22.144
					c12.789,1.637,176.596-13.075,178.406-21.154c1.835-8.077-54.052-65.727-66.841-67.377
					C441.655,569.007,278.042,590.148,278.042,590.148z"/>
			</g>
		</g>
		<g>
			<g>
				<path d="M473.645,782.209c-1.37,9.883-1.196,33.291,4.91,40.996c0,0,5.471,3.491,11.384,2.104
					c6.062-1.443,7.107,0.97,10.654,5.153c3.535,4.182,25.629,7.934,35.91,5.993c12.181-2.278,15.672-8.391-0.087-18.211
					c-18.597-11.588-29.588-22.381-33.868-33.608C498.24,773.371,473.645,782.209,473.645,782.209z"/>
				<path fill="#0E3999" d="M512.23,577.689c9.323,3.733,23.314,10.76,26.911,34.166c3.168,20.583-11.09,190.649-11.09,190.649
					l-14.925,4.344c0,0-8.141-161.863-6.684-184.146C509.953,568.515,514.876,578.754,512.23,577.689z"/>
				<path fill="#00225E" d="M469.487,560.281c31.629,11.152,53.729,17.246,57.512,33.253c3.803,16.019-12.34,213.314-12.34,213.314
					s-44.3,2.565-44.3-0.236c0-2.794-5.315-177.636-6.063-182.514C463.518,619.226,469.487,560.281,469.487,560.281z"/>
			</g>
			<g>
				<path d="M370.92,819.813c-0.47-7.4,3.616-12.236-1.646-50.05c-0.625-4.574,36.788-7.5,36.788-7.5
					c-0.834,18.69-3.342,35.886,17.321,57.568c10.623,11.153,22.217,27.129,4.729,30.409c-21.481,4.045-37.597-4.021-44.045-17.104
					c-0.442-0.858-1.998-0.436-1.998-0.436S371.739,833.1,370.92,819.813z"/>
				<g>
					<path fill="#00225E" d="M401.466,573.606c-18.92-8.091-33.43-6.573-42.293,15.086c-8.844,21.67-7.288,63.455-5.321,100.953
						c1.376,25.672,8.365,117.789,8.365,117.789l22.679,0.079l37.254-3.16c0,0,2.577-149.404,2.577-162.953
						C424.727,627.869,423.606,583.091,401.466,573.606z"/>
				</g>
			</g>
			<g>
				<g>
					<path fill="#CC9987" d="M450.019,355.829c-3.409,8.962-8.37,19.461-3.572,29.413c3.834,7.923-14.4,31.423-19.343,30.894
						c-18.282-1.935-44.256-44.76-44.256-44.76s11.439-5.788,14.016-10.232c4.976-8.526,8.899-22.56,10.029-27.266
						C408.629,326.758,450.019,355.829,450.019,355.829z"/>
					<g>
						
							<linearGradient id="SVGID_2_" gradientUnits="userSpaceOnUse" x1="366.1899" y1="373.3438" x2="474.8929" y2="298.3235" gradientTransform="matrix(0.9967 0.0813 -0.0813 0.9967 51.6309 -24.9619)">
							<stop  offset="0" style="stop-color:#FFFFFF"/>
							<stop  offset="0.5165" style="stop-color:#C6C0B9"/>
						</linearGradient>
						<path fill="url(#SVGID_2_)" d="M424.005,340.332v-0.025l0.118,0.031l0.094,0.013v0.006l16.056,3.623
							c-0.225,1.338,11.109,22.143,10.835,27.595c-5.061,5.346-43.653,24.751-51.52,23.413c-6.522-1.107-4.48-12.179-7.888-17.283
							c1.954-6.466,15.213-44.163,15.481-45.725L424.005,340.332z"/>
					</g>
				</g>
				<g>
					<path d="M471.292,560.281c0,0-122.48,42.363-118.709,31.646c11.738-33.259-9.6-89.489-8.249-100.623
						c1.783-14.875,2.072-49.758,0.433-56.33c-1.616-6.566-18.556-18.534-18.556-18.534s1.824-29.532,22.025-34.199
						c20.587-4.749,16.53-7.954,37.255-18.49c0,0,13.735,39.731,46.643,38.35c11.768-0.492,5.396,72.542,10.169,78.754
						C446.721,489.257,471.292,560.281,471.292,560.281z"/>
				</g>
				<path fill="#1E1E1E" d="M449.689,549.863L437,489.842c0,0-6.916-86.645-4.867-87.74c9.846-5.203,12.97-9.734,9.583-26.457
					l-0.286-4.07c9.504,4.369,18.073,12.092,39.713,19.81c4.351,1.549-5.395,26.294-5.395,26.294s1.294,32.643,1.929,39.389
					c2.085,22.71,2.464,45.166,1.543,60.077c-0.522,8.776-3.41,24.342,2.515,48.34L449.689,549.863z"/>
				<g>
					<path d="M396.951,309.979c-1.104,6.952-2.583,31.604-2.965,32.924c-0.374,1.331-1.432,6.08-2.748,5.445
						c-1.272-0.641,13.094,7.686,15.684,5.731c2.583-1.935,9.889-32.904,8.968-34.852
						C414.956,317.255,396.951,309.979,396.951,309.979z"/>
					<g>
						<path fill="#CC9987" d="M411.881,318.624c1.976-19.256-0.205-38.238,29.431-35.599c36.981,3.255,31.909,24.091,30.354,47.661
							c-1.569,23.538-13.68,50.473-32.201,46.82c-20.675-4.058-30.658-17.6-31.455-34.392c-3.759-2.271-6.202-9.161-6.046-15.067
							C402.088,320.354,405.518,314.056,411.881,318.624z"/>
						<path fill="#E0B8AA" d="M431.778,314.56c-4.413,23.874-4.282,57.948,8.825,62.236c15.914,3.199,23.307-12.479,29.656-28.168
							c4.649-12.454,9.585-33.166,5.49-47.449c-2.738-9.137-6.211-13.96-12.877-15.728
							C449.522,287.182,435.394,294.881,431.778,314.56z"/>
						<g>
							<path fill="#1E1E1E" d="M451.805,282.639l-0.479-1.817c0,0-7.244-5.371-5.763-5.209c0.84,0.074,3.971-2.029,5.228,2.041
								l-2.738-6.926l17.17,7.71c0,0,4.015-0.112,6.642,2.453c2.614,2.52,4.623,4.531,4.623,4.531s-0.902,2.769-0.902-1.283
								c3.809,1.699,5.24,11.196,4.351,17.986c0.13,2.06,0.13,4.351,0.006,6.815c-0.41,10.213-4.101,20.917-4.101,20.917
								l-2.078,0.946c0,0,6.863-23.37-1.5-31.398c-8.377-8.041-30.77-4.711-30.77-4.711L451.805,282.639z"/>
							<path d="M397.794,292.385c3.762-5.563,12.615-16.113,17.423-17.631c2.875-4.444,18.335-2.477,34.734-5.944
								c0,0-14.558,3.249-15.218,6.928c0.051,0,0.075-0.019,0.106-0.038c2.334-2.664,26.339-7.231,24.975-5.583
								c-7.723,9.305-5.477,2.658-4.493,7.307c0.473-0.068-0.797,0.268-0.349,0.256c-0.032-4.444,5.427-8.029,8.962-8.489
								c-2.172,5.682,4.779,6.198,8.501,13.262c4.966,6.143,7.917,16.847,1.419,20.47c-14.974,8.333-24.671-1.556-33.527-2.209
								c-8.052-0.684-13.15,3.405-15.216,6.149c-2.75,3.729-6.672,22.436-6.672,22.436l-5.166-4.363l-4.714-8.477l-12.581,7.767
								C395.98,324.225,390.267,303.594,397.794,292.385z"/>
						</g>
					</g>
				</g>
			</g>
		</g>
	</g>
	<path fill="#EAA74E" d="M806.944,533.413c0,0.704-1.318,1.227-2.969,1.227H150.881c-1.636,0-2.94-0.522-2.94-1.227l33.371-11.37
		c3.047-1.002,4.201-1.238,5.832-1.238l573.958,0.068c1.661,0,3.964,0.305,8.016,1.289L806.944,533.413z"/>
	<g>
		<g>
			<path fill="#A84800" d="M751.636,661.664c0,2.8-3.038,5.047-6.853,5.047H200.278c-3.784,0-6.862-2.247-6.862-5.047v-97.307
				c0-2.775,3.078-5.061,6.862-5.061h544.505c3.814,0,6.853,2.285,6.853,5.061V661.664z"/>
		</g>
		<rect x="726.635" y="558.451" fill="#A84800" width="27.272" height="285.938"/>
		<rect x="193.009" y="612.629" fill="#A84800" width="27.288" height="231.76"/>
		<linearGradient id="SVGID_3_" gradientUnits="userSpaceOnUse" x1="440.0127" y1="773.8037" x2="440.0127" y2="567.3083">
			<stop  offset="0.6978" style="stop-color:#FFFFFF"/>
			<stop  offset="0.7544" style="stop-color:#F8F8F8"/>
			<stop  offset="0.8382" style="stop-color:#E4E4E4"/>
			<stop  offset="0.9385" style="stop-color:#C3C3C3"/>
			<stop  offset="0.956" style="stop-color:#BDBDBD"/>
		</linearGradient>
		<polygon fill="url(#SVGID_3_)" points="163.487,550.858 80.156,652.453 713.789,649.105 799.869,553.479 		"/>
		<path fill="#C16527" d="M807.865,559.167c0,1.936-1.27,3.504-2.894,3.504H149.207c-1.581,0-2.881-1.568-2.881-3.504v-22.816
			c0-1.954,1.3-3.503,2.881-3.503h655.765c1.624,0,2.894,1.549,2.894,3.503V559.167z"/>
	</g>
	<path fill="#E0B8AA" d="M539.123,487.086c-11.756,0.535-44.256,10.362-52.334,8.855c-11.016-2.079-11.675-4.127-14.228-4.002
		c-3.093,0.162-4.519,0.903-8.401,4.463c-5.502,5.135-7.96,11.545-6.112,13.219c0.647,0.61,2.57-1.979,4.468-4.469
		c2.776-3.585,5.165-4.139,5.165-4.139s-2.289,3.018-6.098,6.572c-2.813,2.646-3.243,4.879-2.34,5.688
		c1.917,1.731,11.968-6.291,11.968-6.291s-10.96,7.823-9.416,9.011c3.174,2.365,12.136-3.746,12.136-3.746
		s-10.281,4.649-9.436,5.906c1.357,1.985,7.363,0.249,11.041-1.812c3.66-2.09,10.102,3.031,16.898-0.615
		c10.423-5.627,51.318,4.563,59.553-7.07C563.47,492.512,539.123,487.086,539.123,487.086z"/>
	<g>
		<polygon fill="#FFFFFF" points="375.14,519.199 385.926,511.83 532.446,512.348 553.046,517.244 		"/>
		<rect x="375.716" y="516.398" fill="#B0DFF4" width="170.129" height="13.063"/>
	</g>
	<g>
		<path fill="#D4F2FC" d="M636.205,489.152c0,3.576-2.906,6.583-6.516,6.707l-169.289-2.464c-4.655,0.161-8.427-3.024-8.427-7.12
			l6.56-133.751c0-4.101,3.784-7.182,8.426-6.896l169.488,4.656c3.592,0.211,6.523,3.299,6.523,6.877L636.205,489.152z"/>
		<g>
			<g>
				<polygon fill="#B0DFF4" points="540.624,435.137 525.227,528.646 582.359,528.646 562.587,435.137 				"/>
			</g>
		</g>
	</g>
	<g>
		<path fill="#CC9987" d="M257.987,362.817c0.971,24.435-9.286,56.25-12.78,70.409c-0.404,1.648,19.753,33.539,23.046,37.622
			c4.982,6.192,7.412,9.261,9.251,13.896c1.942,4.83,3.137,6.746,2.518,9.586c-0.638,2.855-4.764,9.266-6.224,11.426
			c-1.469,2.173-6.037,7.126-8.52,7.095c-2.455-0.044,0.529-3.534,3.585-8.333c3.018-4.799,1.397-6.828,1.241-8.334
			c-0.178-1.531-2.175-5.576-2.175-5.576l-2.235,0.84c0,0-4.304,6.25-6.687,10.208c-2.362,3.951-6.78,2.968-4.067-1.911
			c3.65-6.498,0.996-6.635,1.581-12.285c0.996-9.685-2.113-12.79-10.316-18.603c-3.414-2.421-38.988-25.075-37.814-31.797
			c3.059-17.818,14.093-68.497,21.129-73.438C236.568,358.691,257.445,349.082,257.987,362.817z"/>
		<g>
			<path fill="#E0B8AA" d="M295.979,334.408c-15.603,0.653-37.021,4.194-48.012,47.075c-2.253,8.775,3.096-44.244-3.134-57.898
				c-5.492-12.055-10.142-0.075-15.018-6.447c7.938-1.357,32.739-12.865,41.31-30.023
				C279.639,269.999,295.979,334.408,295.979,334.408z"/>
			<path fill="#850000" d="M250.073,338.004l-6.342-25.971c0,0-4.973-5.396-27.767,6.374
				c-21.338,11.046-38.086,26.954-60.073,61.464c-26.51,41.599-37.771,46.372-53.088,64.912c-6.09,7.399,61.832,52.21,80.727,59.734
				c6.37,2.539,11.215-40.821,29.466-71.503c18.254-30.719,19.53-18.409,30.981-36.533c9.911-15.671,13.733-39.127,13.733-39.127
				L250.073,338.004z"/>
			<path fill="#B80000" d="M265.11,357.802c-1.052,12.777-14.62,48.078-19.677,51.327c-5.056,3.235-14.419,5.93-23.976,25.242
				c-4.65,9.386-27.129,76.725-27.129,76.725l-49.947-28.063c16.153-50.243,53.006-91.462,62.208-100.879
				c11.171-11.414,45.738-67.289,47.122-42.874C254.471,352.823,265.11,357.802,265.11,357.802z"/>
			<g>
				<g>
					<path fill="#E0B8AA" d="M264.976,272.849c5.723-28.461,26.606-37.684,49.219-33.165c22.636,4.499,31.505,24.857,25.872,53.33
						c-1.095,5.434-2.583,10.611-4.363,15.397c0.105,2.707,0.436,5.875,1.089,9.728c-0.33,2.365-3.616,2.713-6.999,2.508
						c-7.932,12.809-18.605,24.615-35.545,19.331C272.233,333.106,259.353,301.31,264.976,272.849z"/>
					<path d="M315.624,273.204l27.866-0.43c3.395-5.352-5.738-32.45-40.535-35.494c-31.843-2.75-44.943,16.854-49.313,35.095
						c-4.422,18.186,2.116,35.232,2.116,35.232s35.282-0.822,31.513-7.556c-2.293-4.182-2.86-17.892,3.575-17.544
						c3.125,0.162,5.328,4.145,5.328,4.145L315.624,273.204z"/>
					<path fill="#1E1E1E" d="M341.112,264.224c5.807,4.879,12.833,18.048,1.422,23.27c-8.71,4.014-42.946-6.66-37.995,15.21
						c-2.343-0.28-10.54-13.604-3.228-26.83C308.591,262.63,341.112,264.224,341.112,264.224z"/>
				</g>
				<path fill="#E0B8AA" d="M277.831,511.93c-4.764-5.694-10.848-2.289-17.006-2.166c-3.563-8.607-14.486-59.218-15.441-63.014
					c-0.949-3.796-2.443-62.828-11.613-92.278c0,0-12.852-14.726-27.564,1.437c-9.519,10.431,5.916,79.433,14.467,91.78
					c3.806,16.138,15.099,43.46,22.119,54.992c5.99,9.865,7.605,14.67,8.756,17.898c1.252,3.411,3.685,3.162,8.424,3.162
					c3.124,0,5.91-1.494,8.694-3.248c1.061,0.759,2.9,1.394,2.9,1.394s7.419,5.806,9.271,4.637c1.027-0.642-1.537-3.261-4.046-5.459
					c2.929,2.36,6.725,5.521,7.516,4.991c1.743-1.156-3.853-6.197-4.752-7.412c5.34,6.723,7.077,4.637,7.077,4.637
					S282.558,517.637,277.831,511.93z"/>
				<path d="M261.958,276.272c-49.158-24.154-37.747,33.689-40.4,56.71c-2.636,23.015-5.094,69.417-19.312,67.538
					c10.079,5.502,34.93,3.666,49.347-32.549c14.432-36.241-16.64-74.192,5.716-82.874
					C265.555,281.892,261.958,276.272,261.958,276.272z"/>
			</g>
		</g>
	</g>
	<g>
		<g>
			<path fill="#1E1E1E" d="M339.917,389.125c-19.722-12.192-49.941,107.519-45.177,117.296c4.742,9.758,7.5,13.717,14.591,15.402
				c21.002,4.931,51.283,0,51.283,0s-0.386-22.093,2.471-27.807c2.863-5.73-23.491-12.982-23.491-12.982s13.3-36.084,13.3-39.084
				C352.894,438.958,350.149,395.454,339.917,389.125z"/>
		</g>
		<path fill="#E0B8AA" d="M346.471,490.645c13.425-0.51,51.227,7.568,60.242,5.11c12.326-3.398,12.868-5.788,15.78-5.869
			c3.517-0.144,5.234,0.565,9.938,4.271c6.734,5.307,10.145,12.354,8.185,14.412c-0.666,0.76-3.087-1.991-5.508-4.648
			c-3.473-3.81-6.211-4.188-6.211-4.188s2.851,3.175,7.505,6.871c3.461,2.726,4.152,5.222,3.188,6.248
			c-1.985,2.154-14.166-6.024-14.166-6.024s13.182,7.867,11.526,9.354c-3.36,2.969-14.114-3.137-14.114-3.137
			s12.117,4.32,11.264,5.82c-1.356,2.396-8.333,0.945-12.708-1.045c-4.344-1.986-11.181,4.424-19.212,0.926
			c-12.395-5.407-60.721,11.932-68.298-2.42C325.395,500.186,346.471,490.645,346.471,490.645z"/>
	</g>
	<g>
		<g>
			<g>
				<polygon fill="#C16527" points="671.513,844.24 665.569,844.24 681.937,661.49 692.343,636.9 832.082,638.625 832.082,674.41 
					831.678,674.41 854.263,845.254 848.319,845.254 811.177,674.41 700.434,674.41 				"/>
				<path fill="#EAA74E" d="M860.767,427.643c11.01-32.469,18.59-32.798,49.173-32.12c25.653,0.598,33.738,14.084,32.693,36.073
					l-42.72,199.329c-1.033,21.982-18.97,36.496-39.757,32.245c-20.83-4.219-49.832-18.291-48.22-40.229L860.767,427.643z"/>
				<polygon fill="#EAA74E" points="720.815,876.154 714.343,876.154 733.026,696.641 682.914,677.795 761.816,640.802 
					886.146,657.743 886.146,696.641 885.767,696.641 907.238,870.622 900.754,870.622 863.442,696.641 755.301,696.641 				"/>
				<path fill="#C16527" d="M882.681,662.057c7.344-0.025,6.21-7.145-0.455-10.195l-48.943-18.54
					c-6.658-3.075-18.116-5.558-25.454-5.508l-115.068,0.672c-7.35,0.025-13.691,4.301-7.923,8.826l22.43,13.038
					c5.757,4.537,37.672,15.796,45.004,15.765L882.681,662.057z"/>
			</g>
		</g>
		<path fill="#B5723A" d="M803.104,386.163c2.458,19.362-5.731,81.667-13.661,80.765c4.102,3.478,8.688,2.987,13.226-6.025
			c-5.545,13.412-13.99,16.997-17.719,14.563c6.373,5.726,43.224,35.002,58.559,14.632c15.366-20.308,22.566-74.709,2.845-86.988
			C826.668,390.836,803.104,386.163,803.104,386.163z"/>
		<g>
			<path fill="#00225E" d="M853.224,452.768c-27.086-1.146-29.551,19.368-44.691,40.148c-18.641,25.616-22.586,34.019-22.586,34.019
				s-23.737-12.011-28.877-13.138c-5.142-1.158-6.81,29.773-6.81,29.773s12.186,2.21,35.911,2.228
				c15.857,0.008,73.806-56.042,72.242-70.338C856.857,461.139,853.224,452.768,853.224,452.768z"/>
		</g>
		<path fill="#E0B8AA" d="M837.129,408.231c10.376,10.892,13.667,31.772,6.995,47.922c-3.024,7.313-14.662,21.901-22.05,25.934
			c-9.081,4.942,26.102-4.537,42.545-9.261c14.445-4.138,18.328-21.309,27.464-21.833c-4.704-7.959-11.027-42.631-16.872-72.199
			C871.017,357.354,837.129,408.231,837.129,408.231z"/>
		<path fill="#E0B8AA" d="M884.285,384.788c-4.892-29.357-28.068-45.134-50.76-37.243c-22.336,7.742-36.446,21.964-27.036,50.145
			c1.595,4.76,3.188,9.322,4.824,13.691c-0.205,3.199-0.747,7.07-1.936,11.987c0.262,2.751,4.469,3.106,8.39,2.975
			c7.544,14.825,16.71,23.164,30.277,18.08C863.256,438.771,889.19,414.132,884.285,384.788z"/>
		<path fill="#00225E" d="M868.775,461.413c-14.356,10.194-45.413,11.812-45.413,11.812c-13.287,11.882-24.315,19.593-30.135,26.152
			c-8.09,9.217-4.231,21.596-3.049,28.535c1.182,6.939-7.979,16.872-11.06,28.765c-0.828,3.156-17.109,19.954-17.109,19.954
			s62.541,38.324,72.468,39.283c6.148,0.616,35.475-64.079,49.989-91.816c14.513-27.777,8.625-40.119,14.42-50.556
			C893.347,463.13,879.687,453.683,868.775,461.413z"/>
		<g>
			<path fill="#CC9987" d="M714.854,492.5c-3.019,1.985-9.448,4.288-6.827,5.34c2.639,1.064,3.641-0.673,6.659-0.305
				c3.056,0.373,10.724-1.85,10.724-1.85s-15.398,1.911-14.458,4.32c0.946,2.396,14.01,0.695,14.01,0.695s-8.943,1.787-7.904,2.385
				c1.04,0.616,4.612,1.425,8.003,1.73c3.398,0.236,17.197,6.877,16.518,3.235c-0.641-3.64-3.111-10.623-11.188-13.474
				C722.284,491.715,714.854,492.5,714.854,492.5z"/>
			<path fill="#E0B8AA" d="M758.457,509.652c-10.258-6.753-24.957-18.84-29.943-19.891c-4.966-1.027-14.108-0.76-14.108-0.76
				s-13.449,3.945-10.362,6.672c3.05,2.713,9.864-2.59,12.373-2.117c2.471,0.499,8.993,2.129,8.993,2.129l10.156,8.104
				c0,0-14.121-6.66-15.34-4.605c-1.209,2.109-0.025,2.775,4.834,5.633c4.843,2.801,8.888,9.597,12.884,12.41
				c12.049,8.433,25.865,8.016,25.865,8.016l3.106-11.793L758.457,509.652z"/>
		</g>
		<g>
			<polygon fill="#A80000" points="778.577,556.154 792.282,542.444 674.624,503.117 710.951,535.822 			"/>
			<polygon fill="#D7EBF2" points="713.229,533.065 675.564,499.881 786.107,539.793 756.253,543.764 			"/>
			<polygon fill="#FFFFFF" points="714.443,532.237 679.429,491.225 790.526,535.361 760.074,542.295 			"/>
			<polygon fill="#D7EBF2" points="714.916,534.977 737.196,503.272 818.122,530.763 776.405,549.602 			"/>
			<polygon fill="#FFFFFF" points="715.725,536.189 739.661,508.83 823.991,536.027 787.233,557.02 			"/>
			<polygon fill="#B80000" points="807.929,568.465 828.938,540.191 742.287,512.396 711.058,536.14 			"/>
		</g>
		<g>
			<g>
				<path fill="#CC9987" d="M575.313,772.04c-22.243,26.568-49.732,17.259-47.262,22.567c12.422,27.314,12.365,9.241,25.019,10.169
					c12.099,0.884,13.319,2.439,20.376-0.305c15.92-6.312,10.082-16.786,28.748-32.432
					C620.908,756.325,598.453,744.376,575.313,772.04z"/>
			</g>
			<g>
				<g>
					<path fill="#A0E3F2" d="M534.562,789.161c3.635-5.128,9.509-11.414,12.261-11.774c5.656-0.716,8.276,2.303,6.484,7.249
						c-1.774,4.899-13.35,14.676-13.35,14.676L534.562,789.161z"/>
					<path fill="#A0E3F2" d="M594.19,799.773c0.055,9.652,1.562,19.031-5.844,27.033c-10.487,3.45-84.194-19.51-84.194-19.51
						s-7.493-2.738-3.466-10.426c2.794-5.308,19.449-2.47,35.456-9.018c6.821,11.277,13.953-0.522,19.966,5.689
						C571.007,808.853,594.19,799.773,594.19,799.773z"/>
					<path fill="#232121" d="M567.64,817.728c15.914,3.137,22.811,6.784,22.811,6.784c-0.548,2.185-1.494,7.785-3.803,7.618
						c-2.285-0.188-63.103-10.911-82.719-20.732c-4.849-2.433-5.216-11.146-4.388-11.55c-0.268,2.676,1.493,4.425,4.649,5.762
						C536.174,819.296,550.768,814.422,567.64,817.728z"/>
					<path fill="#FFFFFF" d="M534.935,796.069c0.28-0.261,0.28-0.679,0.074-1.002l0,0l-1.953-3.299l10.388,3.864
						c0.379,0.156,0.877-0.023,1.088-0.422l0,0c0.219-0.354,0.182-0.834-0.161-1.14l0,0l-7.637-6.896
						c-0.33-0.33-0.928-0.317-1.263,0.068l0,0c-0.35,0.373-0.33,0.915,0.049,1.264l0,0l4.22,3.802l-8.482-3.1
						c-0.354-0.142-0.778-0.049-1.033,0.25l0,0c-0.25,0.336-0.262,0.722-0.074,1.063l0,0l2.09,3.467l-10.735-3.298
						c-0.485-0.144-1.008,0.118-1.183,0.591l0,0c-0.112,0.474,0.199,0.996,0.648,1.176l0,0l13.02,3.953c0,0,0.012,0,0.036,0.012l0,0
						C534.374,796.499,534.724,796.368,534.935,796.069L534.935,796.069z"/>
				</g>
			</g>
		</g>
		<path d="M754.169,595.027c-9.536-1.089-80.168,19.804-121.087,29.034c-1.881,0.428-21.472,7.878-25.176,21.31
			c-15.757,44.492-42.482,131.442-46.503,132.538c3.417,1.798,19.225,18.683,26.568,6.192
			c22.681-38.699,47.177-148.091,48.104-141.071c1.207,9.293,113.725-24.646,113.725-24.646L754.169,595.027z"/>
		<g>
			<g>
				<path fill="#E0B8AA" d="M585.839,788.869c-11.564,13.213-30.272,18.54-44.195,22.087c7.17,26.712,16.623,29.32,30.882,17.308
					c6.336-5.377,22.081,5.122,29.669,0c10.498-7.095,3.535-8.813,13.404-30.115c15.978-34.505,41.244-74.965,42.813-106.424
					C658.767,684.922,592.354,781.45,585.839,788.869z"/>
			</g>
			<g>
				<g>
					<path fill="#FFFFFF" d="M547.395,806.774c3.622-5.122,9.497-11.414,12.223-11.8c5.664-0.722,8.29,2.303,6.517,7.226
						c-1.768,4.923-13.306,14.718-13.306,14.718L547.395,806.774z"/>
					<path fill="#FFFFFF" d="M611.753,814.055c0.068,9.623-0.336,21.005-7.711,29.041c-10.493,3.46-87.031-18.067-87.031-18.067
						s-7.474-2.758-3.448-10.463c2.757-5.29,19.424-2.514,35.431-9.11c6.853,11.289,13.948-0.529,19.973,5.662
						C583.89,826.379,611.753,814.055,611.753,814.055z"/>
					<path fill="#232121" d="M580.554,835.272c15.939,3.105,26.979,6.372,26.979,6.372c-0.517,2.197-1.48,7.787-3.814,7.63
						c-2.234-0.18-56.511-0.316-86.483-17.307c-4.705-2.665-5.664-14.017-4.855-14.401c-0.211,2.682,1.525,4.424,4.668,5.75
						C549.075,836.933,563.675,832.012,580.554,835.272z"/>
					<path fill="#A0E3F2" d="M547.842,813.7c0.225-0.267,0.262-0.696,0.025-1.002l0,0l-1.979-3.272l10.42,3.771
						c0.372,0.199,0.857,0.018,1.088-0.387l0,0c0.23-0.341,0.168-0.814-0.18-1.133l0,0l-7.644-6.901
						c-0.36-0.323-0.921-0.305-1.281,0.075l0,0c-0.323,0.373-0.286,0.921,0.075,1.256l0,0l4.225,3.804l-8.482-3.075
						c-0.361-0.131-0.784-0.03-1.021,0.293l0,0c-0.225,0.292-0.28,0.696-0.081,1.027l0,0l2.098,3.441l-10.779-3.236
						c-0.448-0.15-0.959,0.112-1.126,0.591l0,0c-0.132,0.479,0.155,0.99,0.641,1.14l0,0l13.007,3.951c0,0,0.013,0,0.037,0.012l0,0
						C547.221,814.13,547.619,814,547.842,813.7L547.842,813.7z"/>
				</g>
			</g>
		</g>
		<path fill="#1E1E1E" d="M768.376,567.033c-8.458,9.971-16.057,26.762-16.057,26.762s-70.239,24.908-100.704,35.213
			c-1.867,0.635-15.988,3.455-21.017,12.982c-16.686,31.667-56.193,149.467-57.45,150.127c15.472,8.421,37.678,14.215,40.154,12.976
			c12.354-8.034,55.856-115.479,58.085-115.733c47.71-5.502,84.331-28.188,117.564-24.87c52.035,5.134,53.068-49.944,52.147-60.618
			C840.153,593.235,768.376,567.033,768.376,567.033z"/>
		<g>
			<path fill="#CC9987" d="M781.358,547.535c-2.339,0.093-18.676-3.752-22.996-4.749c-0.261-0.093-0.528-0.143-0.79-0.211
				c-4.231-3.336-8.77-6.952-10.393-8.042c-1.898-1.27-16.113-4.76-17.818-3.415c-1.749,1.325-0.23,4.306,2.806,4.704
				c3.094,0.386,6.492-0.093,7.712,2.651c0.125,0.243,0.174,0.467,0.28,0.722l-12.858-0.292c0,0-9.534-2.316-12.938-4.848
				c-2.658-2.023-0.317,4.032,1.786,6.415c1.936,2.191,3.696,2.776,5.451,5.714c0,0-0.522,3.896,2.863,6.672
				c0.573,0.448-0.019,3.024,4.848,5.776c1.314,0.776,0.354,1.593,4.126,3.721c3.162,1.812,11.066,1.531,21.273,0.498
				c5.396-0.567,33.104,11.781,33.104,11.781L781.358,547.535z"/>
			<path fill="#0E3999" d="M765.109,543.396l80.509-5.527l14.818-36.135c0,0,16.487-54.617,37.553-32.909
				c14.558,14.992-8.302,88.194-35.23,105.197c-18.081,11.421-100.749,2.608-100.749,2.608L765.109,543.396z"/>
		</g>
		<g>
			<path fill="#B5723A" d="M882.119,361.144c-12.87-18.136-33.246-21.807-57.27-10.854c-16.598,7.581-23.705,24.664-22.006,30.813
				c0.672,2.514,1.811,2.098,1.811,2.098c17.931,17.146,42.595,8.65,44.53,8.265c1.941-0.43,8.178-5.763,10.175,5.414
				c0.461,2.509,0.735,5.166,0.946,7.649c5.564,50.952-2.738,89.571-29.823,83.745c1.4,6.148,13.294,18.695,30.233-0.864
				c2.216-2.559,4.276-5.284,6.25-8.023c-2.553,10.624-6.79,18.112-13.742,18.964c10.375,6.161,54.369-5.7,56.958-17.836
				C910.182,480.513,905.582,394.198,882.119,361.144z"/>
			<path fill="#CC8E5A" d="M859.615,376.709c14.438,15.708,24.59,89.141,0.373,118.654c10.941-2.502,26.768-35.967,18.049-75.301
				C869.28,380.68,859.615,376.709,859.615,376.709z"/>
			<path fill="#CC8E5A" d="M838.274,356.382c9.834,7.936,23.581,8.427,26.954,55.92c3.386,47.511-5.806,70.301-17.637,76.657
				c9.515-2.576,13.791-7.551,15.813-12.89c-3.951,9.261-4.886,11.115-4.643,11.346c2.017,2.215,14.14-19.586,13.443-46.889
				c-0.511-18.148-3.431-50.523-13.779-67.745C849.072,357.242,838.274,356.382,838.274,356.382z"/>
		</g>
	</g>
</g>
</svg>
