<?xml version="1.0" encoding="utf-8"?>
<!-- Generator: Adobe Illustrator 16.0.0, SVG Export Plug-In . SVG Version: 6.00 Build 0)  -->
<!DOCTYPE svg PUBLIC "-//W3C//DTD SVG 1.1//EN" "http://www.w3.org/Graphics/SVG/1.1/DTD/svg11.dtd">
<svg version="1.1" id="Capa_1" xmlns="http://www.w3.org/2000/svg" xmlns:xlink="http://www.w3.org/1999/xlink" x="0px" y="0px"
	 width="960px" height="960px" viewBox="0 0 960 960" enable-background="new 0 0 960 960" xml:space="preserve">
<polygon fill="none" stroke="#CCCCCC" stroke-width="84" stroke-miterlimit="10" points="236.067,697 479.742,274.943 723.417,697 
	"/>
<circle fill="#FFFFFF" stroke="#00FFFF" stroke-width="10" stroke-miterlimit="10" cx="235.742" cy="654.443" r="211.81"/>
<circle fill="#FFFFFF" stroke="#00FF00" stroke-width="10" stroke-miterlimit="10" cx="723.742" cy="654.443" r="209.24"/>
<g>
	<path fill="#FF1D25" d="M659.896,777.735h-12.51l-2.81,7.813h-4.061l11.402-29.859h3.445l11.423,29.859h-4.04L659.896,777.735z
		 M648.575,774.516h10.151l-5.086-13.966L648.575,774.516z"/>
	<path fill="#FF1D25" d="M672.1,763.359l0.103,2.461c1.627-1.914,3.821-2.871,6.583-2.871c3.104,0,5.216,1.189,6.337,3.568
		c0.738-1.066,1.698-1.928,2.882-2.584c1.182-0.656,2.58-0.984,4.193-0.984c4.867,0,7.342,2.577,7.424,7.731v14.868h-3.794v-14.643
		c0-1.586-0.362-2.771-1.087-3.559c-0.725-0.785-1.941-1.179-3.65-1.179c-1.408,0-2.577,0.421-3.507,1.261
		c-0.93,0.842-1.47,1.973-1.62,3.395v14.725h-3.814v-14.54c0-3.227-1.579-4.84-4.737-4.84c-2.488,0-4.19,1.06-5.106,3.179v16.201
		h-3.794v-22.189H672.1z"/>
	<path fill="#FF1D25" d="M722.447,774.7c0,3.391-0.779,6.115-2.338,8.173s-3.65,3.086-6.275,3.086c-2.803,0-4.97-0.991-6.501-2.974
		l-0.185,2.563h-3.486v-31.5h3.794V765.8c1.531-1.9,3.644-2.851,6.337-2.851s4.809,1.019,6.348,3.056
		c1.537,2.037,2.307,4.826,2.307,8.367V774.7z M718.653,774.27c0-2.584-0.499-4.58-1.497-5.988s-2.434-2.112-4.307-2.112
		c-2.502,0-4.3,1.162-5.394,3.486v9.598c1.162,2.324,2.974,3.486,5.435,3.486c1.818,0,3.233-0.704,4.245-2.112
		S718.653,777.1,718.653,774.27z"/>
	<path fill="#FF1D25" d="M725.566,757.474c0-0.615,0.188-1.135,0.563-1.559s0.934-0.636,1.672-0.636s1.299,0.212,1.682,0.636
		s0.574,0.943,0.574,1.559s-0.191,1.128-0.574,1.538s-0.943,0.615-1.682,0.615s-1.296-0.205-1.672-0.615
		S725.566,758.089,725.566,757.474z M729.668,785.549h-3.794v-22.189h3.794V785.549z"/>
	<path fill="#FF1D25" d="M743.267,785.959c-3.008,0-5.455-0.987-7.342-2.963s-2.83-4.618-2.83-7.927v-0.697
		c0-2.201,0.421-4.166,1.261-5.896c0.842-1.729,2.017-3.083,3.527-4.061s3.148-1.467,4.912-1.467c2.885,0,5.127,0.95,6.727,2.851
		s2.399,4.621,2.399,8.162v1.579h-15.032c0.055,2.188,0.693,3.955,1.918,5.301c1.223,1.348,2.778,2.021,4.665,2.021
		c1.34,0,2.475-0.273,3.404-0.82s1.743-1.271,2.44-2.174l2.317,1.805C749.774,784.53,746.985,785.959,743.267,785.959z
		 M742.795,766.066c-1.531,0-2.816,0.558-3.855,1.672s-1.682,2.676-1.928,4.686h11.115v-0.287c-0.109-1.928-0.629-3.421-1.559-4.48
		S744.381,766.066,742.795,766.066z"/>
	<path fill="#FF1D25" d="M758.218,763.359l0.123,2.789c1.695-2.133,3.91-3.199,6.645-3.199c4.689,0,7.055,2.646,7.096,7.937v14.663
		h-3.794v-14.684c-0.014-1.6-0.379-2.782-1.098-3.548c-0.717-0.766-1.835-1.148-3.353-1.148c-1.23,0-2.311,0.328-3.24,0.984
		s-1.654,1.518-2.174,2.584v15.812h-3.794v-22.189H758.218z"/>
	<path fill="#FF1D25" d="M781.271,757.986v5.373h4.143v2.933h-4.143v13.778c0,0.89,0.185,1.557,0.554,2.002
		c0.369,0.444,0.998,0.667,1.887,0.667c0.438,0,1.039-0.082,1.805-0.246v3.059c-0.998,0.271-1.969,0.407-2.912,0.407
		c-1.695,0-2.974-0.513-3.835-1.538s-1.292-2.481-1.292-4.368v-13.761h-4.04v-2.933h4.04v-5.373H781.271z"/>
	<path fill="#FF1D25" d="M797.371,785.959c-3.008,0-5.455-0.987-7.342-2.963s-2.83-4.618-2.83-7.927v-0.697
		c0-2.201,0.421-4.166,1.261-5.896c0.842-1.729,2.017-3.083,3.527-4.061s3.148-1.467,4.912-1.467c2.885,0,5.127,0.95,6.727,2.851
		s2.399,4.621,2.399,8.162v1.579h-15.032c0.055,2.188,0.693,3.955,1.918,5.301c1.223,1.348,2.778,2.021,4.665,2.021
		c1.34,0,2.475-0.273,3.404-0.82s1.743-1.271,2.44-2.174l2.317,1.805C803.879,784.53,801.09,785.959,797.371,785.959z
		 M796.899,766.066c-1.531,0-2.816,0.558-3.855,1.672s-1.682,2.676-1.928,4.686h11.115v-0.287c-0.109-1.928-0.629-3.421-1.559-4.48
		S798.485,766.066,796.899,766.066z"/>
</g>
<circle fill="#FFFFFF" stroke="#FF1D25" stroke-width="10" stroke-miterlimit="10" cx="479.742" cy="232.443" r="200.978"/>
<g>
	<path fill="#FF1D25" d="M414.56,353.12c-3.377-0.971-5.834-2.163-7.373-3.579c-1.537-1.414-2.307-3.161-2.307-5.239
		c0-2.352,0.939-4.296,2.82-5.835c1.879-1.537,4.323-2.307,7.331-2.307c2.051,0,3.879,0.396,5.485,1.189s2.852,1.887,3.732,3.281
		c0.883,1.395,1.323,2.919,1.323,4.573h-3.958c0-1.812-0.574-3.234-1.723-4.271c-1.148-1.035-2.769-1.554-4.86-1.554
		c-1.941,0-3.456,0.428-4.542,1.284c-1.088,0.856-1.631,2.044-1.631,3.564c0,1.219,0.516,2.25,1.549,3.092
		c1.031,0.843,2.789,1.613,5.27,2.312c2.482,0.698,4.423,1.468,5.824,2.31c1.401,0.84,2.441,1.821,3.117,2.942
		c0.678,1.121,1.016,2.44,1.016,3.958c0,2.42-0.943,4.357-2.83,5.814c-1.887,1.455-4.409,2.184-7.567,2.184
		c-2.051,0-3.965-0.394-5.742-1.18c-1.777-0.785-3.147-1.862-4.112-3.229c-0.963-1.367-1.445-2.919-1.445-4.655h3.958
		c0,1.805,0.667,3.23,1.999,4.275c1.334,1.047,3.114,1.569,5.343,1.569c2.078,0,3.671-0.424,4.778-1.271s1.661-2.003,1.661-3.466
		s-0.513-2.594-1.538-3.395C419.112,354.689,417.253,353.899,414.56,353.12z"/>
	<path fill="#FF1D25" d="M427.399,355.13c0-2.174,0.427-4.129,1.282-5.865c0.854-1.736,2.043-3.076,3.568-4.02
		c1.523-0.943,3.264-1.415,5.219-1.415c3.021,0,5.465,1.046,7.332,3.138c1.865,2.092,2.799,4.874,2.799,8.347v0.267
		c0,2.16-0.414,4.099-1.24,5.813c-0.828,1.717-2.01,3.053-3.549,4.01c-1.537,0.957-3.305,1.436-5.301,1.436
		c-3.008,0-5.445-1.046-7.311-3.138c-1.867-2.092-2.8-4.86-2.8-8.306V355.13z M431.214,355.581c0,2.461,0.57,4.437,1.712,5.927
		s2.67,2.235,4.584,2.235c1.928,0,3.459-0.755,4.594-2.267c1.135-1.51,1.702-3.626,1.702-6.347c0-2.434-0.578-4.405-1.733-5.917
		c-1.155-1.51-2.689-2.266-4.604-2.266c-1.873,0-3.384,0.745-4.532,2.235S431.214,352.806,431.214,355.581z"/>
	<path fill="#FF1D25" d="M459.577,363.743c1.354,0,2.536-0.41,3.548-1.23s1.572-1.846,1.682-3.076h3.589
		c-0.068,1.271-0.506,2.481-1.313,3.63s-1.884,2.064-3.23,2.748s-2.771,1.025-4.275,1.025c-3.021,0-5.424-1.008-7.209-3.025
		c-1.783-2.016-2.676-4.774-2.676-8.274v-0.636c0-2.16,0.396-4.081,1.189-5.763s1.931-2.987,3.414-3.917s3.237-1.395,5.261-1.395
		c2.488,0,4.556,0.745,6.204,2.235c1.646,1.49,2.525,3.425,2.635,5.804h-3.589c-0.109-1.436-0.653-2.615-1.63-3.537
		c-0.979-0.924-2.185-1.385-3.62-1.385c-1.928,0-3.422,0.694-4.481,2.082s-1.589,3.394-1.589,6.019v0.718
		c0,2.557,0.526,4.525,1.579,5.906S457.622,363.743,459.577,363.743z"/>
	<path fill="#FF1D25" d="M471.002,338.354c0-0.615,0.188-1.135,0.563-1.559s0.934-0.636,1.672-0.636s1.299,0.212,1.682,0.636
		s0.574,0.943,0.574,1.559s-0.191,1.128-0.574,1.538s-0.943,0.615-1.682,0.615s-1.296-0.205-1.672-0.615
		S471.002,338.97,471.002,338.354z M475.104,366.43h-3.794V344.24h3.794V366.43z"/>
	<path fill="#FF1D25" d="M488.702,366.84c-3.008,0-5.455-0.987-7.342-2.963s-2.83-4.618-2.83-7.927v-0.697
		c0-2.201,0.421-4.166,1.261-5.896c0.842-1.729,2.017-3.083,3.527-4.061s3.148-1.467,4.912-1.467c2.885,0,5.127,0.95,6.727,2.851
		s2.399,4.621,2.399,8.162v1.579h-15.032c0.055,2.188,0.693,3.955,1.918,5.301c1.223,1.348,2.778,2.021,4.665,2.021
		c1.34,0,2.475-0.273,3.404-0.82s1.743-1.271,2.44-2.174l2.317,1.805C495.21,365.411,492.421,366.84,488.702,366.84z
		 M488.23,346.947c-1.531,0-2.816,0.558-3.855,1.672s-1.682,2.676-1.928,4.686h11.115v-0.287c-0.109-1.928-0.629-3.421-1.559-4.48
		S489.816,346.947,488.23,346.947z"/>
	<path fill="#FF1D25" d="M499.142,355.15c0-3.404,0.807-6.143,2.42-8.213c1.613-2.072,3.726-3.107,6.337-3.107
		c2.598,0,4.655,0.889,6.173,2.666V334.93h3.794v31.5h-3.486l-0.185-2.379c-1.518,1.859-3.63,2.789-6.337,2.789
		c-2.57,0-4.666-1.053-6.285-3.158c-1.621-2.105-2.431-4.854-2.431-8.244V355.15z M502.936,355.581c0,2.516,0.52,4.484,1.559,5.906
		s2.475,2.133,4.307,2.133c2.406,0,4.163-1.08,5.271-3.24v-10.192c-1.135-2.092-2.878-3.138-5.229-3.138
		c-1.859,0-3.309,0.718-4.348,2.153S502.936,352.765,502.936,355.581z"/>
	<path fill="#FF1D25" d="M535.771,366.43c-0.219-0.438-0.396-1.217-0.533-2.338c-1.764,1.832-3.869,2.748-6.316,2.748
		c-2.188,0-3.982-0.618-5.383-1.855c-1.402-1.237-2.103-2.807-2.103-4.707c0-2.311,0.878-4.104,2.636-5.383
		c1.756-1.278,4.228-1.918,7.413-1.918h3.691v-1.743c0-1.326-0.396-2.382-1.189-3.169c-0.793-0.785-1.962-1.179-3.507-1.179
		c-1.354,0-2.488,0.342-3.404,1.025s-1.374,1.511-1.374,2.481h-3.814c0-1.107,0.393-2.177,1.179-3.209s1.853-1.85,3.199-2.451
		s2.827-0.902,4.44-0.902c2.557,0,4.56,0.64,6.009,1.918s2.201,3.038,2.256,5.28v10.213c0,2.037,0.26,3.657,0.779,4.86v0.328
		H535.771z M529.475,363.538c1.189,0,2.317-0.308,3.384-0.923s1.839-1.415,2.317-2.399v-4.553h-2.974
		c-4.648,0-6.973,1.36-6.973,4.081c0,1.189,0.396,2.119,1.189,2.789S528.23,363.538,529.475,363.538z"/>
	<path fill="#FF1D25" d="M542.314,355.15c0-3.404,0.807-6.143,2.42-8.213c1.613-2.072,3.726-3.107,6.337-3.107
		c2.598,0,4.655,0.889,6.173,2.666V334.93h3.794v31.5h-3.486l-0.185-2.379c-1.518,1.859-3.63,2.789-6.337,2.789
		c-2.57,0-4.666-1.053-6.285-3.158c-1.621-2.105-2.431-4.854-2.431-8.244V355.15z M546.108,355.581c0,2.516,0.52,4.484,1.559,5.906
		s2.475,2.133,4.307,2.133c2.406,0,4.163-1.08,5.271-3.24v-10.192c-1.135-2.092-2.878-3.138-5.229-3.138
		c-1.859,0-3.309,0.718-4.348,2.153S546.108,352.765,546.108,355.581z"/>
</g>
<g>
	<path fill="#FF1D25" d="M168.676,771.747h-12.94v10.582h15.032v3.22h-18.97v-29.859h18.765v3.22h-14.827v9.618h12.94V771.747z"/>
	<path fill="#FF1D25" d="M181.905,782.862c1.354,0,2.536-0.41,3.548-1.23s1.572-1.846,1.682-3.076h3.589
		c-0.068,1.271-0.506,2.481-1.313,3.63s-1.884,2.064-3.23,2.748s-2.771,1.025-4.275,1.025c-3.021,0-5.424-1.008-7.209-3.025
		c-1.783-2.016-2.676-4.774-2.676-8.274v-0.636c0-2.16,0.396-4.081,1.189-5.763s1.931-2.987,3.414-3.917s3.237-1.395,5.261-1.395
		c2.488,0,4.556,0.745,6.204,2.235c1.646,1.49,2.525,3.425,2.635,5.804h-3.589c-0.109-1.436-0.653-2.615-1.63-3.537
		c-0.979-0.924-2.185-1.385-3.62-1.385c-1.928,0-3.422,0.694-4.481,2.082s-1.589,3.394-1.589,6.019v0.718
		c0,2.557,0.526,4.525,1.579,5.906S179.95,782.862,181.905,782.862z"/>
	<path fill="#FF1D25" d="M192.304,774.249c0-2.174,0.427-4.129,1.282-5.865c0.854-1.736,2.043-3.076,3.568-4.02
		c1.523-0.943,3.264-1.415,5.219-1.415c3.021,0,5.465,1.046,7.332,3.138c1.865,2.092,2.799,4.874,2.799,8.347v0.267
		c0,2.16-0.414,4.099-1.24,5.813c-0.828,1.717-2.01,3.053-3.549,4.01c-1.537,0.957-3.305,1.436-5.301,1.436
		c-3.008,0-5.445-1.046-7.311-3.138c-1.867-2.092-2.8-4.86-2.8-8.306V774.249z M196.118,774.7c0,2.461,0.57,4.437,1.712,5.927
		s2.67,2.235,4.584,2.235c1.928,0,3.459-0.755,4.594-2.267c1.135-1.51,1.702-3.626,1.702-6.347c0-2.434-0.578-4.405-1.733-5.917
		c-1.155-1.51-2.689-2.266-4.604-2.266c-1.873,0-3.384,0.745-4.532,2.235S196.118,771.925,196.118,774.7z"/>
	<path fill="#FF1D25" d="M219.171,763.359l0.123,2.789c1.695-2.133,3.91-3.199,6.645-3.199c4.689,0,7.055,2.646,7.096,7.937v14.663
		h-3.794v-14.684c-0.014-1.6-0.379-2.782-1.098-3.548c-0.717-0.766-1.835-1.148-3.353-1.148c-1.23,0-2.311,0.328-3.24,0.984
		s-1.654,1.518-2.174,2.584v15.812h-3.794v-22.189H219.171z"/>
	<path fill="#FF1D25" d="M236.071,774.249c0-2.174,0.427-4.129,1.282-5.865c0.854-1.736,2.043-3.076,3.568-4.02
		c1.523-0.943,3.264-1.415,5.219-1.415c3.021,0,5.465,1.046,7.332,3.138c1.865,2.092,2.799,4.874,2.799,8.347v0.267
		c0,2.16-0.414,4.099-1.24,5.813c-0.828,1.717-2.01,3.053-3.549,4.01c-1.537,0.957-3.305,1.436-5.301,1.436
		c-3.008,0-5.445-1.046-7.311-3.138c-1.867-2.092-2.8-4.86-2.8-8.306V774.249z M239.886,774.7c0,2.461,0.57,4.437,1.712,5.927
		s2.67,2.235,4.584,2.235c1.928,0,3.459-0.755,4.594-2.267c1.135-1.51,1.702-3.626,1.702-6.347c0-2.434-0.578-4.405-1.733-5.917
		c-1.155-1.51-2.689-2.266-4.604-2.266c-1.873,0-3.384,0.745-4.532,2.235S239.886,771.925,239.886,774.7z"/>
	<path fill="#FF1D25" d="M262.917,763.359l0.103,2.461c1.627-1.914,3.821-2.871,6.583-2.871c3.104,0,5.216,1.189,6.337,3.568
		c0.738-1.066,1.698-1.928,2.882-2.584c1.182-0.656,2.58-0.984,4.193-0.984c4.867,0,7.342,2.577,7.424,7.731v14.868h-3.794v-14.643
		c0-1.586-0.362-2.771-1.087-3.559c-0.725-0.785-1.941-1.179-3.65-1.179c-1.408,0-2.577,0.421-3.507,1.261
		c-0.93,0.842-1.47,1.973-1.62,3.395v14.725h-3.814v-14.54c0-3.227-1.579-4.84-4.737-4.84c-2.488,0-4.19,1.06-5.106,3.179v16.201
		h-3.794v-22.189H262.917z"/>
	<path fill="#FF1D25" d="M298.644,754.069h4.594l-5.496,6.029l-3.056-0.011L298.644,754.069z M298.603,785.549h-3.814v-22.189h3.814
		V785.549z"/>
	<path fill="#FF1D25" d="M316.877,785.549c-0.219-0.438-0.396-1.217-0.533-2.338c-1.764,1.832-3.869,2.748-6.316,2.748
		c-2.188,0-3.982-0.618-5.383-1.855c-1.402-1.237-2.103-2.807-2.103-4.707c0-2.311,0.878-4.104,2.636-5.383
		c1.756-1.278,4.228-1.918,7.413-1.918h3.691v-1.743c0-1.326-0.396-2.382-1.189-3.169c-0.793-0.785-1.962-1.179-3.507-1.179
		c-1.354,0-2.488,0.342-3.404,1.025s-1.374,1.511-1.374,2.481h-3.814c0-1.107,0.393-2.177,1.179-3.209s1.853-1.85,3.199-2.451
		s2.827-0.902,4.44-0.902c2.557,0,4.56,0.64,6.009,1.918s2.201,3.038,2.256,5.28v10.213c0,2.037,0.26,3.657,0.779,4.86v0.328
		H316.877z M310.581,782.657c1.189,0,2.317-0.308,3.384-0.923s1.839-1.415,2.317-2.399v-4.553h-2.974
		c-4.648,0-6.973,1.36-6.973,4.081c0,1.189,0.396,2.119,1.189,2.789S309.337,782.657,310.581,782.657z"/>
</g>
<g>
	<g>
		<g>
			<path fill="#4D6B7D" d="M743.276,652.243c-0.087-1.115-0.377-2.309-0.475-3.498c-0.202-2.482,7.146-3.238,7.736-0.795
				c0.13,0.539,0.188,1.111,0.21,1.682c0.053,1.314,2.603,2.111,5.042,1.551c7.785-1.791,7.039,4.164,5.02,9.203
				c-0.583,1.453,1.911,2.434,4.69,1.994c2.519-0.396,4.776,0.201,5.95,2.551c0.878,1.76,0.255,3.549-0.994,5.258
				c-0.973,1.332,0.979,2.574,3.653,2.441c11.383-0.568,8.548,5.762,2.77,11.166c-1.315,1.23-0.292,2.727,2.238,2.906
				c1.526,0.107,2.563,0.615,3.452,1.932c1.323,1.959-0.034,4.891-0.713,6.926c-1.52,4.563-6.045,9.363-12.883,12.814
				c-17.251,8.707-40.674-0.172-49.814-7.203c-3.03-2.33-5.407-4.996-4.824-8.064c0.517-2.711,6.826-7.295,11.274-3.652
				c-3.547-2.229-8.42-6.098-8.563-9.168c-0.085-1.822,3.291-4.273,6.512-4.867c2.177-0.402,3.285-1.729,2.521-2.764
				c-1.33-1.807-2.622-3.656-2.056-5.691c1.162-4.174,10.571-4.598,12.371-0.793c-2.447-2.482-5.503-7.508-4.006-10.564
				c2.203-4.498,10.292-5.441,9.855-0.762"/>
		</g>
	</g>
	<g>
		<g>
			<path fill="#BDC832" d="M718.023,683.003c-0.032-0.58-0.17-1.203-0.206-1.822c-0.077-1.293,3.749-1.6,4.028-0.324
				c0.062,0.281,0.084,0.58,0.089,0.875c0.013,0.686,1.328,1.129,2.603,0.865c4.065-0.842,3.609,2.244,2.502,4.84
				c-0.319,0.748,0.965,1.287,2.413,1.09c1.313-0.178,2.48,0.158,3.063,1.395c0.437,0.924,0.092,1.846-0.577,2.719
				c-0.521,0.682,0.479,1.35,1.87,1.311c5.921-0.164,4.375,3.094,1.311,5.834c-0.698,0.623-0.184,1.414,1.129,1.535
				c0.793,0.074,1.325,0.35,1.771,1.043c0.665,1.035-0.074,2.541-0.449,3.59c-0.843,2.354-3.249,4.797-6.842,6.51
				c-9.063,4.326-21.13-0.557-25.798-4.314c-1.548-1.246-2.753-2.66-2.414-4.246c0.3-1.402,3.63-3.711,5.899-1.768
				c-1.816-1.199-4.304-3.266-4.343-4.861c-0.023-0.949,1.759-2.184,3.438-2.455c1.136-0.184,1.728-0.859,1.343-1.406
				c-0.671-0.953-1.32-1.93-1.003-2.98c0.651-2.156,5.545-2.268,6.437-0.27c-1.243-1.318-2.772-3.965-1.96-5.535
				c1.197-2.313,5.41-2.709,5.13-0.283"/>
		</g>
	</g>
</g>
<g>
	<path fill="#F1F1F1" d="M299.469,709.828c-0.022,0-0.044,0-0.066,0c-1.313,0-1.889-1.614-0.896-2.474
		c0.634-0.55,0.962-1.112,0.962-1.686c0-5.957-35.465-10.786-79.213-10.786s-79.213,4.829-79.213,10.786
		c0,4.937,24.361,9.099,57.608,10.379c-0.004,0.033-0.015,0.064-0.015,0.098c0,2.471,11.671,4.474,26.069,4.474
		c14.398,0,26.068-2.003,26.068-4.474c0-0.173-0.063-0.344-0.174-0.513c6.407-0.361,12.388-0.834,17.816-1.401
		c-0.369,0.332-0.569,0.673-0.569,1.023c0,2.997,14.157,5.427,31.622,5.427c17.465,0,31.622-2.43,31.622-5.427
		S316.934,709.828,299.469,709.828z"/>
	<g>
		<path fill="#BA7F79" d="M191.811,635.911c0,0,0.96,1.82,1.7,1.69c0,0,1.072-0.24-1.434-3.356l9.933-13.118
			c0.849-2.978,1.075-5.27-0.265-5.669c-0.582-0.175-1.223-0.003-1.698,0.375c-3.775,3.005-7.261,9.091-10.479,18.041
			c0,0-1.66,5.498,1.974,6.652c0.606,0.192,1.214-0.287,1.147-0.918C192.615,638.909,192.379,637.77,191.811,635.911z"/>
		<path fill="#BA7F79" d="M259.395,615.857h-5.442c-5.62,0-11.814-0.394-16.567-3.731c0,0-0.008,0-0.008-0.009
			c-1.549-1.084-2.74-2.562-4.225-3.724c-1.03-0.814-2.113-1.566-3.124-2.408c-1.271-1.057-2.551-2.112-3.822-3.169l-1.351-2.407
			l-1.316-2.346l-0.618-1.109c0.483-0.099,0.958-0.144,1.433-0.152c2.774-0.063,5.451,1.173,7.697,2.766
			c1.343,0.949,2.569,2.041,3.724,3.205c1.011,1.037,1.862,2.326,2.972,3.24c0.134,0.106,0.277,0.205,0.412,0.313
			c0.688,0.511,1.404,0.984,2.147,1.423c4.368,2.613,9.55,4.207,14.375,5.47c0,0,2.022-1.835,4.6-2.041
			c0.555-0.036,1.083,0.277,1.307,0.788c0.099,0.205,0.188,0.465,0.268,0.761C262.268,614.309,261.033,615.857,259.395,615.857z"/>
		<path fill="#CC534E" d="M241.306,607.748c-1.109,1.254-2.595,2.918-3.929,4.369c-1.549-1.084-2.74-2.562-4.225-3.724
			c-1.03-0.814-2.113-1.566-3.124-2.408c-1.271-1.057-2.551-2.112-3.822-3.169l-1.351-2.407l-1.316-2.346l0.815-1.262
			c2.774-0.063,5.451,1.173,7.697,2.766c1.343,0.949,2.569,2.041,3.724,3.205c1.011,1.037,1.862,2.326,2.972,3.24
			c0.134,0.106,0.277,0.205,0.412,0.313C239.847,606.836,240.563,607.31,241.306,607.748z"/>
		<g>
			<path fill="#382F3F" d="M213.796,587.546c-1.146,0.003-2.09,0.312-2.974,1.051c-0.43,0.358-0.945,0.854-0.662,1.467
				c0.227,0.489,0.875,0.52,1.202,0.788c-1.133,0.262-1.585,1.845-1.532,2.853c0.078,1.492,0.766,2.125,1.968,2.782
				c-1.147,1.686-1.411,3.88,0.403,5.177c1.357,0.97,4.691,2.244,4.776-0.654c0.545,1.358,3.135,0.615,3.958,0.057
				c0.979-0.665,2.193-3.316,1.215-4.378c0.725-0.142,0.855-1.43,0.806-1.996c-0.086-1.007-0.699-2.728-1.818-3.035
				c0.616,0.086,0.285-1.37,0.117-1.66c-0.343-0.596-0.926-0.994-1.542-1.255c-0.399-0.169-0.93-0.146-1.29-0.334
				c-0.628-0.328-1.009-0.907-1.752-1.104c-0.644-0.171-1.863-0.17-2.216,0.524c-0.078-0.255-0.183-0.08-0.297-0.102"/>
		</g>
		<path fill="#CC534E" d="M235.594,664.168c-1.385,0.44-2.777,0.79-4.146,1.067c-2.37,0.479-4.7,0.733-6.94,0.822
			c-3.421,0.146-6.622-0.081-9.4-0.472c-2.761-0.375-5.107-0.913-6.834-1.378c-2.052-0.554-3.242-1.01-3.242-1.01
			c0.301-27.793,7.16-41.306,8.398-43.514c0.123-0.221,0.188-0.325,0.188-0.325l11.437,0.317c0.334,0.236,0.651,0.48,0.96,0.741
			C238.754,631.097,235.594,664.168,235.594,664.168z"/>
		<path fill="#B06B64" d="M221.345,590.766c0.088,0.215,0.142,0.445,0.161,0.679c0.024,0.415,0.057,0.875,0.096,1.351
			c0.047,0.589,0.093,1.197,0.138,1.759c0,0.048,0.003,0.104,0.012,0.149c0.007,0.112,0.011,0.217,0.023,0.318
			c0.106,1.279-0.34,2.552-1.226,3.481l-0.384,0.408c-1.146,1.19-3.151,0.367-3.128-1.283l0.012-0.893l0.007-0.506l0.023-2.075
			l0.03-2.579c0.013-1.366,1.25-2.382,2.582-2.144C220.45,589.566,221.065,590.079,221.345,590.766z"/>
		<path fill="#CC534E" d="M212.371,596.519l-0.473,3.935l-0.326,2.745l-8.951,16.78l-0.611,1.148l-4.632-2.601
			C197.378,618.526,203.436,598.377,212.371,596.519z"/>
		<path fill="#BA7F79" d="M213.56,671.85c0,0,1.548,7.273-4.097,23.378c-0.473,1.335-0.815,2.736-1.295,4.057
			c-0.505,1.359-0.228,2.125,0.196,3.486c0.285,0.911,0.407,2.085-0.774,2.346l-0.545,0.122c-0.123,0.024-0.253,0.065-0.383,0.122
			c-0.53,0.22-1.092,0.66-1.417,1.043c-0.913,1.066-3.373,0.398-4.822,0.391c-0.082-0.008-0.164-0.008-0.245-0.017
			c-0.668-0.04-0.994-0.83-0.562-1.327l2.476-2.135c0.651-0.554,1.865-1.255,2.272-2.012c0.074-0.13,0.098-0.285,0.123-0.44
			c1.654-10.344,3.16-20.812,3.625-31.295c0.082-1.783,0.138-3.567,0.163-5.36c1.312,0.352,2.981,0.75,4.928,1.084
			c0.611,0.106,1.247,0.204,1.906,0.294C214.595,667.671,214.131,669.788,213.56,671.85z"/>
		<path fill="#CC534E" d="M228.132,610.187l-0.146,0.604c-0.831,3.103-3.039,5.507-2.166,8.984c0.057,0.22,0.122,0.431,0.195,0.644
			c-0.31-0.261-0.626-0.505-0.96-0.741l-11.437-0.317c0,0-0.065,0.104-0.188,0.325c-0.147-0.978-0.488-1.987-0.896-2.965
			c-0.48-1.156-1.067-2.264-1.571-3.25c-0.913-1.784-1.614-3.901-1.614-5.89c0-1.034,0.179-2.027,0.628-2.916
			c1.271-2.582,0.733-6.451,1.703-7.999c0.488-0.146,1.001-0.276,1.522-0.383c0.619-0.138,1.263-0.244,1.906-0.334
			c1.718-0.236,3.486-0.317,5.091-0.325c0.652,0,1.955,0.252,3.299,0.562c0.635,0.146,1.279,0.31,1.857,0.465
			c0.937,0.245,1.727,0.472,2.102,0.586l-0.13,2.981C226.993,603.671,228.825,606.692,228.132,610.187z"/>
		<path fill="#EDB93C" d="M231.63,660.29c0,0-16.773,4.241-23.249-0.271c0,0,0.133-20.238,5.095-40.274l-0.896-2.965l-1.938-6.387
			l2.167-8.708c0.171-1.914,0.342-4.007,0.44-5.343c0.62-0.14,1.263-0.244,1.906-0.334l-0.31,5.677h8.251
			c0.171-1.954,0.358-4.113,0.448-5.44c0.636,0.146,1.279,0.31,1.856,0.464l-0.268,4.977l3.046,8.562l-0.146,0.603l-1.955,8.333
			C226.078,619.183,234.254,643.613,231.63,660.29z"/>
		<path fill="#BA7F79" d="M233.818,707.201c-0.081,0.024-0.163,0.049-0.236,0.073c-1.499,0.366-4.196,0.432-5.254-0.709
			c-0.277-0.301-0.619-0.537-0.994-0.677c-0.236-0.089-0.489-0.129-0.741-0.129l-0.31,0.016c-1.45,0.024-1.295-1.49-1.116-2.509
			c0.294-1.718,0.147-3.299,0.025-5.025c-0.098-1.475-0.212-2.957-0.326-4.432c-0.228-3.063-0.472-6.117-0.685-9.18
			c-0.081-1.157-0.146-13.13,0.921-14.979c0,0-0.228-1.377-0.595-3.593c0.676-0.024,1.369-0.073,2.061-0.13
			c1.597-0.131,3.225-0.358,4.879-0.692c-0.024,0.546-0.04,1.075-0.04,1.612c-1.01,11.24-2.012,22.49-2.981,33.739
			c-0.106,1.296,1.621,2.102,2.525,2.794c0,0.009,3.095,2.395,3.095,2.395C234.592,706.158,234.454,707.006,233.818,707.201z"/>
		<path fill="#382F3F" d="M200.175,706.779c0.085,0.007,0.163,0.007,0.248,0.014c1.452,0.007,3.912,0.677,4.822-0.389
			c0.409-0.485,1.177-1.043,1.798-1.17l0.55-0.12c1.431-0.317,1.051-1.818,0.444-3.235c-4.527,2.39-5.689,2.009-5.943,1.438
			l-2.475,2.13C199.182,705.947,199.506,706.736,200.175,706.779z"/>
		<path fill="#382F3F" d="M226.283,705.777l0.31-0.014c0.669-0.015,1.283,0.31,1.734,0.804c1.058,1.142,3.758,1.071,5.253,0.704
			c0.078-0.021,0.155-0.049,0.24-0.069c0.634-0.198,0.768-1.044,0.225-1.425l-3.095-2.39c-0.198,0.585-1.212,1.078-5.57-1.164
			C225.014,703.915,224.563,705.805,226.283,705.777z"/>
		<g>
			<g>
				<path fill="#EDB93C" d="M256.085,607.726c0,0.098,2.648,13.009,2.648,13.009l2.648-13.289L256.085,607.726z"/>
				<circle fill="#DE612A" cx="258.734" cy="605.523" r="3.375"/>
				<path fill="#DE612A" d="M260.982,609.7h-4.496c-0.62,0-1.127-0.508-1.127-1.127l0,0c0-0.62,0.507-1.128,1.127-1.128h4.496
					c0.62,0,1.127,0.508,1.127,1.128l0,0C262.109,609.192,261.602,609.7,260.982,609.7z"/>
			</g>
			<g>
				<path fill="#BA7F79" d="M259.112,610.64c1.352,0.022,2.631,0.974,2.746,2.379c0.146,1.782-1.485,2.469-3.019,2.397
					c-1.432-0.065-2.816-0.885-2.518-2.602C256.701,610.64,259.112,610.64,259.112,610.64z"/>
			</g>
		</g>
		<g>
			<g>
				<g>
					<path fill="#BA7F79" d="M221.086,593.342c-0.953,0.245-2.003,0.033-3.021-0.48c-1.637-0.822-3.202-2.403-4.187-4.089
						c-1.132-0.229-2.362-0.627-2.843-2.183c-0.383-1.223-0.179-2.892,0.856-3.063c0.31-0.059,0.667,0.032,1.034,0.211
						c0.497-3.608,2.819-7.771,5.393-8.194c0.008,0,0.008,0,0.016,0c3.373-0.554,6.435,0.904,7.632,9.637
						C226.446,588.65,224.37,592.495,221.086,593.342z"/>
					<g>
						<g>
							<g>
								<path fill="#382F3F" d="M222.727,587.395c0.016,0.001,0.032-0.001,0.047-0.004c0.39-0.092,0.911-0.254,0.929-0.633
									c0.024-0.524-1.049-0.941-1.511-1.096c-0.098-0.031-0.203,0.021-0.236,0.118c-0.033,0.098,0.02,0.203,0.117,0.236
									c0.654,0.218,1.265,0.57,1.257,0.724c0,0.002-0.034,0.146-0.64,0.286c-0.101,0.023-0.163,0.123-0.14,0.224
									C222.57,587.334,222.644,587.392,222.727,587.395z"/>
							</g>
						</g>
						<g>
							<g>
								<path fill="#382F3F" d="M222.521,589.668c0.21-0.016,0.34-0.041,0.345-0.042c0.115-0.024,0.189-0.136,0.165-0.25
									c-0.023-0.115-0.125-0.192-0.25-0.166c-0.104,0.022-2.606,0.498-3.414-1.909c-0.037-0.109-0.154-0.171-0.268-0.133
									c-0.111,0.037-0.17,0.157-0.134,0.268C219.703,589.634,221.71,589.726,222.521,589.668z"/>
							</g>
						</g>
						
							<ellipse transform="matrix(-0.9998 0.0212 -0.0212 -0.9998 451.1958 1164.6073)" fill="#382F3F" cx="219.423" cy="584.696" rx="0.622" ry="0.684"/>
						
							<ellipse transform="matrix(-0.9998 0.0212 -0.0212 -0.9998 459.7496 1164.1592)" fill="#382F3F" cx="223.703" cy="584.517" rx="0.622" ry="0.684"/>
						<g>
							<g>
								<path fill="#382F3F" d="M217.257,583.446c0.081,0.002,0.159-0.042,0.197-0.119c0.595-1.208,1.707-0.749,1.754-0.729
									c0.106,0.046,0.23-0.005,0.278-0.112c0.046-0.106-0.003-0.232-0.112-0.277c-0.525-0.227-1.685-0.321-2.302,0.932
									c-0.051,0.104-0.009,0.232,0.097,0.283C217.198,583.438,217.228,583.445,217.257,583.446z"/>
							</g>
						</g>
						<g>
							<g>
								<path fill="#382F3F" d="M222.968,582.301c0.05,0.045,0.123,0.061,0.189,0.032c1.043-0.44,1.496,0.461,1.515,0.5
									c0.043,0.088,0.15,0.124,0.239,0.082c0.088-0.043,0.125-0.149,0.082-0.237c-0.21-0.434-0.895-1.13-1.974-0.674
									c-0.09,0.039-0.133,0.144-0.095,0.234C222.935,582.263,222.949,582.284,222.968,582.301z"/>
							</g>
						</g>
					</g>
				</g>
			</g>
		</g>
		<g>
			<path fill="#382F3F" d="M225.43,578.127c0.434,3.148-2.093,2.955-2.946,1.216c0.457,1.21-2.799,2.622-2.96,0.273
				c1.011,1.053-2.19,3.183-2.795,2.688c0.713,0.598-0.82,2.37-1.236,2.655c-0.358,0.248-1.801,1.096-1.536-0.231
				c0.216,1.03-1.297,0.711-1.603,0.531c-0.026-0.027,0.18,0.098,0.147,0.083c-0.435,1.018-1.212,0.141-1.404-0.53
				c-0.154-0.537-0.555-4.028,0.237-3.445c0.098-1.472,0.521-2.956,1.394-3.971c0.447-0.52,1.22-1.048,1.579-0.258
				c0.324-1.764,1.734-3.639,2.883-3.985c0.699-0.21,2.074,0.188,1.985,1.604c0.55-1.669,1.6-2.195,2.736-1.879
				c0.704,0.195,2.294,1.669,1.856,3.094c-0.182-0.445,0.267-0.631,0.547-0.578c0.542,0.104,1.098,1.395,1.316,2.061
				c0.344,1.045,0.286,1.838-0.514,2.311"/>
		</g>
	</g>
	<g>
		<rect x="165.065" y="636.379" fill="#CC534E" width="116.171" height="51.07"/>
		<path fill="#E4E4E4" d="M247.255,677.822h-45.099c-9.234,0-16.721-7.486-16.721-16.721l0,0c0-9.235,7.486-16.721,16.721-16.721
			h45.099c9.235,0,16.72,7.485,16.72,16.721l0,0C263.976,670.336,256.49,677.822,247.255,677.822z"/>
		<rect x="173.764" y="566.883" fill="#CF6A6A" width="6.173" height="69.496"/>
		<rect x="265.64" y="566.883" fill="#CF6A6A" width="6.174" height="69.496"/>
		<path fill="#A052B6" d="M285.088,638.131H161.213l0,0c0-3.615,2.931-6.545,6.545-6.545h110.785
			C282.158,631.586,285.088,634.516,285.088,638.131L285.088,638.131z"/>
		<g>
			<g>
				<g>
					
						<rect x="170.235" y="660.38" transform="matrix(0.9869 -0.1615 0.1615 0.9869 -108.33 36.6111)" fill="#382F3F" width="1.566" height="48.458"/>
				</g>
				<g>
					
						<rect x="170.236" y="660.38" transform="matrix(0.8127 0.5827 -0.5827 0.8127 430.9896 28.5969)" fill="#382F3F" width="1.565" height="48.458"/>
				</g>
				<g>
					
						<rect x="146.79" y="683.827" transform="matrix(0.9868 -0.1617 0.1617 0.9868 -108.4318 36.655)" fill="#382F3F" width="48.456" height="1.565"/>
				</g>
				<g>
					
						<rect x="146.789" y="683.826" transform="matrix(0.8121 0.5835 -0.5835 0.8121 431.5876 28.8344)" fill="#382F3F" width="48.458" height="1.566"/>
				</g>
			</g>
			<circle fill="#382F3F" cx="170.953" cy="684.186" r="4.926"/>
			<g>
				<path fill="#382F3F" d="M170.792,710.543c-10.25,0-19.961-6.154-23.977-16.24c-5.255-13.204,1.211-28.222,14.414-33.477
					c13.204-5.256,28.221,1.211,33.476,14.414s-1.211,28.221-14.414,33.476C177.177,709.955,173.957,710.543,170.792,710.543z
					 M170.765,662.902c-2.734,0-5.47,0.52-8.087,1.561c-5.424,2.159-9.683,6.302-11.992,11.664
					c-2.309,5.361-2.392,11.304-0.232,16.728c2.159,5.423,6.301,9.683,11.663,11.991c5.362,2.309,11.302,2.393,16.727,0.232
					c5.424-2.159,9.683-6.301,11.992-11.663c2.309-5.362,2.392-11.303,0.231-16.727c-2.158-5.425-6.3-9.684-11.663-11.993
					C176.629,663.5,173.698,662.902,170.765,662.902z"/>
			</g>
		</g>
		<g>
			<g>
				<g>
					
						<rect x="273.29" y="660.38" transform="matrix(0.9869 -0.1615 0.1615 0.9869 -106.9768 53.2561)" fill="#382F3F" width="1.566" height="48.458"/>
				</g>
				<g>
					
						<rect x="273.291" y="660.38" transform="matrix(0.8126 0.5829 -0.5829 0.8126 450.4264 -31.4253)" fill="#382F3F" width="1.565" height="48.457"/>
				</g>
				<g>
					
						<rect x="249.845" y="683.827" transform="matrix(0.9868 -0.1617 0.1617 0.9868 -107.076 53.3159)" fill="#382F3F" width="48.456" height="1.565"/>
				</g>
				<g>
					
						<rect x="249.844" y="683.826" transform="matrix(0.8121 0.5835 -0.5835 0.8121 450.9532 -31.2953)" fill="#382F3F" width="48.458" height="1.566"/>
				</g>
			</g>
			<circle fill="#382F3F" cx="274.008" cy="684.186" r="4.925"/>
			<g>
				<path fill="#382F3F" d="M273.847,710.543c-10.25,0-19.96-6.154-23.976-16.24c-5.255-13.204,1.211-28.222,14.414-33.477
					c13.205-5.256,28.221,1.211,33.476,14.414s-1.211,28.221-14.415,33.476C280.231,709.955,277.012,710.543,273.847,710.543z
					 M273.819,662.902c-2.734,0-5.47,0.52-8.087,1.561c-5.423,2.159-9.683,6.302-11.991,11.664
					c-2.31,5.361-2.393,11.304-0.232,16.728c2.159,5.423,6.3,9.683,11.663,11.991s11.303,2.393,16.727,0.232
					c5.424-2.159,9.683-6.301,11.991-11.663c2.311-5.362,2.393-11.303,0.233-16.727c-2.159-5.425-6.3-9.684-11.663-11.993
					C279.684,663.5,276.753,662.902,273.819,662.902z"/>
			</g>
		</g>
		<g>
			<polygon fill="#CC534E" points="282.705,553.169 290.865,575.294 157.055,575.294 165.215,553.169 			"/>
			<g>
				<polygon fill="#E4E4E4" points="175.746,553.169 169.049,575.294 159.892,575.294 167.706,553.169 				"/>
				<polygon fill="#E4E4E4" points="188.807,553.169 183.925,575.294 174.768,575.294 180.769,553.169 				"/>
				<polygon fill="#E4E4E4" points="201.86,553.169 198.791,575.294 189.635,575.294 193.822,553.169 				"/>
				<polygon fill="#E4E4E4" points="214.922,553.169 213.667,575.294 204.511,575.294 206.883,553.169 				"/>
				<polygon fill="#E4E4E4" points="227.975,553.169 228.534,575.294 219.387,575.294 219.944,553.169 				"/>
				<polygon fill="#E4E4E4" points="241.037,553.169 243.41,575.294 234.253,575.294 232.998,553.169 				"/>
				<polygon fill="#E4E4E4" points="254.099,553.169 258.285,575.294 249.128,575.294 246.059,553.169 				"/>
				<polygon fill="#E4E4E4" points="267.152,553.169 273.152,575.294 263.996,575.294 259.112,553.169 				"/>
				<polygon fill="#E4E4E4" points="280.213,553.169 288.027,575.294 278.872,575.294 272.173,553.169 				"/>
			</g>
		</g>
		<g>
			<g>
				<g>
					<path fill="#EDB93C" d="M245.52,655.443c0,0.149-4.032,19.806-4.032,19.806l-4.032-20.231L245.52,655.443z"/>
					<circle fill="#CC534E" cx="241.487" cy="652.092" r="5.139"/>
					<path fill="#CC534E" d="M238.065,658.449h6.845c0.944,0,1.716-0.771,1.716-1.715l0,0c0-0.944-0.771-1.717-1.716-1.717h-6.845
						c-0.944,0-1.717,0.772-1.717,1.717l0,0C236.349,657.678,237.122,658.449,238.065,658.449z"/>
				</g>
			</g>
			<g>
				<g>
					<path fill="#EDB93C" d="M228.174,655.443c0,0.149-4.032,19.806-4.032,19.806l-4.032-20.231L228.174,655.443z"/>
					<circle fill="#B8DE8B" cx="223.554" cy="651.504" r="5.139"/>
					<path fill="#B8DE8B" d="M220.132,657.862h6.845c0.944,0,1.716-0.771,1.716-1.716l0,0c0-0.944-0.772-1.716-1.716-1.716h-6.845
						c-0.944,0-1.717,0.771-1.717,1.716l0,0C218.416,657.091,219.188,657.862,220.132,657.862z"/>
				</g>
			</g>
			<g>
				<g>
					<path fill="#EDB93C" d="M210.827,655.443c0,0.149-4.032,19.806-4.032,19.806l-4.031-20.231L210.827,655.443z"/>
					<circle fill="#A052B6" cx="206.795" cy="652.092" r="5.139"/>
					<path fill="#A052B6" d="M203.373,658.449h6.845c0.944,0,1.716-0.771,1.716-1.715l0,0c0-0.944-0.772-1.717-1.716-1.717h-6.845
						c-0.944,0-1.716,0.772-1.716,1.717l0,0C201.657,657.678,202.429,658.449,203.373,658.449z"/>
				</g>
			</g>
		</g>
	</g>
	<g>
		<path fill="#E8BFB1" d="M251.856,633.774c-4.789,4.708-9.881,8.432-15.404,10.293c-0.009,0-0.018,0.009-0.026,0.009
			c-1.997,0.672-4.055,1.091-6.176,1.244c-0.089,0.009-0.169,0.009-0.26,0.019c-0.545,0.035-1.1,0-1.638-0.09
			c-1.252-0.225-2.426-0.815-3.321-1.764c-1.146-1.218-1.324-2.39-0.429-3.491c0.483-0.6,1.146-0.983,1.871-1.145
			c0.232-0.055,0.475-0.09,0.725-0.09c0.385-0.027,0.789,0.018,1.173,0.116c2.264,0.563,4.619,0.68,7.053,0.286h0.009
			c0.34-0.054,0.68-0.126,1.02-0.197c4.306-0.912,8.87-3.374,13.721-7.536c0.054-1.951,0.287-2.336,0.833-2.56
			c0.357-0.152,0.733,0.152,0.68,0.528l-0.224,1.593c1.629-1.978,1.925-2.076,3.034-1.405c0.386,0.224,0.627,0.662,0.663,1.101
			C255.445,633.675,251.856,633.774,251.856,633.774z"/>
		<path fill="#E8BFB1" d="M211.105,712.135c0.036,0.367,0.196,0.708,0.447,0.976C211.149,712.834,211.078,712.565,211.105,712.135z"
			/>
		<path fill="#E8BFB1" d="M220.305,714.829c-0.188,0.071-0.564,0.037-0.876,0C219.777,714.848,220.064,714.848,220.305,714.829z"/>
		<path fill="#E8BFB1" d="M221.103,713.765c0.053,0.144,0.044,0.277-0.027,0.402C221.12,714.033,221.12,713.891,221.103,713.765z"/>
		<path fill="#4D6B7D" d="M229.534,658.907c-0.027,0.251-0.036,0.519-0.044,0.796c-1.173,1.504-3.097,2.613-5.917,2.613
			c-2.148,0-4.806-0.644-8.046-2.246c0.027-0.697-0.026-2.811-0.098-3.615c-0.188-1.87-0.555-4.556-0.717-6.346
			c-0.151-1.79-0.402-3.58-0.393-5.049c0.009-2.944,1.387-4.449,3.759-5.701c0.42-0.224,0.832-0.224,1.271-0.323
			c0.098-0.025,0.188-0.034,0.313-0.034c1.665-0.072,3.822-0.422,5.389-0.413c0.501,0,0.939-0.026,1.342,0.009
			c0.277,0.019,0.537,0.063,0.805,0.162c0.152,0.053,0.304,0.125,0.466,0.214c1.62,0.949,2.345,3.419,2.586,6.347
			c0.027,0.214,0.044,0.438,0.054,0.662C230.598,650.807,229.749,656.616,229.534,658.907z"/>
		<path fill="#E8BFB1" d="M230.25,713.971c-0.77-0.179-0.994-0.52-1.092-0.984C229.354,713.451,229.749,713.818,230.25,713.971z"/>
		<path fill="#E8BFB1" d="M239.29,712.933c0.018-0.135,0.009-0.27-0.027-0.394C239.343,712.673,239.343,712.807,239.29,712.933z"/>
		<path fill="#E3AAA9" d="M220.352,639.354c0.209-1.541-0.05-3.5-0.735-4.781l5.022-0.371l0.716,4.473
			c0.621,1.779,0.098,2.911-0.854,3.488C222.553,643.344,220.045,641.611,220.352,639.354z"/>
		<path fill="#382F3F" d="M221.075,714.167c-0.125,0.269-0.483,0.483-0.716,0.636c-0.019,0.009-0.036,0.018-0.054,0.026
			c-0.241,0.019-0.528,0.019-0.876,0c-0.019,0-0.036,0-0.054-0.009c-0.063-0.009-0.125-0.009-0.179-0.018
			c-0.528-0.054-1.262-0.144-2.058-0.26c-0.162-0.018-0.323-0.044-0.483-0.071c-1.209-0.18-2.497-0.403-3.384-0.636
			c-0.018-0.009-0.027-0.009-0.036-0.009c-0.287-0.071-0.528-0.151-0.707-0.224c-0.439-0.179-0.743-0.331-0.958-0.475
			c0,0-0.009-0.009-0.018-0.019c-0.251-0.268-0.412-0.608-0.447-0.976c0-0.215,0.036-0.474,0.071-0.805
			c0-0.045,0.018-0.081,0.036-0.125l0.581-2.301c0.914,0.125,2.13,0.296,3.071,0.439c-0.01,0.018,0,0.035,0.018,0.098
			c0,0.009,0.008,0.018,0.018,0.027c0,0.026,0.026,0.071,0.062,0.116c0.609,0.743,5.487,3.525,5.765,3.643
			c0.224,0.09,0.34,0.296,0.376,0.528c0,0,0,0,0,0.009C221.12,713.891,221.12,714.033,221.075,714.167z"/>
		<path fill="#382F3F" d="M211.176,711.33c-0.036,0.331-0.071,0.59-0.071,0.805C211.051,711.877,211.078,711.599,211.176,711.33z"/>
		<path fill="#382F3F" d="M212.528,713.604c0.179,0.072,0.42,0.152,0.707,0.224c-0.412-0.089-0.716-0.16-0.868-0.206
			c-0.313-0.089-0.582-0.269-0.797-0.492C211.785,713.272,212.089,713.425,212.528,713.604z"/>
		<path fill="#382F3F" d="M214.864,709.344c0.026,0,0.044,0.009,0.071,0.009l-0.026,0.089c0,0.009-0.009,0.018-0.009,0.027
			c-0.01-0.01-0.018-0.019-0.018-0.027C214.864,709.379,214.854,709.361,214.864,709.344z"/>
		<path fill="#382F3F" d="M219.196,714.803c0.054,0.009,0.117,0.009,0.179,0.018h-0.071c-0.627-0.054-1.387-0.152-2.166-0.277
			C217.934,714.659,218.668,714.749,219.196,714.803z"/>
		<path fill="#382F3F" d="M221.075,714.167c-0.072,0.332-0.295,0.627-0.626,0.653c-0.045,0.009-0.089,0.009-0.144,0.009
			c0.019-0.009,0.036-0.018,0.054-0.026C220.592,714.65,220.95,714.436,221.075,714.167z"/>
		<path fill="#382F3F" d="M239.29,712.933c0,0,0,0.009,0,0.018c-0.099,0.251-0.358,0.492-0.538,0.688
			c-0.018,0.02-0.036,0.028-0.044,0.045c-0.152,0.17-0.779,0.17-1.137,0.216c-1.673,0.224-5.504,0.304-6.757,0.169h-0.026
			c-0.107-0.018-0.215-0.026-0.305-0.044c-0.08-0.019-0.161-0.036-0.232-0.054c-0.501-0.152-0.895-0.52-1.092-0.984
			c-0.063-0.277-0.08-0.601-0.143-0.949c0.009-0.035,0.009-0.071,0.017-0.107l0.108-2.371h3.231c0.618,0.59,6.095,2.39,6.39,2.443
			c0.269,0.053,0.439,0.276,0.502,0.537C239.299,712.663,239.308,712.798,239.29,712.933z"/>
		<path fill="#382F3F" d="M229.015,712.037c0.063,0.349,0.08,0.672,0.143,0.949C229.023,712.7,228.97,712.368,229.015,712.037z"/>
		<path fill="#382F3F" d="M230.482,714.024c0.09,0.018,0.198,0.026,0.305,0.044c-0.054,0-0.099-0.009-0.135-0.009
			C230.598,714.051,230.536,714.051,230.482,714.024z"/>
		<path fill="#382F3F" d="M239.29,712.95c-0.036,0.304-0.197,0.582-0.483,0.671c-0.018,0.009-0.036,0.009-0.054,0.018
			C238.932,713.442,239.191,713.201,239.29,712.95z"/>
		<path fill="#3B3B68" d="M232.255,709.495c2.882-5.37,1.575-20.371-0.135-31.944c-0.725-4.913-2.694-15.663-2.631-17.848
			c-2.059,2.642-6.472,4.073-13.963,0.367c-1.208,2.748-1.987,3.169-2.175,9.685c-0.089,3.159,1.531,6.417,1.969,9.005
			c0.169,0.957,0.313,1.808,0.385,2.515c0.939,8.217-2.354,21.472-3.544,25.975c-0.144,0.528-0.241,0.93-0.332,1.226
			c0.009-0.063,0.019-0.089,0.019-0.106c-0.027,0-0.493,1.905-0.045,0.214c0,0.036-0.009,0.081-0.018,0.125
			c-0.331,1.558-0.528,1.504-0.591,2.363c-0.009,0.09-0.018,0.179-0.018,0.26c0-0.045,0.018-0.081,0.036-0.125l0.581-2.301
			c0.914,0.125,2.13,0.296,3.071,0.439v-0.009c9.926-12.187,8.583-38.702,8.583-38.702l2.631,9.604
			c0.007-0.001,0.013-0.001,0.019-0.003c2.153,9.396,2.884,19.605,2.997,28.778c0,0.009,0,0.009,0,0.018c0,0,0,0,0,0.01v0.054
			c0.019,0.242-0.071,0.08-0.009,0.537c0.045,0.465-0.215,1.673-0.089,2.3c0.009,0.036,0.018,0.072,0.018,0.107
			c0.009-0.035,0.009-0.071,0.017-0.107l0.108-2.371h3.16C232.246,709.521,232.219,709.513,232.255,709.495z"/>
		<path fill="#E8BFB1" d="M219.409,644.281c-0.526-2.21-3.298-2.949-4.848-1.294l-0.32,0.342c-0.341,0.355-0.511,0.817-0.697,1.271
			c-0.717,1.728-1.321,3.447-1.819,5.146c-2.125,7.328-2.217,14.414-0.768,21.337c-2.153,2.545-2.295,4.059-1.912,4.933
			c0.434,0.974,1.791,1.102,2.48,0.291c0.995-1.158,1.4-3.057,1.4-3.057c0.568,1.764,1.428,1.323,1.428,1.323
			c0.91-1.465-1.002-2.616-1.002-2.616c0.171-6.766,0.917-13.227,3.198-19.688c0.733-2.074,1.628-4.156,2.715-6.254
			c0.164-0.313,0.228-0.661,0.228-1.017C219.494,644.758,219.466,644.516,219.409,644.281z"/>
		<g>
			<g>
				<path fill="#EBD43B" d="M251.183,627.259c0,0.077,2.102,10.329,2.102,10.329l2.103-10.553L251.183,627.259z"/>
				<circle fill="#F7E4D5" cx="253.285" cy="625.51" r="2.68"/>
				<path fill="#F7E4D5" d="M255.071,628.826H251.5c-0.492,0-0.895-0.402-0.895-0.895l0,0c0-0.492,0.403-0.896,0.895-0.896h3.571
					c0.492,0,0.895,0.404,0.895,0.896l0,0C255.966,628.424,255.563,628.826,255.071,628.826z"/>
			</g>
			<g>
				<path fill="#E8BFB1" d="M253.585,629.326c1.074,0.019,2.089,0.773,2.181,1.889c0.116,1.415-1.179,1.96-2.396,1.904
					c-1.137-0.053-2.237-0.703-1.999-2.066C251.67,629.326,253.585,629.326,253.585,629.326z"/>
			</g>
		</g>
		<g>
			<g>
				<path fill="#E8BFB1" d="M218.351,632.657c-0.981-2.388-1.123-5.074-0.221-7.494c0.583-1.568,1.476-2.828,2.599-3.259
					c2.66-1.019,6.798-0.014,8.615,7.228c0.001,0.001,0.37-0.365,0.663-0.219c0.508,0.256,0.937,1.152-0.108,1.68
					c0.453,3.974-1.23,5.394-3.65,6.228c-1.301,0.449-3.105,0.328-4.778-0.672c-1.426-0.854-2.382-1.695-3.014-3.234
					L218.351,632.657z"/>
				<g>
					<path fill="#382F3F" d="M227.037,631.383c0.676,0.398,1.433,0.345,1.445,0.345c0.079-0.007,0.136-0.075,0.13-0.153
						c-0.006-0.079-0.075-0.139-0.153-0.131c-0.073,0.006-1.781,0.121-2.122-1.557c-0.016-0.077-0.091-0.126-0.169-0.11
						c-0.077,0.016-0.126,0.091-0.111,0.168C226.21,630.692,226.607,631.128,227.037,631.383z"/>
				</g>
				<g>
					<path fill="#382F3F" d="M225.874,628.01c0.039-0.03,0.063-0.076,0.063-0.129c-0.002-1.014,0.909-1.082,0.948-1.085
						c0.09-0.005,0.156-0.081,0.15-0.169c-0.004-0.089-0.08-0.156-0.168-0.151c-0.435,0.023-1.253,0.348-1.252,1.406
						c0.001,0.089,0.073,0.161,0.162,0.161C225.813,628.043,225.847,628.029,225.874,628.01z"/>
				</g>
				<g>
					
						<ellipse transform="matrix(-0.945 0.3272 -0.3272 -0.945 647.8938 1147.9031)" fill="#382F3F" cx="227.386" cy="628.452" rx="0.566" ry="0.665"/>
				</g>
			</g>
		</g>
		<path fill="#4D6B7D" d="M218.075,639.358c0,0-5.597,2.964-7.44,10.915l5.813,3.93l4.625-10.049L218.075,639.358z"/>
		<path fill="#4D6B7D" d="M236.819,645.356l-6.515,0.626l-1.692,0.161l-0.259-0.895l-1.879-6.399l-0.081-0.252
			c0.277,0.019,0.537,0.063,0.805,0.162c0.385-0.027,0.789,0.018,1.173,0.116c2.264,0.563,4.619,0.68,7.053,0.286h0.009
			c-0.144,0.807,0.537,3.348,0.994,4.914C236.649,644.828,236.819,645.356,236.819,645.356z"/>
		<g>
			<path fill="#382F3F" d="M229.276,621.952c-1.467-1.668-3.501-1.664-5.581-1.242c-1.694,0.344-3.475,1.146-4.816,2.251
				c-1.335,1.099-1.983,2.375-2.452,4.005c-0.453,1.576-2.1,3.817,1.482,8.405c2.506,3.209,5.993,0.454,6.068,0.158
				c0.132-0.516-0.127-2.001,0.32-2.342c-1.07,0.878-2.436-0.319-2.247-1.535c0.074-0.478,0.33-1.064,0.744-1.337
				c0.545-0.358,0.947,0.01,1.484,0.024c-0.57-0.695-0.415-1.998-0.069-2.748c0.303-0.657,0.754-1.228,1.077-1.877
				c0.203-0.408,0.219-0.879,0.435-1.267c0.514,0.117,0.421,1.049,0.438,1.456c0.262-0.193,0.604-0.57,0.905-1.007
				c0.773,0.318,2.147,0.759,2.292,1.711c0.369-0.753,0.869-1.267,0.822-2.18C230.134,623.563,229.858,622.614,229.276,621.952z"/>
		</g>
		<path fill="#4D6B7D" d="M228.191,621.063l-5.047,4.556l-4.127,3.724l-2.89,2.605c-2.131-3.921-1.576-7-0.645-8.978
			c0.34-0.725,0.787-1.396,1.333-1.979c0.475-0.528,1.039-0.993,1.647-1.378c0.447-0.286,0.931-0.519,1.441-0.708
			C224.584,617.18,228.191,621.063,228.191,621.063z"/>
		<path fill="#82B389" d="M223.144,625.619l-4.127,3.724c-2.058-2.989-2.336-6.185-2.202-8.351c0.475-0.528,1.039-0.993,1.647-1.378
			C219.42,621.763,221.818,624.313,223.144,625.619z"/>
		<path fill="#82B389" d="M216.123,631.946c0,0,12.166-14.689,14.242-13.481c0,0,0.806,1.05-1.089,3.487
			C228.38,620.847,222.635,625.91,216.123,631.946z"/>
	</g>
	<g>
		<g>
			<path fill="#E8BFB1" d="M292.931,608.688c-1.624,8.526-6.496,24.756-20.483,30.615c0,0-4.392,0.088-3.448,4.252
				c0,0,0.68,2.646,3.537,0.406l2.447-2.525c14.394-6.224,25.166-15.077,24.506-32.233c-0.039-0.993-0.522-1.922-1.315-2.521l0,0
				C296.221,605.204,293.39,606.282,292.931,608.688z"/>
			<g>
				<path fill="#3B3B68" d="M273.555,714.539V645.73c0-0.979-0.303-1.764-0.876-2.272c-0.52-0.462-1.251-0.677-1.994-0.588
					c-0.682,0.08-1.29,0.422-1.715,0.96s-0.615,1.21-0.533,1.892c0.069,0.584-0.349,1.114-0.934,1.184
					c-0.597,0.067-1.115-0.349-1.184-0.934c-0.147-1.247,0.199-2.476,0.976-3.462c0.778-0.985,1.892-1.609,3.139-1.758
					c1.351-0.158,2.687,0.246,3.661,1.111c0.727,0.646,1.592,1.84,1.592,3.867v68.809H273.555z"/>
			</g>
			<g>
				<path fill="#E8BFB1" d="M271.811,640.322c-0.229,0.021-0.729,0.798-0.843,1.033c-0.184,0.379-0.237,0.909,0.055,1.252
					c0.424,0.498,1.073,0.006,1.47-0.304c0.338-0.264,0.617-0.58,0.868-0.921c0.134-0.182,0.252-0.418,0.406-0.572"/>
			</g>
		</g>
		<path fill="#E8BFB1" d="M321.774,711.709l-0.27,0.162c-0.796,0.506-1.187,1.38-1.478,2.274c-0.235,0.69-1.052,0.946-2.026,0.953
			c-1.834,0.014-5.572-0.207-3.973-1.429c2.252-1.457,3.681-3.269,4.079-5.522c-0.007-0.014-0.093-0.171-0.249-0.447
			c-0.434-0.761-1.393-2.432-2.658-4.62c-5.139-8.892-15.295-26.334-15.295-26.334c-0.54-0.909-0.831-1.94-0.853-2.999
			l-0.305-14.471l-4.194,10.711c5.032,2.708,2.538,16.88-0.213,30.306c-0.477,2.354-0.967,4.685-1.428,6.923
			c0,0,0.063,0.257,0.163,0.626c0.17,0.633,0.44,1.606,0.661,2.225c0.299,0.817,0.071,1.742-0.576,2.338l-0.461,0.434
			c-0.726,0.683-1.813,0.789-2.651,0.264c-0.832-0.512-1.862-0.584-2.744-0.178c-0.824,0.377-1.72,0.554-2.623,0.512l-4.37-0.213
			c-0.753-0.036-1.159-0.903-0.705-1.5c0.143-0.186,0.363-0.313,0.598-0.348c3.092-0.52,5.85-1.799,8.287-3.881
			c0.191-0.164,0.391-0.334,0.583-0.513c-0.156-2.388-0.306-4.748-0.447-7.1c-1.294-21.416-1.884-41.395,0.412-55.375
			c0.014-0.121,0.036-0.241,0.057-0.362l15.658-2.325c0.313,1.081,0.391,2.182,0.298,3.263l5.061-0.938
			c-0.028,0.17-0.156,1.115-0.348,2.558c-0.96,7.35-3.583,27.813-3.583,27.813c3.412-0.818,9.745,16.631,12.986,26.332
			c0.924,2.766,1.591,4.905,1.869,5.807c0.1,0.313,0.149,0.477,0.149,0.477C322.912,708.844,323.822,710.408,321.774,711.709z"/>
		<g>
			<g>
				<g>
					<path fill="#E8BFB1" d="M293.856,595.582c-0.4-2.988-1.826-5.788-4.15-7.709c-1.507-1.247-3.144-1.998-4.53-1.779
						c-3.285,0.522-6.927,3.756-4.538,12.14c-0.004,0.006-2.953,1.91,0.335,2.001c1.861,4.281,4.494,5.502,7.428,4.935
						c1.578-0.305,3.231-2.249,4.338-4.235c0.945-1.697,1.419-3.105,1.162-5.031L293.856,595.582z"/>
					<g>
						<path fill="#382F3F" d="M284.747,600.154c-0.418,0.741-1.156,1.101-1.168,1.106c-0.077,0.037-0.17,0.004-0.206-0.073
							c-0.038-0.077-0.004-0.17,0.073-0.205c0.071-0.035,1.737-0.853,1.148-2.61c-0.026-0.081,0.017-0.169,0.098-0.196
							c0.082-0.026,0.169,0.018,0.196,0.1C285.15,599.059,285.014,599.684,284.747,600.154z"/>
					</g>
					<g>
						<path fill="#382F3F" d="M284.001,593.967c-0.052-0.006-0.101-0.036-0.128-0.086c-0.547-0.953-1.439-0.523-1.477-0.504
							c-0.088,0.044-0.191,0.008-0.233-0.077c-0.044-0.087-0.01-0.19,0.075-0.234c0.421-0.213,1.365-0.352,1.937,0.642
							c0.048,0.084,0.019,0.19-0.064,0.238C284.077,593.965,284.038,593.971,284.001,593.967z"/>
					</g>
					<g>
						
							<ellipse transform="matrix(0.9822 -0.188 0.188 0.9822 -107.0547 63.7838)" fill="#382F3F" cx="282.74" cy="596.284" rx="0.613" ry="0.721"/>
					</g>
				</g>
			</g>
			<path fill="#E8BFB1" d="M295.935,606.557c-1.513-0.927-2.677-4.495-2.303-6.834l-5.275,1.4l0.853,4.835
				C288.257,606.779,295.292,609.421,295.935,606.557z"/>
		</g>
		<path fill="#382F3F" d="M288.223,595.288l-0.255-0.663l-6.081,2.327c-0.35-0.717-0.885-1.283-1.445-1.09
			c-0.184,0.064-0.497,0.271-0.533,0.931c-0.021,0.381,0.056,0.844,0.217,1.302c0.16,0.458,0.389,0.867,0.643,1.152
			c0.307,0.343,0.581,0.431,0.781,0.431c0.087,0,0.16-0.017,0.216-0.035c0.183-0.065,0.496-0.271,0.533-0.931
			c0.018-0.323-0.049-0.708-0.164-1.095L288.223,595.288z M281.551,598.968c-0.107-0.011-0.491-0.355-0.754-1.108
			c-0.263-0.752-0.179-1.261-0.139-1.322c0.106,0.01,0.49,0.355,0.754,1.106C281.675,598.396,281.591,598.906,281.551,598.968z"/>
		<g>
			<path fill="#4D6B7D" d="M310.718,632.459c-1.52-16.271-10.118-30.411-18.797-27.579l-2.382,0.57
				c-0.826,0.198-1.384,0.968-1.311,1.814c0.325,3.744,1.204,13.703,1.809,18.868c0.272,2.331,0.487,4.707,0.626,7.008
				C296.896,636.608,303.635,635.934,310.718,632.459z"/>
			<path fill="#3B3B68" d="M310.721,632.457c-0.001,0.001-0.003,0.001-0.003,0.002c-7.083,3.475-13.822,4.149-20.055,0.682
				c-0.11-0.062,0.396,2.352,0.286,2.288c-2.075,11.625-3.691,23.418-4.291,38.653c0,0,14.219,5.685,26.981,1.775
				C313.639,675.857,312.689,642.772,310.721,632.457z"/>
		</g>
		<path fill="#3B3B68" d="M321.774,711.709l-0.27,0.162c-0.796,0.506-1.187,1.38-1.478,2.274c-0.235,0.69-1.052,0.946-2.026,0.953
			c-1.834,0.014-5.572-0.207-3.973-1.429c2.252-1.457,3.681-3.269,4.079-5.522c-0.007-0.014-0.093-0.171-0.249-0.447
			c1.13-0.37,2.232-0.732,3.177-1.046c0.1,0.313,0.149,0.477,0.149,0.477C322.912,708.844,323.822,710.408,321.774,711.709z"/>
		<path fill="#3B3B68" d="M293.159,712.404l-0.461,0.434c-0.726,0.683-1.813,0.789-2.651,0.264
			c-0.832-0.512-1.862-0.584-2.744-0.178c-0.824,0.377-1.72,0.554-2.623,0.512l-4.37-0.213c-0.753-0.036-1.159-0.903-0.705-1.5
			c0.143-0.186,0.363-0.313,0.598-0.348c3.092-0.52,5.85-1.799,8.287-3.881c1.6,0.12,3.185,0.241,4.584,0.348
			c0.17,0.633,0.44,1.606,0.661,2.225C294.034,710.884,293.806,711.809,293.159,712.404z"/>
		<path fill="#E8BFB1" d="M290.67,607.236c-3.065,2.996-6.746,9.286-12.07,16.256l-14.927-6.021l-1.181-1.9
			c-1.614-3.021-2.144-1.655-2.144-1.655l0.598,1.914c-4.855-0.21-4.937-2.872-6.161-2.124c-0.56,0.343-0.814,1.054-0.638,1.687
			c0.824,2.953,6.271,4.015,7.712,4.357l13.259,8.78c2.203,1.281,4.976,0.991,6.865-0.719c3.419-3.094,8.799-8.83,13.081-17.357
			C296.463,607.664,292.903,605.055,290.67,607.236z"/>
		<g>
			<path fill="#CC534E" d="M292.739,604.048c-1.141,0.809-2.658,0.732-3.804,1.79c-1.086,1.003-2.012,2.233-2.821,3.468
				c-1.519,2.316-2.505,5.136-3.779,7.608c-0.281,0.545-0.605,1.106-0.867,1.651c-0.508,1.058-0.669,0.724,0.53,1.227
				c1.497,0.627,3.045,1.32,4.123,2.587c1.843,2.166,2.788,5.271,6.059,5.729c1.142,0.16,2.511,0.031,3.608-0.205
				c1.466-0.316,3.023-1.14,4.534-0.671c2.439,0.759,4.629,3.556,7.409,2.974c3.674-0.77,3.359-4.36,2.489-7.054
				c-0.912-2.823-2.125-5.565-3.135-8.394c-1.481-4.147-3.943-7.303-7.272-10.127c-1.147-0.973-2.552-1.66-4.08-1.82
				c-1.362-0.143-2.634,0.793-3.665,0.789"/>
		</g>
		<g>
			<path fill="#F7E4D5" d="M302.086,605.053c-0.52-0.695-0.377-0.577-0.079-1.462c0.19-0.564,0.299-1.204,0.414-1.79
				c0.315-1.606-0.536-2.625-1.974-3.376c-0.668-0.349-0.813-0.267-1.043-1.017c-0.165-0.542-0.223-1.142-0.357-1.697
				c-0.273-1.13-0.564-2.266-0.828-3.39c-1.252-5.343-5.496-9.848-11.313-9.508c-2.751,0.161-5.915,2.047-6.842,4.732
				c-0.228,0.659-0.18,0.841-0.687,1.219c-0.599,0.445-1.221,0.718-1.735,1.299c-0.89,1.007-1.728,2.938-0.431,3.988
				c0.391,0.316,0.875,0.484,1.294,0.276l-0.25-0.416c0.223,0.222,0.469,0.426,0.727,0.615c0.41-1.042,0.329-2.514,1.101-3.365
				c0.438,0.491,0.931,1.091,1.561,1.348c0.293-0.94,0.858-1.789,1.117-2.732c0.706,3.182,4.354,4.479,4.432,7.908
				c0.429-0.972,1.797-2.844,2.943-1.627c0.87,0.921,0.058,3.2-1.212,3.326c-0.004,0.869,0.594,1.79,0.919,2.597
				c0.176,0.435,0.322,0.901,0.487,1.333c0.242,0.639,0.213,0.694,0.158,1.385c-0.122,1.537,0.94,1.368,2.093,1.457
				c1.448,0.112,0.484,1.065,0.748,2.053c0.247,0.928,1.968,1.132,2.766,0.808c0.554-0.226,0.701-1.021,1.142-1.174
				c0.257-0.089,1.308,0.187,1.618,0.264c1.254,0.314,2.204,0.995,3.387,0.055C303.483,607.178,302.857,606.083,302.086,605.053z"/>
		</g>
	</g>
</g>
<g>
	<g>
		<path fill="#4D6B7D" d="M722.519,541.273c0-2.67-0.24-5.563-0.245-8.411c-0.01-5.942,8.976-6.374,9.461-0.452
			c0.107,1.307,0.122,2.679,0.096,4.037c-0.061,3.138,2.958,5.508,5.97,4.626c9.616-2.813,8.147,11.215,5.22,22.825
			c-0.845,3.35,2.087,6.148,5.501,5.619c3.094-0.479,5.777,1.362,6.978,7.171c0.899,4.35-0.026,8.489-1.703,12.324
			c-1.307,2.988,0.945,6.308,4.201,6.485c13.865,0.762,9.825,15.297,2.303,27.078c-1.713,2.68-0.613,6.432,2.44,7.328
			c1.842,0.541,3.053,1.941,4.006,5.237c1.42,4.907-0.505,11.628-1.521,16.343c-2.277,10.57-8.222,21.152-16.845,28.092
			c-21.756,17.513-49.334-7.962-59.759-26.385c-3.456-6.108-6.088-12.895-5.09-20.083c0.884-6.354,8.974-16.086,14.025-6.594
			c-4.093-5.96-9.638-16.069-9.521-23.398c0.069-4.353,4.396-9.558,8.36-10.372c2.68-0.55,4.15-3.5,3.322-6.106
			c-1.444-4.542-2.836-9.183-1.955-13.92c1.804-9.712,13.261-8.974,15.084,0.412c-2.734-6.36-5.965-18.884-3.858-25.878
			c3.099-10.29,13.002-11.035,12.029,0.018"/>
	</g>
	<g>
		<g>
			<g>
				<path fill="#3B3B68" d="M725.434,555.923c0.253,49.465,0.506,98.929,0.759,148.394c0.023,4.644,0.048,9.288,0.071,13.932
					c0.01,1.934,3.01,1.936,3,0c-0.253-49.465-0.506-98.929-0.759-148.394c-0.023-4.644-0.048-9.288-0.071-13.932
					C728.424,553.988,725.424,553.988,725.434,555.923L725.434,555.923z"/>
			</g>
		</g>
		<g>
			<g>
				<path fill="#3B3B68" d="M727.853,665.523c5.218-0.259,9.361-3.003,12.698-6.893c1.673-1.949,2.605-4.39,3.729-6.663
					c0.802-1.62,1.781-3.385,1.684-5.241c-0.102-1.924-3.102-1.935-3,0c0.142,2.696-2.713,6.943-4.089,9.148
					c-2.313,3.709-6.684,6.434-11.022,6.648C725.928,662.619,725.918,665.619,727.853,665.523L727.853,665.523z"/>
			</g>
		</g>
		<g>
			<g>
				<path fill="#3B3B68" d="M703.781,636.867c4.426,9.261,12.146,15.131,22.701,14.614c1.926-0.095,1.935-3.095,0-3
					c-9.545,0.467-16.139-4.817-20.111-13.128C705.537,633.608,702.951,635.131,703.781,636.867L703.781,636.867z"/>
			</g>
		</g>
		<g>
			<g>
				<path fill="#3B3B68" d="M728.709,637.096c8.853,0.132,16.181-12.246,16.398-19.995c0.055-1.936-2.945-1.931-3,0
					c-0.17,6.038-6.31,17.101-13.398,16.995C726.773,634.066,726.776,637.066,728.709,637.096L728.709,637.096z"/>
			</g>
		</g>
		<g>
			<g>
				<path fill="#3B3B68" d="M706.658,613.676c0.796,8.468,12.218,14.865,19.995,14.857c1.935-0.002,1.935-3.002,0-3
					c-5.883,0.006-16.37-5.201-16.995-11.857C709.479,611.767,706.478,611.749,706.658,613.676L706.658,613.676z"/>
			</g>
		</g>
		<g>
			<g>
				<path fill="#3B3B68" d="M711.811,620.088c3.569-0.574,5.185-6.082,5.041-9.151c-0.09-1.926-3.09-1.935-3,0
					c0.082,1.76-0.71,5.916-2.838,6.259C709.107,617.502,709.919,620.393,711.811,620.088L711.811,620.088z"/>
			</g>
		</g>
		<g>
			<g>
				<path fill="#3B3B68" d="M728.88,602.161c3.516,0.111,6.517-2.392,8.817-4.799c2.066-2.162,4.231-4.934,4.499-8.004
					c0.168-1.928-2.834-1.912-3,0c-0.19,2.192-2.211,4.34-3.62,5.883c-1.678,1.837-4.061,4.004-6.696,3.92
					C726.944,599.1,726.95,602.1,728.88,602.161L728.88,602.161z"/>
			</g>
		</g>
		<g>
			<g>
				<path fill="#3B3B68" d="M714.912,577.271c1.584,3.453,1.975,6.949,5.161,9.361c1.862,1.409,5.087,3.078,7.337,1.623
					c1.618-1.046,0.116-3.644-1.514-2.59c-1.3,0.84-4.077-1.379-4.991-2.197c-1.975-1.767-2.325-5.363-3.403-7.711
					C716.696,574.001,714.111,575.526,714.912,577.271L714.912,577.271z"/>
			</g>
		</g>
		<g>
			<g>
				<path fill="#3B3B68" d="M729.256,567.129c3.332-4.283,5.956-8.501,6.091-14.076c0.047-1.936-2.953-1.932-3,0
					c-0.114,4.721-2.396,8.336-5.212,11.955C725.962,566.515,728.069,568.654,729.256,567.129L729.256,567.129z"/>
			</g>
		</g>
		<g>
			<g>
				<path fill="#3B3B68" d="M738.127,597.709c3.842-0.028,6.781-1.171,8.659-4.683c0.912-1.705-1.678-3.22-2.59-1.514
					c-1.385,2.588-3.248,3.176-6.069,3.196C736.193,594.724,736.191,597.724,738.127,597.709L738.127,597.709z"/>
			</g>
		</g>
		<g>
			<g>
				<path fill="#3B3B68" d="M741.52,652.747c0.058,0.007-0.798-0.469-0.965-0.558c-0.691-0.366-1.255-0.86-1.787-1.427
					c-0.456-0.485-0.783-1.077-1.009-1.699c-0.095-0.3-0.174-0.603-0.237-0.91c-0.125-0.529,0.037-0.864-0.226-0.343
					c0.866-1.724-1.722-3.243-2.59-1.514c-0.902,1.794,0.309,4.467,1.405,5.928c1.229,1.636,3.329,3.278,5.408,3.522
					C743.438,655.973,743.417,652.97,741.52,652.747L741.52,652.747z"/>
			</g>
		</g>
	</g>
</g>
<g>
	<ellipse fill="#F1F1F1" cx="470.803" cy="298.079" rx="70.188" ry="11.393"/>
	<g>
		<g>
			<path fill="#EDB93C" d="M428.296,113.529c-4.205-2.349-12.101,2.238-13.078,6.837c-0.844,3.97,1.789,8.408-1.111,11.962
				c-1.422,1.745-3.323,3.215-5.038,4.651c-1.127,0.944-2.721,2.057-2.567,3.729c0.194,2.104,4.008,1.945,3.962,4.638
				c-0.048,2.804-3.131,4.001-4.139,6.393c-1.068,2.537,1.214,3.412,3.032,4.486c2.282,1.349,1.82,4.022,0.223,5.72
				c-1.354,1.438-3.45,1.934-4.775,3.414c-0.534,0.597-0.934,1.489-0.445,2.269c0.512,0.815,1.775,0.838,2.208,1.7
				c0.398,0.794-0.586,1.156-0.769,1.803c-0.238,0.848,0.43,1.172,1.104,1.474c1.582,0.707,3.451,0.502,5.135,0.423
				c1.941-0.094,3.875-0.306,5.79-0.638c5.213-0.904,10.172-2.734,14.856-5.176c1.588-0.828,2.578-1.817,3.017-3.585
				c0.692-2.79,1.014-6.144,1.014-9.018c0-2.394-0.56-4.729-0.322-7.1c0.145-1.438,0.356-2.847,0.42-4.287
				c0.046-1.045-0.139-2.157-0.003-3.194c0.284-2.169,0.333-3.641-1.304-5.38c-0.955-1.014-2.336-1.655-2.932-3.013
				c-0.489-1.115-0.175-2.432-0.02-3.546c0.302-2.18,0.462-5.269-0.028-7.433c-0.671-2.964-3.092-4.921-5.816-5.94"/>
		</g>
		<g>
			<path fill="#EDB93C" d="M433.569,128.09c-1.204,3.968,2.693,4.918,3.839,8.094c1.008,2.795-2.03,5.697-2.457,8.35
				c-0.11,0.678-0.188,1.277,0.161,1.895c0.454,0.803,1.686,1.032,1.674,2.045c-0.815-0.516-1.027-1.47-1.67-2.14
				c-0.756-0.789-1.645-1.342-2.097-2.399c-0.426-1-0.353-2.672,0.139-3.653c0.404-0.808,1.092-0.979,1.104-1.986
				c0.009-0.851-0.438-1.372-0.968-1.989c-1.063-1.236-1.899-2.847-1.905-4.552"/>
		</g>
		<g>
			<path fill="#4D6B7D" d="M441.105,173.076c-1.937,0.418-4.52,0.981-5.956,1.315c-3.072-13.201-5.644-26.055-4.866-29.464
				c0.478-2.117,4.508-3.946,6.014-2.451c3.911,3.838,2.656,15.952,4.317,28.005C440.734,171.343,440.866,172.215,441.105,173.076z"
				/>
			<path fill="#E8BFB1" d="M451.143,205.615c-0.62,0-1.271,0.075-1.917,0.196l-5.562-24.579c-0.55-2.403-1.375-4.712-2.211-7.02
				c-0.144-0.383-0.251-0.753-0.347-1.136c-1.937,0.418-4.52,0.981-5.956,1.315c3.838,16.407,8.478,33.363,8.478,33.363l0.006-0.001
				v0.566c0,1.074,0.855,1.932,1.873,1.878l9.351-0.498v-0.009C454.857,207.502,453.22,205.615,451.143,205.615z"/>
		</g>
		<path fill="#E3AAA9" d="M436.082,151.755c-0.228,0.592-1.117,1.117-2.416,1.538c-5.321,1.789-17.457,2.086-18.562-0.273
			l3.054-9.139c0.012-0.068,0.034-0.125,0.058-0.194l0.513-1.515l1.14-0.137c0.524-0.114,0.946-0.262,1.275-0.468
			c0.627-0.376,0.981-0.934,1.186-1.868c0-0.012,0-0.012,0-0.012c0.045-0.296,0.069-0.581,0.081-0.843
			c0.045-1.002-0.639-5.502-0.993-6.151l6.94,2.141l0.239,2.609c0.046,0.479,0.081,0.969,0.103,1.458
			c0.034,0.444,0.057,0.9,0.069,1.356c0.01,0.684,0.513,1.253,1.196,1.322l1.401,0.182l3.259,6.906L436.082,151.755z"/>
		<path fill="#4D6B7D" d="M434.249,178.436c-0.2-1.588-0.227-3.195-0.044-4.794c0.536-4.735,3.777-8.254,4.593-12.857
			c0.796-4.5-1.142-8.768-1.747-13.158c-0.22-1.595,0.332-5.635-2.114-5.763c-1.658-0.087-3.326-0.132-4.979-0.282
			c1.405,3.782,2.311,11.494-3.708,11.494c-6.3,0.411-6.249-6.638-6.405-11.037c-0.482,0.113-5.522,0.624-5.522,0.624
			c0.159,2.916-0.189,6.069-0.723,8.955c-0.319,1.725-0.839,3.411-1.108,5.145c-0.362,2.32-0.017,4.521,0.869,6.683
			c1.094,2.672,2.603,5.325,2.763,8.261c0.341,6.264-2.485,12.287-4.961,17.872c-0.469,1.059-4.274,13.174-3.351,13.817
			c12.409,8.648,23.235,1.625,32.397-8.436c1.46-1.603-2.811-7.067-3.524-8.539C435.47,183.913,434.596,181.204,434.249,178.436z"/>
		<path fill="#DE612A" d="M464.821,228.013l-4.097,3.576c-10.282-6.498-18.313-17.288-22.916-24.514v-0.012
			c-2.797-4.368-4.318-7.437-4.318-7.437l-7.264,6.075c-0.198,0.173-0.409,0.334-0.619,0.483c-2.673,2.053-5.877,3.366-9.256,3.513
			c-4.64,0.21-6.941-1.955-8.031-4.578c-1.72-4.108,0.013-8.859,3.75-11.285c8.65-5.605,14.465-7.833,17.979-8.698
			c2.624-0.656,5.371,0.136,7.288,2.053c10.604,10.642,27.186,40.365,27.186,40.365
			C464.623,227.713,464.722,227.863,464.821,228.013z"/>
		<path fill="#DE612A" d="M432.142,241.722l-1.807,9.23l0.086,0.866h-4.975l0.161-0.866v-48.74c0-0.235,0.013-0.458,0.05-0.68
			c0.073-0.558,0.272-1.646,0.717-2.81c1.51-3.947,6.793-4.33,8.946-0.694c1.497,2.525,2.252,5.582,2.487,9.034v0.012
			C438.465,216.75,435,229.458,432.142,241.722z"/>
		<g>
			<path fill="#3B3B68" d="M428.017,140.218l6.554-1.164c0.602-0.107,1.174,0.302,1.267,0.906l1.966,12.802
				c0.08,0.524-0.229,1.031-0.732,1.198l-5.555,1.849c-0.613,0.205-1.268-0.167-1.407-0.799l-2.965-13.487
				C427.011,140.919,427.408,140.326,428.017,140.218z"/>
			<path fill="#382F3F" d="M428.485,140.716l6.555-1.164c0.601-0.107,1.172,0.302,1.266,0.906l1.966,12.803
				c0.081,0.523-0.229,1.03-0.732,1.197l-5.555,1.85c-0.613,0.205-1.268-0.168-1.407-0.8l-2.965-13.487
				C427.479,141.417,427.877,140.824,428.485,140.716z"/>
			<circle fill="#FFFFFF" cx="429.686" cy="142.781" r="0.959"/>
		</g>
		<path fill="#4D6B7D" d="M412.021,144.38c0.827-1.894,3.403-2.36,4.816-0.851c1.829,1.954,3.766,6.865,3.672,18.939l0.001,1.458
			c0.001,3.562-2.806,6.49-6.364,6.641l-1.591,0.068C412.555,170.636,409.029,151.229,412.021,144.38z"/>
		<path fill="#382F3F" d="M431.078,265.542c-0.743,1.212-1.992,1.806-3.217,1.806c-1.448,0-2.872-0.804-3.515-2.338l-0.544-1.313
			c-0.285-0.68-0.358-1.434-0.223-2.165l1.869-9.714h4.975l1.188,11.349C431.696,263.996,431.511,264.837,431.078,265.542z"/>
		<path fill="#382F3F" d="M473.396,244.555c-3.428-0.248-7.635-3.366-10.432-5.234c-1.844-1.238-2.747-3.464-2.277-5.643
			l0.409-1.843c-0.124-0.075-0.248-0.161-0.372-0.248l4.097-3.576c3.823,5.876,7.845,9.737,10.406,11.864
			C477.182,241.5,475.92,244.728,473.396,244.555z"/>
		<path fill="#E8BFB1" d="M437.351,145.707c-0.341-1.141-1.705-1.611-2.693-0.952l-3.809,2.528
			c-0.517,0.341-1.234,0.153-1.517-0.411l-2.034-4.08c-0.223-0.423-0.858-0.318-0.928,0.152c-0.165,1.211,0.2,2.763,1.48,9.395
			c0,0-0.364,0.248-0.986,0.694c-3.681,2.598-15.495,12.004-14.343,17.309c0,0,0.364,5.313,4.621,2.938
			c0.858-0.469,1.575-1.151,2.175-1.927l11.476-15.298c0.723-0.626,1.5-1.206,2.325-1.705c1.529-0.918,3.328-2.035,4.221-2.763
			c0.411-0.329,0.636-0.836,0.636-1.364C437.963,149.247,437.868,147.412,437.351,145.707z"/>
		<g>
			<g>
				<g>
					<path fill="#E8BFB1" d="M416.135,130.069c-0.709-1.534-0.721-3.753,0.597-4.153c0.394-0.119,0.881-0.067,1.383,0.103
						c0.034-4.796,2.352-10.622,5.644-11.621c4.307-1.308,8.564,0.051,11.636,11.271c1.214,4.44-0.832,9.823-4.979,11.489
						c-3.117,1.252-7.63-1.431-10.184-4.726C418.713,132.328,417.035,132.014,416.135,130.069z"/>
					<g>
						<g>
							<g>
								<path fill="#382F3F" d="M431.541,129.113c0.02-0.002,0.041-0.007,0.061-0.014c0.493-0.185,1.144-0.487,1.104-0.984
									c-0.057-0.689-1.53-1.048-2.159-1.171c-0.134-0.025-0.262,0.061-0.289,0.194c-0.026,0.133,0.061,0.261,0.194,0.288
									c0.89,0.174,1.748,0.528,1.765,0.73c0,0.002-0.02,0.196-0.786,0.482c-0.127,0.048-0.191,0.189-0.145,0.316
									C431.325,129.062,431.433,129.125,431.541,129.113z"/>
							</g>
						</g>
						<g>
							<g>
								<path fill="#382F3F" d="M431.66,132.116c0.272-0.056,0.438-0.111,0.445-0.114c0.145-0.051,0.222-0.209,0.173-0.355
									c-0.051-0.145-0.197-0.229-0.356-0.173c-0.132,0.047-3.315,1.097-4.782-1.907c-0.067-0.138-0.232-0.198-0.375-0.128
									c-0.138,0.068-0.195,0.235-0.127,0.374C427.977,132.555,430.613,132.331,431.66,132.116z"/>
							</g>
						</g>
						
							<ellipse transform="matrix(-0.9886 0.1509 -0.1509 -0.9886 867.6794 186.4737)" fill="#382F3F" cx="426.765" cy="126.157" rx="0.819" ry="0.9"/>
						
							<ellipse transform="matrix(-0.9886 0.1509 -0.1509 -0.9886 878.5823 183.7138)" fill="#382F3F" cx="432.321" cy="125.19" rx="0.819" ry="0.9"/>
						<g>
							<g>
								<path fill="#382F3F" d="M423.724,124.897c0.104-0.011,0.2-0.082,0.236-0.188c0.57-1.68,2.1-1.271,2.165-1.253
									c0.147,0.042,0.3-0.045,0.345-0.193c0.041-0.148-0.046-0.303-0.194-0.344c-0.725-0.205-2.255-0.13-2.846,1.611
									c-0.049,0.146,0.029,0.304,0.177,0.354C423.645,124.897,423.685,124.9,423.724,124.897z"/>
							</g>
						</g>
						<g>
							<g>
								<path fill="#382F3F" d="M430.982,122.422c0.072,0.051,0.171,0.058,0.252,0.01c1.286-0.754,2.032,0.346,2.063,0.393
									c0.071,0.107,0.216,0.136,0.326,0.066c0.107-0.072,0.137-0.217,0.065-0.325c-0.348-0.528-1.36-1.32-2.691-0.54
									c-0.112,0.066-0.149,0.209-0.083,0.321C430.932,122.379,430.954,122.403,430.982,122.422z"/>
							</g>
						</g>
					</g>
				</g>
			</g>
		</g>
		<g>
			<path fill="#EDB93C" d="M432.592,114.928c1.282,0.923,3.129,1.882,3.113,3.753c-0.014,1.625-1.941,2.347-3.272,2.468
				c-1.744,0.16-3.515-0.25-5.255-0.019c-2.122,0.283-3.948,1.235-4.824,3.241c-1.693,3.874-1.161,8.353-0.173,12.312
				c0.19,0.767,0.74,1.989,0.322,2.744c-0.226,0.407-0.68,0.62-0.89,1.058c-0.183,0.38-0.386,1.161-0.219,1.568
				c0.146,0.353,0.616,0.578,0.84,0.898c0.218,0.313,0.358,0.709,0.521,1.059c0.321,0.695,0.401,1.253,0.402,2.012
				c0.001,1.223-0.357,2.616-1.385,3.375c0.071-1.448,0.511-3.216-0.888-4.18c-1.49-1.027-2.623-2.01-2.889-3.928
				c-0.256-1.83,1.063-2.76,1.516-4.379c0.515-1.836-0.039-3.859-0.653-5.603c-0.512-1.45-1.426-2.741-1.546-4.302
				c-0.148-1.937-0.02-3.891,0.377-5.806c0.186-0.901,0.39-1.819,0.645-2.696c0.272-0.937,0.854-1.67,1.444-2.434
				c1.251-1.62,2.89-2.516,4.879-2.95c1.806-0.395,3.815-0.405,5.593,0.106c0.664,0.19,1.4,0.489,1.966,0.886
				c0.564,0.396,1.778,1.329,1.715,2.104"/>
		</g>
	</g>
	<g>
		<path fill="#445897" d="M496.374,137.959c0,0-2.188,0.293-4.476,2.283c-2.097,1.822-21.854,31.077-21.854,31.077
			c-0.91,3.626,7.161,4.111,7.161,4.111l18.612-17.094L496.374,137.959z"/>
		<g>
			<g>
				<path fill="#382F3F" d="M511.699,117.542c-0.393-1.473-1.018-2.892-1.811-4.193c-0.84-1.378-1.876-2.651-3.154-3.637
					c-1.277-0.986-2.806-1.677-4.411-1.838c-0.351-0.035-0.742-0.033-1.011,0.195c-0.454,0.387-0.271,1.117-0.039,1.667
					c1.11,2.634,2.499,5.147,3.508,7.825c1.045,2.773,1.319,5.607,1.646,8.527c0.343-0.567,0.688-1.134,1.031-1.702
					c0.026,1.736,0.253,3.469,0.674,5.154c2.386-1.785,3.788-4.716,3.999-7.687C512.236,120.402,512.074,118.947,511.699,117.542z"
					/>
			</g>
			<g>
				<g>
					<path fill="#445897" d="M481.634,300.722c0.126,0.04,0.252,0.08,0.379,0.115c2.37,0.626,6.678,0.808,8.371-0.998
						c0.742-0.796,1.803-1.238,2.895-1.2l0.362,0.016c2.798,0.091,2.017-3.078,1.484-5.832c0,0-0.637-5.572-0.411-5.834
						l-5.114,0.696c-0.216,0.17,0.469,4.096,0.389,4.292l-8.686,6.474C480.433,299.05,480.626,300.391,481.634,300.722z"/>
					<path fill="#382F3F" d="M503.896,186.12c-8.648,28.918-11.085,64.773-8.948,105.734l-5.158-0.313
						c-9.801-29.288-13-60.009-7.182-92.837l3.858-14.933L503.896,186.12z"/>
				</g>
				<g>
					<path fill="#445897" d="M507.488,302.528c0.129,0.028,0.259,0.056,0.389,0.077c2.42,0.383,6.725,0.133,8.228-1.835
						c0.659-0.867,1.669-1.413,2.759-1.485l0.363-0.021c2.792-0.191,1.696-3.263,0.889-5.951c0,0-1.195-5.479-0.996-5.764
						l-5.019,1.208c-0.197,0.194,0.88,4.031,0.819,4.232l-7.989,7.317C506.125,300.988,506.452,302.301,507.488,302.528z"/>
					<path fill="#382F3F" d="M518.097,186.269c-5.691,29.644-4.506,65.56,1.744,106.097l-5.163,0.21
						c-12.7-28.153-18.976-58.398-16.493-91.644l2.334-15.245L518.097,186.269z"/>
				</g>
				<path fill="#445897" d="M488.479,155.518c-1.195-8.381,3.551-16.48,11.447-19.535l0,0l9.226-3.474
					c0.457-0.172,0.964-0.157,1.41,0.043l3.964,1.78c7.363,3.307,11.571,11.167,10.237,19.128l-7.21,43.077l-35.056-7.805
					c0,0,9.258-13.677,7.551-22.209L488.479,155.518z"/>
			</g>
			<g>
				<path fill="#445897" d="M526.211,180.817c-0.332-0.23-0.672-0.48-1.009-0.76c-5.626-4.594-9.794-13.604-8.136-26.604
					c0.508-3.984,1.817-12.328,0.654-17.173c5.878,3.613,11.318,5.987,10.543,14.946c-0.059,0.744,2.034,15.743,2.574,19.625
					C529.136,172.203,526.114,175.396,526.211,180.817z"/>
				<path fill="#BA7F79" d="M558.201,172.047c-2.024,2.017-5.945,4.042-9.002,4.947c-2.938,1.021-5.542,2.246-7.947,3.29
					c-5.528,2.431-10.008,4.012-15.041,0.534c-0.097-5.422,2.925-8.615,4.627-9.967c0.079,0.579,0.13,0.913,0.13,0.913
					c3.887,0.404,7.734,1.399,11.096,1.799c2.648,0.316,5.002,0.289,6.829-0.686c1.618-2.157,2.709-4.519,3.967-6.899
					c1.047,0.149,0.645,1.178,0.546,1.929c-0.212,1.596-0.871,4.519,1.407,1.763c0.516-0.621,0.514-2.205-0.466-3.459
					c-0.222-0.27,1.021-1.601,2.515,0.043C557.539,167.008,560.471,169.787,558.201,172.047z"/>
			</g>
			<g>
				<g>
					<path fill="#EDB93C" d="M495.658,201.398c2.97-3.677,6.303-4.167,7.869-4.166c1.248,0,2.496-0.034,3.729-0.229
						c7.236-1.152,9.545-4.968,9.952-8.705c0.464-4.246-1.999-11.869-3.94-14.943c-2.212-3.502-6.33-6.473-13.827-3.162
						c-1.212,0.537-2.347,1.234-3.454,1.961c-1.314,0.864-4.36,2.275-8.849,0.846c-1.505-0.479-4.042-0.946-5.615-1.073
						c-13.172-1.072-18.08,4.813-17.995,14.902c0.048,5.673,1.725,11.26,4.809,16.023c5.482,8.47,12.821,10.679,23.227,2.533
						C492.806,204.412,494.667,202.625,495.658,201.398z"/>
				</g>
				<g>
					<circle fill="#382F3F" cx="493.703" cy="186.508" r="6.962"/>
				</g>
				<g>
					<path fill="#382F3F" d="M478.358,198.321l-3.816-12.717c-0.23-0.766,0.204-1.573,0.971-1.803l0,0
						c0.766-0.23,1.573,0.206,1.803,0.972l3.816,12.717c0.229,0.766-0.206,1.573-0.972,1.803l0,0
						C479.395,199.522,478.588,199.087,478.358,198.321z"/>
				</g>
				<g>
					<polygon fill="#382F3F" points="555.174,173.693 565.505,168.349 563.64,162.134 551.923,163.468 550.009,167.021 
						497.375,182.019 499.24,188.234 551.435,171.775 					"/>
				</g>
				<g>
					
						<rect x="513.905" y="138.701" transform="matrix(0.2868 0.958 -0.958 0.2868 537.5813 -365.0786)" fill="#FFFFFF" width="0.175" height="79.643"/>
				</g>
				<g>
					<path fill="none" stroke="#FFFFFF" stroke-width="0.1471" stroke-miterlimit="10" d="M552.133,167.077"/>
				</g>
				<g>
					<path fill="#FFFFFF" d="M476.241,191.377l0.012-0.175c1.231,0.013,83.567-25.764,84.398-26.025l0.053,0.168
						C557.298,166.412,477.306,191.455,476.241,191.377z"/>
				</g>
				<g>
					
						<rect x="515.057" y="142.545" transform="matrix(0.2868 0.958 -0.958 0.2868 542.085 -363.4418)" fill="#FFFFFF" width="0.175" height="79.642"/>
				</g>
				<g>
					<path fill="#FFFFFF" d="M476.555,192.42c0.845-0.652,81.41-23.789,84.838-24.772l0.049,0.168
						c-0.838,0.241-83.762,24.055-84.782,24.743L476.555,192.42z"/>
				</g>
				<g>
					<path fill="#BA7F79" d="M550.617,171.571c0.907-1.891,5.625-7.239,8.195-4.127c3.818,4.624-6.733,8.486-9.609,9.549"/>
				</g>
			</g>
			<path fill="#B06B64" d="M508.043,125.705c0.219,0.345,2.58,6.855,2.58,6.855l4.113,1.872c0,0-4.372,2.308-7.863,5.981
				c-2.906,3.056-8.149,0.17-6.855-3.843c0.015-0.045,0.029-0.091,0.046-0.137c0.079-0.226,0.255-0.407,0.47-0.516l1.836-0.927
				l-2.426-5.08L508.043,125.705z"/>
			<g>
				<path fill="#BA7F79" d="M509.439,117.11h-0.013c-0.012,0-0.012,0-0.012,0c-0.227-0.083-0.466-0.107-0.718-0.048
					c-0.406,0.096-0.825,0.382-1.184,0.79c-2.428-4.246-7.414-8.263-10.833-7.51c-3.505,0.777-6.159,2.978-5.789,9.363
					c0.108,1.806,0.454,3.958,1.089,6.494c1.147,4.556,5.668,8.322,10.188,7.725c2.738-0.371,4.998-3.456,6.086-6.84
					c0.274-0.813,0.478-1.65,0.599-2.475c1.291-0.849,2.631-1.973,2.451-4.149C511.197,119.06,510.443,117.493,509.439,117.11z"/>
				<g>
					
						<ellipse transform="matrix(0.978 -0.2086 0.2086 0.978 -14.6243 107.1127)" fill="#382F3F" cx="500.499" cy="122.889" rx="0.871" ry="0.958"/>
					
						<ellipse transform="matrix(0.9779 -0.209 0.209 0.9779 -14.9648 106.0595)" fill="#382F3F" cx="494.394" cy="123.844" rx="0.87" ry="0.958"/>
					<g>
						<g>
							<path fill="#382F3F" d="M502.624,121.013c-0.108,0.028-0.229-0.006-0.305-0.099c-1.2-1.457-2.567-0.474-2.626-0.432
								c-0.132,0.097-0.316,0.069-0.416-0.062c-0.097-0.132-0.068-0.318,0.064-0.416c0.644-0.477,2.193-0.978,3.437,0.531
								c0.104,0.126,0.087,0.314-0.041,0.418C502.703,120.983,502.665,121.002,502.624,121.013z"/>
						</g>
					</g>
					<g>
						<g>
							<path fill="#382F3F" d="M495.584,121.573c-0.078,0.053-0.184,0.059-0.27,0.007c-1.356-0.822-2.167,0.336-2.202,0.385
								c-0.076,0.114-0.23,0.143-0.347,0.066c-0.113-0.078-0.143-0.233-0.063-0.347c0.378-0.557,1.468-1.383,2.871-0.532
								c0.117,0.072,0.155,0.225,0.083,0.343C495.638,121.528,495.613,121.554,495.584,121.573z"/>
						</g>
					</g>
					<g>
						<g>
							<path fill="#382F3F" d="M500.186,129.53c0.015-0.093,0.081-0.175,0.178-0.202c1.52-0.438,1.22-1.816,1.205-1.875
								c-0.03-0.134,0.053-0.266,0.188-0.299c0.133-0.03,0.267,0.053,0.297,0.188c0.153,0.653,0.022,2.012-1.552,2.465
								c-0.132,0.038-0.271-0.038-0.308-0.171C500.183,129.6,500.18,129.564,500.186,129.53z"/>
						</g>
					</g>
					<g>
						<path fill="#382F3F" d="M497.785,129.311c-0.206,0.018-0.404-0.02-0.584-0.116c-0.573-0.305-0.781-1.1-0.559-2.128
							l0.411-3.393c0.017-0.131,0.131-0.224,0.266-0.208c0.132,0.016,0.226,0.135,0.209,0.266l-0.415,3.416
							c-0.21,0.971,0.024,1.473,0.313,1.626c0.295,0.157,0.712,0.015,1.066-0.357c0.091-0.094,0.25-0.11,0.348-0.022
							c0.094,0.089,0.113,0.226,0.026,0.323C498.521,129.078,498.143,129.279,497.785,129.311z"/>
					</g>
				</g>
			</g>
			<g>
				<path fill="#382F3F" d="M490.236,119.01c1.006,0.651,1.87,0.999,3.082,1.129c0.047-0.371-0.263-0.755-0.368-1.104
					c-0.127-0.423-0.266-0.911-0.217-1.357c0.485,0.281,0.899,0.641,1.435,0.834c0.673,0.244,1.421,0.329,2.12,0.475
					c1.027,0.214,1.705,0.545,2.072,1.607c-0.014-0.868-0.042-1.699,0.247-2.532c0.242-0.699,0.584-1.406,0.867-2.079
					c1.146,0.649,2.234,1.347,3.358,2.017c0.915,0.545,2.019,1.33,2.476,2.306c0.436,0.93-0.013,1.652-0.138,2.59
					c-0.067,0.515-0.217,1.562-0.039,2.046c0.563-0.714,0.91-1.925,1.229-2.799c0.33-0.909,0.608-1.811,0.901-2.735
					c0.292-0.918,0.72-1.798,0.712-2.763c-0.015-2.039-0.534-4.155-1.547-5.92c-2.287-3.988-8.156-3.5-11.867-2.24
					c-2.271,0.77-4.371,2.425-5.481,4.534c-0.85,1.614-1.201,3.813-0.767,5.618c0.302,1.253,0.885,2.32,1.514,3.426
					c0.482,0.848,0.858,1.736,1.659,2.317c0.378-0.49,0.212-1.764,0.241-2.355c0.041-0.818,0.005-1.646,0.005-2.466"/>
			</g>
		</g>
		<path fill="#BA7F79" d="M504.323,189.455l1.394-5.028c0.272-1.014-0.174-2.081-1.094-2.595l-1.05-0.586
			c-1.163-0.64-2.584-0.589-3.692,0.145l-4.081,2.692c-0.636,0.428-1.473,0.421-2.104-0.02l-0.204-0.143l-2.905-2.011
			c0,0-15.388-15.141-20.542-10.59c-2.533,3.231-1.118,7.991,2.751,9.329l14.841,5.123l3.987,1.379l2.624,0.911
			c0.533,0.176,1.111,0.21,1.658,0.089l5.648-1.282c0.382-0.086,0.75,0.18,0.784,0.57l0.476,1.992
			C502.998,190.209,504.109,190.229,504.323,189.455z"/>
	</g>
</g>
</svg>
